%TF.GenerationSoftware,KiCad,Pcbnew,10.0.3*%
%TF.CreationDate,2026-06-18T21:12:08+05:30*%
%TF.ProjectId,analogoscilloscope,616e616c-6f67-46f7-9363-696c6c6f7363,rev?*%
%TF.SameCoordinates,Original*%
%TF.FileFunction,Copper,L2,Inr*%
%TF.FilePolarity,Positive*%
%FSLAX46Y46*%
G04 Gerber Fmt 4.6, Leading zero omitted, Abs format (unit mm)*
G04 Created by KiCad (PCBNEW 10.0.3) date 2026-06-18 21:12:08*
%MOMM*%
%LPD*%
G01*
G04 APERTURE LIST*
G04 Aperture macros list*
%AMRoundRect*
0 Rectangle with rounded corners*
0 $1 Rounding radius*
0 $2 $3 $4 $5 $6 $7 $8 $9 X,Y pos of 4 corners*
0 Add a 4 corners polygon primitive as box body*
4,1,4,$2,$3,$4,$5,$6,$7,$8,$9,$2,$3,0*
0 Add four circle primitives for the rounded corners*
1,1,$1+$1,$2,$3*
1,1,$1+$1,$4,$5*
1,1,$1+$1,$6,$7*
1,1,$1+$1,$8,$9*
0 Add four rect primitives between the rounded corners*
20,1,$1+$1,$2,$3,$4,$5,0*
20,1,$1+$1,$4,$5,$6,$7,0*
20,1,$1+$1,$6,$7,$8,$9,0*
20,1,$1+$1,$8,$9,$2,$3,0*%
G04 Aperture macros list end*
%TA.AperFunction,ComponentPad*%
%ADD10R,1.700000X1.700000*%
%TD*%
%TA.AperFunction,ComponentPad*%
%ADD11C,1.700000*%
%TD*%
%TA.AperFunction,ComponentPad*%
%ADD12RoundRect,0.250000X-0.350000X-0.625000X0.350000X-0.625000X0.350000X0.625000X-0.350000X0.625000X0*%
%TD*%
%TA.AperFunction,ComponentPad*%
%ADD13O,1.200000X1.750000*%
%TD*%
%TA.AperFunction,ComponentPad*%
%ADD14RoundRect,0.250001X1.149999X-1.149999X1.149999X1.149999X-1.149999X1.149999X-1.149999X-1.149999X0*%
%TD*%
%TA.AperFunction,ComponentPad*%
%ADD15C,2.800000*%
%TD*%
%TA.AperFunction,HeatsinkPad*%
%ADD16C,0.500000*%
%TD*%
%TA.AperFunction,ComponentPad*%
%ADD17RoundRect,0.249999X0.850001X-0.850001X0.850001X0.850001X-0.850001X0.850001X-0.850001X-0.850001X0*%
%TD*%
%TA.AperFunction,ComponentPad*%
%ADD18C,2.200000*%
%TD*%
%TA.AperFunction,ComponentPad*%
%ADD19O,1.600000X2.500000*%
%TD*%
%TA.AperFunction,ComponentPad*%
%ADD20O,3.500000X7.000000*%
%TD*%
%TA.AperFunction,ComponentPad*%
%ADD21R,1.050000X1.500000*%
%TD*%
%TA.AperFunction,ComponentPad*%
%ADD22O,1.050000X1.500000*%
%TD*%
%TA.AperFunction,ComponentPad*%
%ADD23O,2.100000X1.000000*%
%TD*%
%TA.AperFunction,ComponentPad*%
%ADD24O,1.600000X1.000000*%
%TD*%
%TA.AperFunction,ComponentPad*%
%ADD25O,2.500000X3.000000*%
%TD*%
%TA.AperFunction,ComponentPad*%
%ADD26R,2.000000X2.000000*%
%TD*%
%TA.AperFunction,ComponentPad*%
%ADD27C,2.000000*%
%TD*%
%TA.AperFunction,ComponentPad*%
%ADD28R,3.200000X2.000000*%
%TD*%
%TA.AperFunction,ViaPad*%
%ADD29C,0.600000*%
%TD*%
%TA.AperFunction,ViaPad*%
%ADD30C,0.500000*%
%TD*%
%TA.AperFunction,Conductor*%
%ADD31C,0.200000*%
%TD*%
G04 APERTURE END LIST*
D10*
%TO.N,SWCLK*%
%TO.C,J6*%
X74080000Y-108990000D03*
D11*
%TO.N,SWD*%
X74080000Y-111530000D03*
%TO.N,GND*%
X74080000Y-114070000D03*
%TD*%
D12*
%TO.N,VBUS_SYSTEM*%
%TO.C,J5*%
X74080000Y-31980000D03*
D13*
%TO.N,GND*%
X76080000Y-31980000D03*
%TD*%
D14*
%TO.N,+Vout*%
%TO.C,J4*%
X149580000Y-57530000D03*
D15*
%TO.N,GNDA*%
X149580000Y-52530000D03*
%TO.N,-Vout*%
X149580000Y-47530000D03*
%TD*%
D10*
%TO.N,+3V3_DIGITAL*%
%TO.C,J7*%
X103080000Y-85990000D03*
D11*
%TO.N,GND*%
X103080000Y-88530000D03*
%TO.N,TFT_CS*%
X103080000Y-91070000D03*
%TO.N,TFT_RST*%
X103080000Y-93610000D03*
%TO.N,TFT_DC*%
X103080000Y-96150000D03*
%TO.N,TFT_MOSI*%
X103080000Y-98690000D03*
%TO.N,TFT_SCLK*%
X103080000Y-101230000D03*
%TO.N,Net-(J7-Pin_8)*%
X103080000Y-103770000D03*
%TO.N,TFT_MISO*%
X103080000Y-106310000D03*
%TO.N,unconnected-(J7-Pin_10-Pad10)*%
X103080000Y-108850000D03*
%TO.N,unconnected-(J7-Pin_11-Pad11)*%
X103080000Y-111390000D03*
%TO.N,unconnected-(J7-Pin_12-Pad12)*%
X103080000Y-113930000D03*
%TO.N,unconnected-(J7-Pin_13-Pad13)*%
X103080000Y-116470000D03*
%TO.N,unconnected-(J7-Pin_14-Pad14)*%
X103080000Y-119010000D03*
%TD*%
D16*
%TO.N,GND*%
%TO.C,U4*%
X91605000Y-68185000D03*
X92580000Y-68185000D03*
X93555000Y-68185000D03*
X91605000Y-67210000D03*
X92580000Y-67210000D03*
X93555000Y-67210000D03*
X91605000Y-66235000D03*
X92580000Y-66235000D03*
X93555000Y-66235000D03*
%TD*%
D17*
%TO.N,V_SWEEP*%
%TO.C,J2*%
X164080000Y-62110000D03*
D18*
%TO.N,CURRENT_IN*%
X164080000Y-59570000D03*
%TO.N,GNDA*%
X164080000Y-57030000D03*
%TD*%
D19*
%TO.N,Net-(J1-In)*%
%TO.C,J1*%
X149000000Y-96950000D03*
D20*
%TO.N,GNDA*%
X154080000Y-102030000D03*
D19*
X151540000Y-96950000D03*
D20*
X143920000Y-102030000D03*
%TD*%
D21*
%TO.N,Net-(Q1-D)*%
%TO.C,Q1*%
X50310000Y-119890000D03*
D22*
%TO.N,RANGE_SELECT*%
X51580000Y-119890000D03*
%TO.N,GNDA*%
X52850000Y-119890000D03*
%TD*%
D23*
%TO.N,N/C*%
%TO.C,J3*%
X149210000Y-31710000D03*
D24*
X145030000Y-31710000D03*
D23*
X149210000Y-40350000D03*
D24*
X145030000Y-40350000D03*
%TD*%
D25*
%TO.N,Net-(U8-RUN)*%
%TO.C,SW3*%
X123080000Y-131780000D03*
X123080000Y-119280000D03*
%TO.N,GND*%
X128080000Y-131780000D03*
X128080000Y-119280000D03*
%TD*%
D26*
%TO.N,ROT_A*%
%TO.C,SW2*%
X82080000Y-130530000D03*
D27*
%TO.N,ROT_B*%
X82080000Y-135530000D03*
%TO.N,GND*%
X82080000Y-133030000D03*
D28*
%TO.N,N/C*%
X89580000Y-127430000D03*
X89580000Y-138630000D03*
D27*
%TO.N,ROT_SW*%
X96580000Y-135530000D03*
%TO.N,GND*%
X96580000Y-130530000D03*
%TD*%
D16*
%TO.N,GND*%
%TO.C,U10*%
X112480000Y-51505000D03*
X112480000Y-52705000D03*
X112480000Y-53905000D03*
X113880000Y-51505000D03*
X113880000Y-52705000D03*
X113880000Y-53905000D03*
%TD*%
D29*
%TO.N,USB_DM*%
X80080000Y-70030000D03*
X80080000Y-57530000D03*
%TO.N,GND*%
X66654049Y-105604049D03*
X97000000Y-38000000D03*
D30*
X96300000Y-98800000D03*
D29*
X68580000Y-102530000D03*
X114500000Y-48500000D03*
D30*
X80800000Y-111100000D03*
D29*
X108000000Y-43500000D03*
X82080000Y-97030000D03*
X64080000Y-102030000D03*
X95500000Y-45000000D03*
X83080000Y-114030000D03*
D30*
X69300000Y-102800000D03*
D29*
X125000000Y-42500000D03*
D30*
X78600000Y-111100000D03*
D29*
X105000000Y-45500000D03*
X100000000Y-27500000D03*
X66604481Y-103554481D03*
X60580000Y-107030000D03*
X116000000Y-49000000D03*
D30*
X107500000Y-86700000D03*
X88900000Y-108200000D03*
D29*
X95580000Y-88030000D03*
X85580000Y-133530000D03*
X49000000Y-95000000D03*
X55580000Y-101030000D03*
X72580000Y-93030000D03*
X108080000Y-84030000D03*
D30*
X74800000Y-106800000D03*
D29*
X96580000Y-84030000D03*
X91500000Y-35000000D03*
X74000000Y-46500000D03*
X113000000Y-66000000D03*
X77280000Y-97230000D03*
X109000000Y-31000000D03*
%TO.N,Net-(D3-K)*%
X96580000Y-65030000D03*
X131080000Y-75530000D03*
%TO.N,/Vref*%
X63080000Y-125030000D03*
X90080000Y-63030000D03*
X91980735Y-62980735D03*
D30*
%TO.N,GNDA*%
X128400000Y-98300000D03*
X77200000Y-118300000D03*
X127500000Y-99200000D03*
X73400000Y-118300000D03*
D29*
X141080000Y-81530000D03*
D30*
X122900000Y-103800000D03*
D29*
X107580000Y-111530000D03*
D30*
X57900000Y-123200000D03*
D29*
X140080000Y-61030000D03*
X66038794Y-104120168D03*
D30*
X59300000Y-123200000D03*
D29*
X166580000Y-97530000D03*
D30*
X104900000Y-107600000D03*
X102400000Y-107600000D03*
D29*
X123080000Y-103030000D03*
X57080000Y-124030000D03*
%TO.N,+5V_RAW*%
X107000000Y-52000000D03*
X110500000Y-98500000D03*
D30*
X112300000Y-50500000D03*
X116400000Y-50100000D03*
X111200000Y-54100000D03*
X117800000Y-50100000D03*
D29*
%TO.N,CURRENT_IN*%
X70080000Y-103030000D03*
X48580000Y-107030000D03*
%TO.N,Net-(Q1-D)*%
X50080000Y-109030000D03*
%TO.N,V_filtered*%
X157580000Y-83030000D03*
X57580000Y-86530000D03*
X155580000Y-81030000D03*
X156080000Y-69530000D03*
%TO.N,+Vout*%
X154080000Y-71530000D03*
D30*
X89700000Y-68200000D03*
D29*
X96000000Y-75500000D03*
%TO.N,Net-(U1A--)*%
X138580000Y-105530000D03*
X142080000Y-72530000D03*
%TO.N,-Vout*%
X146580000Y-78530000D03*
X94500000Y-63000000D03*
X139500000Y-58500000D03*
%TO.N,Net-(U1B--)*%
X165080000Y-85030000D03*
X172080000Y-73530000D03*
X157080000Y-81030000D03*
%TO.N,V_SWEEP*%
X149080000Y-72530000D03*
X167080000Y-69030000D03*
%TO.N,+1.1V*%
X78580000Y-95030000D03*
X75326446Y-95276446D03*
X63580000Y-91030000D03*
X77905735Y-92355735D03*
X77280000Y-92875229D03*
X78080000Y-91530000D03*
%TO.N,Net-(D6-K)*%
X113580000Y-91030000D03*
X120580000Y-67530000D03*
%TO.N,+3V3_DIGITAL*%
X95000000Y-38500000D03*
X74666496Y-98244550D03*
X70580000Y-102030000D03*
X62000000Y-57000000D03*
X95000000Y-43500000D03*
X78500000Y-48000000D03*
X74666496Y-98244550D03*
D30*
X66900000Y-107300000D03*
D29*
X71980000Y-95230000D03*
X92580000Y-101530000D03*
X121000000Y-30500000D03*
X106580000Y-95030000D03*
D30*
X67400000Y-112600000D03*
D29*
X83080000Y-101530000D03*
X77680000Y-102015421D03*
X69500000Y-44500000D03*
X102500000Y-62500000D03*
X79580000Y-95530000D03*
X77480000Y-94930000D03*
X61000000Y-66000000D03*
X81655000Y-97777832D03*
X102000000Y-31000000D03*
X70580000Y-102030000D03*
X88000000Y-51000000D03*
X82500000Y-53500000D03*
%TO.N,SWCLK*%
X77080000Y-103530000D03*
X74580000Y-106030000D03*
%TO.N,SWD*%
X77080000Y-109530000D03*
X78580000Y-104030000D03*
%TO.N,USB_DP*%
X78080000Y-70530000D03*
X77580000Y-59530000D03*
%TO.N,Net-(U8-RUN)*%
X95580000Y-105630000D03*
X88580000Y-105630000D03*
X95080000Y-103030000D03*
D30*
%TO.N,VBUS_SYSTEM*%
X97700000Y-57900000D03*
X97700000Y-59300000D03*
D29*
X145080000Y-70730000D03*
D30*
X96800000Y-48300000D03*
X96600000Y-69200000D03*
D29*
X101080000Y-70530000D03*
D30*
X97800000Y-37000000D03*
D29*
X129580000Y-72030000D03*
X90080000Y-70530000D03*
X92580000Y-70530000D03*
D30*
X97800000Y-35600000D03*
X96600000Y-67300000D03*
X96800000Y-49700000D03*
X122200000Y-63400000D03*
X129900000Y-71300000D03*
D29*
%TO.N,Net-(D2-A)*%
X140080000Y-91030000D03*
X158080000Y-85530000D03*
X98580000Y-69530000D03*
X127080000Y-93030000D03*
%TO.N,/FBP*%
X70080000Y-122530000D03*
X84580000Y-67030000D03*
D30*
X90000000Y-72400000D03*
D29*
%TO.N,TFT_RST*%
X91080000Y-90530000D03*
X83580000Y-98030000D03*
%TO.N,TFT_DC*%
X90580000Y-98530000D03*
X99080000Y-97030000D03*
%TO.N,Net-(J7-Pin_8)*%
X112580000Y-105530000D03*
%TO.N,XIN*%
X76480000Y-102012927D03*
X83080000Y-116530000D03*
D30*
%TO.N,+3V3_ANALOG*%
X87400000Y-60700000D03*
X87400000Y-68700000D03*
D29*
%TO.N,I2C_SCL*%
X68580000Y-98030000D03*
X60080000Y-105530000D03*
%TO.N,RANGE_SELECT*%
X68080000Y-100030000D03*
%TO.N,BUZZER_CTRL*%
X70905735Y-98830000D03*
X56580000Y-112030000D03*
%TO.N,CURRENT_ALERT*%
X73014313Y-100464313D03*
X75030100Y-99617413D03*
X64580000Y-108030000D03*
%TO.N,SWEEP_PWM*%
X69905735Y-99855735D03*
X55080000Y-92530000D03*
%TO.N,ROT_B*%
X76080000Y-133530000D03*
X73580000Y-101030000D03*
%TO.N,POT_SPI_CS*%
X61080000Y-114030000D03*
X66580000Y-109030000D03*
%TO.N,POT_SPI_SCK*%
X69580000Y-108030000D03*
X68580000Y-117530000D03*
X63080000Y-119030000D03*
%TO.N,XOUT*%
X77080000Y-102630000D03*
X89080000Y-110530000D03*
%TO.N,ROT_A*%
X80080000Y-109530000D03*
X79555736Y-99554264D03*
%TO.N,ROT_SW*%
X79380002Y-98530000D03*
X96580000Y-99530000D03*
%TO.N,ALERT_LED*%
X79580000Y-96430000D03*
X89580000Y-95530000D03*
%TO.N,/FBN*%
X95580000Y-66030000D03*
X92080000Y-61530000D03*
D30*
X98400000Y-63000000D03*
D29*
X96580000Y-63030000D03*
X61580000Y-126930000D03*
D30*
%TO.N,Net-(U10-PROG)*%
X107300000Y-50200000D03*
X106700000Y-48300000D03*
%TO.N,A7*%
X120300000Y-36500000D03*
X119400000Y-35600000D03*
%TD*%
%TO.N,USB_DM*%
D31*
X80080000Y-70030000D02*
X80080000Y-57530000D01*
%TO.N,GND*%
X112480000Y-53905000D02*
X112480000Y-65480000D01*
X77140000Y-117130000D02*
X83328529Y-117130000D01*
X90500000Y-104600000D02*
X90500000Y-106600000D01*
X112480000Y-65480000D02*
X113000000Y-66000000D01*
X91500000Y-35000000D02*
X99000000Y-27500000D01*
X76080000Y-44420000D02*
X74000000Y-46500000D01*
X100000000Y-27500000D02*
X105500000Y-27500000D01*
X55580000Y-101030000D02*
X49550000Y-95000000D01*
X105500000Y-27500000D02*
X109000000Y-31000000D01*
X74080000Y-114070000D02*
X77140000Y-117130000D01*
X80800000Y-111100000D02*
X78600000Y-111100000D01*
X90500000Y-106600000D02*
X88900000Y-108200000D01*
X49550000Y-95000000D02*
X49000000Y-95000000D01*
X76080000Y-31980000D02*
X76080000Y-44420000D01*
X99000000Y-27500000D02*
X100000000Y-27500000D01*
X96300000Y-98800000D02*
X90500000Y-104600000D01*
X76080000Y-31980000D02*
X88480000Y-31980000D01*
X83680000Y-116778529D02*
X83680000Y-114630000D01*
X83680000Y-114630000D02*
X83080000Y-114030000D01*
X83328529Y-117130000D02*
X83680000Y-116778529D01*
X88480000Y-31980000D02*
X91500000Y-35000000D01*
%TO.N,GNDA*%
X149580000Y-52530000D02*
X147880000Y-50830000D01*
X140080000Y-61030000D02*
X141080000Y-61030000D01*
X52850000Y-119890000D02*
X52940000Y-119890000D01*
X152880000Y-45830000D02*
X164080000Y-57030000D01*
X148875836Y-45830000D02*
X152880000Y-45830000D01*
X73400000Y-118300000D02*
X77200000Y-118300000D01*
X154080000Y-102030000D02*
X162080000Y-102030000D01*
X147880000Y-46825836D02*
X148875836Y-45830000D01*
X52940000Y-119890000D02*
X57080000Y-124030000D01*
X162080000Y-102030000D02*
X166580000Y-97530000D01*
X149580000Y-52530000D02*
X141080000Y-61030000D01*
X57900000Y-123200000D02*
X59300000Y-123200000D01*
X147880000Y-50830000D02*
X147880000Y-46825836D01*
X102400000Y-107600000D02*
X104900000Y-107600000D01*
X141080000Y-61030000D02*
X141080000Y-81530000D01*
%TO.N,+5V_RAW*%
X116400000Y-50100000D02*
X117800000Y-50100000D01*
%TO.N,Net-(Q1-D)*%
X50310000Y-109260000D02*
X50080000Y-109030000D01*
X50310000Y-119890000D02*
X50310000Y-109260000D01*
%TO.N,+Vout*%
X89700000Y-68200000D02*
X89700000Y-69200000D01*
X89700000Y-69200000D02*
X96000000Y-75500000D01*
%TO.N,Net-(U1A--)*%
X138580000Y-105530000D02*
X138580000Y-85681471D01*
X142080000Y-82181471D02*
X142080000Y-72530000D01*
X138580000Y-85681471D02*
X142080000Y-82181471D01*
%TO.N,-Vout*%
X146580000Y-78530000D02*
X151280000Y-73830000D01*
X151280000Y-49230000D02*
X149580000Y-47530000D01*
X149580000Y-47530000D02*
X149600000Y-47500000D01*
X151280000Y-73830000D02*
X151280000Y-49230000D01*
%TO.N,V_SWEEP*%
X164080000Y-66030000D02*
X167080000Y-69030000D01*
X164080000Y-62110000D02*
X164080000Y-66030000D01*
%TO.N,+3V3_DIGITAL*%
X102000000Y-31000000D02*
X101622182Y-31000000D01*
X95000000Y-44000000D02*
X95000000Y-43500000D01*
X74666496Y-98244550D02*
X73342620Y-98244550D01*
X88000000Y-51000000D02*
X95000000Y-44000000D01*
X73342620Y-98244550D02*
X70580000Y-101007170D01*
X95000000Y-37622182D02*
X95000000Y-38500000D01*
X70580000Y-102030000D02*
X70580000Y-101007170D01*
X101622182Y-31000000D02*
X95000000Y-37622182D01*
%TO.N,VBUS_SYSTEM*%
X101080000Y-70530000D02*
X128080000Y-70530000D01*
X128080000Y-70530000D02*
X129580000Y-72030000D01*
%TO.N,/FBP*%
X84580000Y-86981471D02*
X84580000Y-67030000D01*
X70080000Y-108461456D02*
X75880000Y-102661456D01*
X75880000Y-95681471D02*
X84580000Y-86981471D01*
X70080000Y-122530000D02*
X70080000Y-108461456D01*
X84600000Y-67000000D02*
X90000000Y-72400000D01*
X84580000Y-67030000D02*
X84600000Y-67000000D01*
X75880000Y-102661456D02*
X75880000Y-95681471D01*
%TO.N,Net-(J7-Pin_8)*%
X103080000Y-103770000D02*
X104840000Y-105530000D01*
X104840000Y-105530000D02*
X112580000Y-105530000D01*
%TO.N,XIN*%
X76480000Y-109930000D02*
X83080000Y-116530000D01*
X76480000Y-102012927D02*
X76480000Y-109930000D01*
%TO.N,RANGE_SELECT*%
X64731471Y-100030000D02*
X51580000Y-113181471D01*
X51580000Y-113181471D02*
X51580000Y-119890000D01*
X68080000Y-100030000D02*
X64731471Y-100030000D01*
%TO.N,BUZZER_CTRL*%
X70905735Y-98830000D02*
X70905735Y-99704264D01*
X68679999Y-101930000D02*
X66680000Y-101930000D01*
X70905735Y-99704264D02*
X68679999Y-101930000D01*
X66680000Y-101930000D02*
X56580000Y-112030000D01*
%TO.N,SWEEP_PWM*%
X61980000Y-99430000D02*
X55080000Y-92530000D01*
X69480000Y-99430000D02*
X61980000Y-99430000D01*
X69905735Y-99855735D02*
X69480000Y-99430000D01*
%TO.N,XOUT*%
X77080000Y-102630000D02*
X81180000Y-102630000D01*
X81180000Y-102630000D02*
X89080000Y-110530000D01*
%TO.N,/FBN*%
X96600000Y-63000000D02*
X98400000Y-63000000D01*
X96580000Y-63030000D02*
X96600000Y-63000000D01*
%TD*%
M02*
