%TF.GenerationSoftware,KiCad,Pcbnew,10.0.3*%
%TF.CreationDate,2026-06-18T21:12:08+05:30*%
%TF.ProjectId,analogoscilloscope,616e616c-6f67-46f7-9363-696c6c6f7363,rev?*%
%TF.SameCoordinates,Original*%
%TF.FileFunction,Copper,L1,Top*%
%TF.FilePolarity,Positive*%
%FSLAX46Y46*%
G04 Gerber Fmt 4.6, Leading zero omitted, Abs format (unit mm)*
G04 Created by KiCad (PCBNEW 10.0.3) date 2026-06-18 21:12:08*
%MOMM*%
%LPD*%
G01*
G04 APERTURE LIST*
G04 Aperture macros list*
%AMRoundRect*
0 Rectangle with rounded corners*
0 $1 Rounding radius*
0 $2 $3 $4 $5 $6 $7 $8 $9 X,Y pos of 4 corners*
0 Add a 4 corners polygon primitive as box body*
4,1,4,$2,$3,$4,$5,$6,$7,$8,$9,$2,$3,0*
0 Add four circle primitives for the rounded corners*
1,1,$1+$1,$2,$3*
1,1,$1+$1,$4,$5*
1,1,$1+$1,$6,$7*
1,1,$1+$1,$8,$9*
0 Add four rect primitives between the rounded corners*
20,1,$1+$1,$2,$3,$4,$5,0*
20,1,$1+$1,$4,$5,$6,$7,0*
20,1,$1+$1,$6,$7,$8,$9,0*
20,1,$1+$1,$8,$9,$2,$3,0*%
G04 Aperture macros list end*
%TA.AperFunction,SMDPad,CuDef*%
%ADD10RoundRect,0.250000X-0.350000X-0.450000X0.350000X-0.450000X0.350000X0.450000X-0.350000X0.450000X0*%
%TD*%
%TA.AperFunction,SMDPad,CuDef*%
%ADD11R,1.500000X2.400000*%
%TD*%
%TA.AperFunction,SMDPad,CuDef*%
%ADD12RoundRect,0.250000X0.337500X0.475000X-0.337500X0.475000X-0.337500X-0.475000X0.337500X-0.475000X0*%
%TD*%
%TA.AperFunction,SMDPad,CuDef*%
%ADD13RoundRect,0.218750X-0.218750X-0.381250X0.218750X-0.381250X0.218750X0.381250X-0.218750X0.381250X0*%
%TD*%
%TA.AperFunction,SMDPad,CuDef*%
%ADD14RoundRect,0.250000X0.450000X-0.325000X0.450000X0.325000X-0.450000X0.325000X-0.450000X-0.325000X0*%
%TD*%
%TA.AperFunction,SMDPad,CuDef*%
%ADD15RoundRect,0.250000X-0.262500X-0.450000X0.262500X-0.450000X0.262500X0.450000X-0.262500X0.450000X0*%
%TD*%
%TA.AperFunction,SMDPad,CuDef*%
%ADD16RoundRect,0.250000X-0.337500X-0.475000X0.337500X-0.475000X0.337500X0.475000X-0.337500X0.475000X0*%
%TD*%
%TA.AperFunction,SMDPad,CuDef*%
%ADD17RoundRect,0.250001X-0.872499X-0.944999X0.872499X-0.944999X0.872499X0.944999X-0.872499X0.944999X0*%
%TD*%
%TA.AperFunction,SMDPad,CuDef*%
%ADD18RoundRect,0.150000X-0.825000X-0.150000X0.825000X-0.150000X0.825000X0.150000X-0.825000X0.150000X0*%
%TD*%
%TA.AperFunction,SMDPad,CuDef*%
%ADD19RoundRect,0.250000X-0.375000X-0.625000X0.375000X-0.625000X0.375000X0.625000X-0.375000X0.625000X0*%
%TD*%
%TA.AperFunction,SMDPad,CuDef*%
%ADD20RoundRect,0.150000X-0.587500X-0.150000X0.587500X-0.150000X0.587500X0.150000X-0.587500X0.150000X0*%
%TD*%
%TA.AperFunction,SMDPad,CuDef*%
%ADD21RoundRect,0.250000X-0.325000X-0.450000X0.325000X-0.450000X0.325000X0.450000X-0.325000X0.450000X0*%
%TD*%
%TA.AperFunction,SMDPad,CuDef*%
%ADD22R,2.000000X4.200000*%
%TD*%
%TA.AperFunction,ComponentPad*%
%ADD23R,1.700000X1.700000*%
%TD*%
%TA.AperFunction,ComponentPad*%
%ADD24C,1.700000*%
%TD*%
%TA.AperFunction,SMDPad,CuDef*%
%ADD25RoundRect,0.250000X0.262500X0.450000X-0.262500X0.450000X-0.262500X-0.450000X0.262500X-0.450000X0*%
%TD*%
%TA.AperFunction,ComponentPad*%
%ADD26RoundRect,0.250000X-0.350000X-0.625000X0.350000X-0.625000X0.350000X0.625000X-0.350000X0.625000X0*%
%TD*%
%TA.AperFunction,ComponentPad*%
%ADD27O,1.200000X1.750000*%
%TD*%
%TA.AperFunction,SMDPad,CuDef*%
%ADD28R,1.000000X0.800000*%
%TD*%
%TA.AperFunction,SMDPad,CuDef*%
%ADD29R,0.700000X1.500000*%
%TD*%
%TA.AperFunction,SMDPad,CuDef*%
%ADD30RoundRect,0.225000X-0.225000X-0.375000X0.225000X-0.375000X0.225000X0.375000X-0.225000X0.375000X0*%
%TD*%
%TA.AperFunction,ComponentPad*%
%ADD31RoundRect,0.250001X1.149999X-1.149999X1.149999X1.149999X-1.149999X1.149999X-1.149999X-1.149999X0*%
%TD*%
%TA.AperFunction,ComponentPad*%
%ADD32C,2.800000*%
%TD*%
%TA.AperFunction,SMDPad,CuDef*%
%ADD33RoundRect,0.250000X0.450000X-0.350000X0.450000X0.350000X-0.450000X0.350000X-0.450000X-0.350000X0*%
%TD*%
%TA.AperFunction,SMDPad,CuDef*%
%ADD34RoundRect,0.250000X0.250000X0.475000X-0.250000X0.475000X-0.250000X-0.475000X0.250000X-0.475000X0*%
%TD*%
%TA.AperFunction,SMDPad,CuDef*%
%ADD35RoundRect,0.050000X-0.387500X-0.050000X0.387500X-0.050000X0.387500X0.050000X-0.387500X0.050000X0*%
%TD*%
%TA.AperFunction,SMDPad,CuDef*%
%ADD36RoundRect,0.050000X-0.050000X-0.387500X0.050000X-0.387500X0.050000X0.387500X-0.050000X0.387500X0*%
%TD*%
%TA.AperFunction,HeatsinkPad*%
%ADD37R,3.200000X3.200000*%
%TD*%
%TA.AperFunction,SMDPad,CuDef*%
%ADD38RoundRect,0.162500X-0.650000X-0.162500X0.650000X-0.162500X0.650000X0.162500X-0.650000X0.162500X0*%
%TD*%
%TA.AperFunction,SMDPad,CuDef*%
%ADD39RoundRect,0.062500X0.062500X-0.325000X0.062500X0.325000X-0.062500X0.325000X-0.062500X-0.325000X0*%
%TD*%
%TA.AperFunction,SMDPad,CuDef*%
%ADD40RoundRect,0.062500X0.325000X-0.062500X0.325000X0.062500X-0.325000X0.062500X-0.325000X-0.062500X0*%
%TD*%
%TA.AperFunction,HeatsinkPad*%
%ADD41C,0.500000*%
%TD*%
%TA.AperFunction,HeatsinkPad*%
%ADD42R,2.450000X2.450000*%
%TD*%
%TA.AperFunction,ComponentPad*%
%ADD43RoundRect,0.249999X0.850001X-0.850001X0.850001X0.850001X-0.850001X0.850001X-0.850001X-0.850001X0*%
%TD*%
%TA.AperFunction,ComponentPad*%
%ADD44C,2.200000*%
%TD*%
%TA.AperFunction,ComponentPad*%
%ADD45O,1.600000X2.500000*%
%TD*%
%TA.AperFunction,ComponentPad*%
%ADD46O,3.500000X7.000000*%
%TD*%
%TA.AperFunction,SMDPad,CuDef*%
%ADD47RoundRect,0.225000X0.375000X-0.225000X0.375000X0.225000X-0.375000X0.225000X-0.375000X-0.225000X0*%
%TD*%
%TA.AperFunction,ComponentPad*%
%ADD48R,1.050000X1.500000*%
%TD*%
%TA.AperFunction,ComponentPad*%
%ADD49O,1.050000X1.500000*%
%TD*%
%TA.AperFunction,SMDPad,CuDef*%
%ADD50RoundRect,0.250000X0.450000X-0.262500X0.450000X0.262500X-0.450000X0.262500X-0.450000X-0.262500X0*%
%TD*%
%TA.AperFunction,SMDPad,CuDef*%
%ADD51R,2.400000X1.500000*%
%TD*%
%TA.AperFunction,SMDPad,CuDef*%
%ADD52RoundRect,0.250000X-0.450000X0.262500X-0.450000X-0.262500X0.450000X-0.262500X0.450000X0.262500X0*%
%TD*%
%TA.AperFunction,SMDPad,CuDef*%
%ADD53RoundRect,0.250000X0.325000X0.450000X-0.325000X0.450000X-0.325000X-0.450000X0.325000X-0.450000X0*%
%TD*%
%TA.AperFunction,SMDPad,CuDef*%
%ADD54RoundRect,0.150000X-0.575000X0.150000X-0.575000X-0.150000X0.575000X-0.150000X0.575000X0.150000X0*%
%TD*%
%TA.AperFunction,SMDPad,CuDef*%
%ADD55RoundRect,0.075000X-0.650000X0.075000X-0.650000X-0.075000X0.650000X-0.075000X0.650000X0.075000X0*%
%TD*%
%TA.AperFunction,ComponentPad*%
%ADD56O,2.100000X1.000000*%
%TD*%
%TA.AperFunction,ComponentPad*%
%ADD57O,1.600000X1.000000*%
%TD*%
%TA.AperFunction,SMDPad,CuDef*%
%ADD58RoundRect,0.250000X-0.250000X-0.475000X0.250000X-0.475000X0.250000X0.475000X-0.250000X0.475000X0*%
%TD*%
%TA.AperFunction,SMDPad,CuDef*%
%ADD59RoundRect,0.250000X-0.800000X-0.650000X0.800000X-0.650000X0.800000X0.650000X-0.800000X0.650000X0*%
%TD*%
%TA.AperFunction,ComponentPad*%
%ADD60O,2.500000X3.000000*%
%TD*%
%TA.AperFunction,ComponentPad*%
%ADD61R,2.000000X2.000000*%
%TD*%
%TA.AperFunction,ComponentPad*%
%ADD62C,2.000000*%
%TD*%
%TA.AperFunction,ComponentPad*%
%ADD63R,3.200000X2.000000*%
%TD*%
%TA.AperFunction,SMDPad,CuDef*%
%ADD64RoundRect,0.087500X-0.662500X-0.087500X0.662500X-0.087500X0.662500X0.087500X-0.662500X0.087500X0*%
%TD*%
%TA.AperFunction,SMDPad,CuDef*%
%ADD65RoundRect,0.150000X-0.512500X-0.150000X0.512500X-0.150000X0.512500X0.150000X-0.512500X0.150000X0*%
%TD*%
%TA.AperFunction,HeatsinkPad*%
%ADD66R,2.410000X3.300000*%
%TD*%
%TA.AperFunction,ViaPad*%
%ADD67C,0.600000*%
%TD*%
%TA.AperFunction,ViaPad*%
%ADD68C,0.500000*%
%TD*%
%TA.AperFunction,Conductor*%
%ADD69C,0.200000*%
%TD*%
G04 APERTURE END LIST*
D10*
%TO.P,R15,1*%
%TO.N,USB_DM*%
X82580000Y-77030000D03*
%TO.P,R15,2*%
%TO.N,USB_D_M*%
X84580000Y-77030000D03*
%TD*%
D11*
%TO.P,L2,1,1_1*%
%TO.N,GND*%
X127330000Y-73030000D03*
%TO.P,L2,2,2_2*%
%TO.N,Net-(D3-K)*%
X132830000Y-73030000D03*
%TD*%
D12*
%TO.P,C4,1*%
%TO.N,/Vref*%
X86155000Y-63030000D03*
%TO.P,C4,2*%
%TO.N,GNDA*%
X84080000Y-63030000D03*
%TD*%
D13*
%TO.P,FB1,1*%
%TO.N,Net-(F1-Pad2)*%
X117517500Y-99530000D03*
%TO.P,FB1,2*%
%TO.N,+5V_RAW*%
X119642500Y-99530000D03*
%TD*%
D14*
%TO.P,D7,1,K_1*%
%TO.N,Net-(D7-K)*%
X116580000Y-47055000D03*
%TO.P,D7,2,A_2*%
%TO.N,Net-(D7-A)*%
X116580000Y-45005000D03*
%TD*%
D15*
%TO.P,R2,1*%
%TO.N,CURRENT_IN*%
X48755000Y-104530000D03*
%TO.P,R2,2*%
%TO.N,Net-(Q1-D)*%
X50580000Y-104530000D03*
%TD*%
D16*
%TO.P,C10,1*%
%TO.N,V_filtered*%
X154542500Y-65530000D03*
%TO.P,C10,2*%
%TO.N,GND*%
X156617500Y-65530000D03*
%TD*%
D17*
%TO.P,C2,1*%
%TO.N,+Vout*%
X62522500Y-72030000D03*
%TO.P,C2,2*%
%TO.N,GNDA*%
X67637500Y-72030000D03*
%TD*%
D18*
%TO.P,U1,1,~_1*%
%TO.N,Net-(U1A--)*%
X146605000Y-71625000D03*
%TO.P,U1,2,-_2*%
X146605000Y-72895000D03*
%TO.P,U1,3,+_3*%
%TO.N,/Non-inv Input OpAmp*%
X146605000Y-74165000D03*
%TO.P,U1,4,V-_4*%
%TO.N,-Vout*%
X146605000Y-75435000D03*
%TO.P,U1,5,+_5*%
%TO.N,V_filtered*%
X151555000Y-75435000D03*
%TO.P,U1,6,-_6*%
%TO.N,Net-(U1B--)*%
X151555000Y-74165000D03*
%TO.P,U1,7,~_7*%
%TO.N,V_SWEEP*%
X151555000Y-72895000D03*
%TO.P,U1,8,V+_8*%
%TO.N,+Vout*%
X151555000Y-71625000D03*
%TD*%
D10*
%TO.P,R12,1*%
%TO.N,GND*%
X93580000Y-92030000D03*
%TO.P,R12,2*%
%TO.N,Net-(D5-K)*%
X95580000Y-92030000D03*
%TD*%
D16*
%TO.P,C6,1*%
%TO.N,+1.1V*%
X62042500Y-87530000D03*
%TO.P,C6,2*%
%TO.N,GND*%
X64117500Y-87530000D03*
%TD*%
D19*
%TO.P,F1,1*%
%TO.N,Net-(D6-K)*%
X113680000Y-93530000D03*
%TO.P,F1,2*%
%TO.N,Net-(F1-Pad2)*%
X116480000Y-93530000D03*
%TD*%
D20*
%TO.P,Q2,1,B_1*%
%TO.N,Net-(Q2-B)*%
X49642500Y-90580000D03*
%TO.P,Q2,2,E_2*%
%TO.N,GND*%
X49642500Y-92480000D03*
%TO.P,Q2,3,C_3*%
%TO.N,Net-(BZ1--)*%
X51517500Y-91530000D03*
%TD*%
D21*
%TO.P,D8,1,K_1*%
%TO.N,Net-(D8-K)*%
X122555000Y-51530000D03*
%TO.P,D8,2,A_2*%
%TO.N,Net-(D8-A)*%
X124605000Y-51530000D03*
%TD*%
D22*
%TO.P,BZ1,1,+_1*%
%TO.N,+3V3_DIGITAL*%
X56580000Y-66530000D03*
%TO.P,BZ1,2,-_2*%
%TO.N,Net-(BZ1--)*%
X48580000Y-66530000D03*
%TD*%
D23*
%TO.P,J6,1,Pin_1_1*%
%TO.N,SWCLK*%
X74080000Y-108990000D03*
D24*
%TO.P,J6,2,Pin_2_2*%
%TO.N,SWD*%
X74080000Y-111530000D03*
%TO.P,J6,3,Pin_3_3*%
%TO.N,GND*%
X74080000Y-114070000D03*
%TD*%
D10*
%TO.P,R14,1*%
%TO.N,USB_DP*%
X79580000Y-86030000D03*
%TO.P,R14,2*%
%TO.N,USB_D_P*%
X81580000Y-86030000D03*
%TD*%
D16*
%TO.P,C5,1*%
%TO.N,+3V3_DIGITAL*%
X94737500Y-40115000D03*
%TO.P,C5,2*%
%TO.N,GND*%
X96812500Y-40115000D03*
%TD*%
D10*
%TO.P,R17,1*%
%TO.N,+3V3_DIGITAL*%
X88580000Y-102530000D03*
%TO.P,R17,2*%
%TO.N,Net-(U8-RUN)*%
X90580000Y-102530000D03*
%TD*%
D25*
%TO.P,R20,1*%
%TO.N,Net-(U1A--)*%
X136992500Y-109030000D03*
%TO.P,R20,2*%
%TO.N,/+IN_ADC*%
X135167500Y-109030000D03*
%TD*%
D26*
%TO.P,J5,1,Pin_1_1*%
%TO.N,VBUS_SYSTEM*%
X74080000Y-31980000D03*
D27*
%TO.P,J5,2,Pin_2_2*%
%TO.N,GND*%
X76080000Y-31980000D03*
%TD*%
D15*
%TO.P,R21,1*%
%TO.N,Net-(U1B--)*%
X165167500Y-93030000D03*
%TO.P,R21,2*%
%TO.N,GNDA*%
X166992500Y-93030000D03*
%TD*%
%TO.P,R1,1*%
%TO.N,Net-(SW1-C)*%
X128667500Y-82530000D03*
%TO.P,R1,2*%
%TO.N,/Non-inv Input OpAmp*%
X130492500Y-82530000D03*
%TD*%
D20*
%TO.P,U3,1,IN_1*%
%TO.N,+3V3_DIGITAL*%
X57642500Y-74580000D03*
%TO.P,U3,2,OUT_2*%
%TO.N,/Vref_ADC*%
X57642500Y-76480000D03*
%TO.P,U3,3,GND_3*%
%TO.N,GNDA*%
X59517500Y-75530000D03*
%TD*%
D28*
%TO.P,SW1,*%
%TO.N,*%
X115730000Y-78310000D03*
X115730000Y-76100000D03*
X108430000Y-78310000D03*
X108430000Y-76100000D03*
D29*
%TO.P,SW1,1,A_1*%
%TO.N,Net-(SW1-A)*%
X114330000Y-78960000D03*
%TO.P,SW1,2,B_2*%
%TO.N,Net-(J1-In)*%
X111330000Y-78960000D03*
%TO.P,SW1,3,C_3*%
%TO.N,Net-(SW1-C)*%
X109830000Y-78960000D03*
%TD*%
D30*
%TO.P,D2,1,K_1*%
%TO.N,+Vout*%
X156430000Y-75530000D03*
%TO.P,D2,2,A_2*%
%TO.N,Net-(D2-A)*%
X159730000Y-75530000D03*
%TD*%
D31*
%TO.P,J4,1,Pin_1_1*%
%TO.N,+Vout*%
X149580000Y-57530000D03*
D32*
%TO.P,J4,2,Pin_2_2*%
%TO.N,GNDA*%
X149580000Y-52530000D03*
%TO.P,J4,3,Pin_3_3*%
%TO.N,-Vout*%
X149580000Y-47530000D03*
%TD*%
D16*
%TO.P,C9,1*%
%TO.N,+3V3_DIGITAL*%
X62042500Y-54030000D03*
%TO.P,C9,2*%
%TO.N,GND*%
X64117500Y-54030000D03*
%TD*%
D33*
%TO.P,R7,1*%
%TO.N,+Vout*%
X93080000Y-77030000D03*
%TO.P,R7,2*%
%TO.N,/FBP*%
X93080000Y-75030000D03*
%TD*%
D16*
%TO.P,Digital_Filter1,1*%
%TO.N,+3V3_DIGITAL*%
X109005000Y-67530000D03*
%TO.P,Digital_Filter1,2*%
%TO.N,GND*%
X111080000Y-67530000D03*
%TD*%
D23*
%TO.P,J7,1,Pin_1_1*%
%TO.N,+3V3_DIGITAL*%
X103080000Y-85990000D03*
D24*
%TO.P,J7,2,Pin_2_2*%
%TO.N,GND*%
X103080000Y-88530000D03*
%TO.P,J7,3,Pin_3_3*%
%TO.N,TFT_CS*%
X103080000Y-91070000D03*
%TO.P,J7,4,Pin_4_4*%
%TO.N,TFT_RST*%
X103080000Y-93610000D03*
%TO.P,J7,5,Pin_5_5*%
%TO.N,TFT_DC*%
X103080000Y-96150000D03*
%TO.P,J7,6,Pin_6_6*%
%TO.N,TFT_MOSI*%
X103080000Y-98690000D03*
%TO.P,J7,7,Pin_7_7*%
%TO.N,TFT_SCLK*%
X103080000Y-101230000D03*
%TO.P,J7,8,Pin_8_8*%
%TO.N,Net-(J7-Pin_8)*%
X103080000Y-103770000D03*
%TO.P,J7,9,Pin_9_9*%
%TO.N,TFT_MISO*%
X103080000Y-106310000D03*
%TO.P,J7,10,Pin_10_10*%
%TO.N,unconnected-(J7-Pin_10-Pad10)*%
X103080000Y-108850000D03*
%TO.P,J7,11,Pin_11_11*%
%TO.N,unconnected-(J7-Pin_11-Pad11)*%
X103080000Y-111390000D03*
%TO.P,J7,12,Pin_12_12*%
%TO.N,unconnected-(J7-Pin_12-Pad12)*%
X103080000Y-113930000D03*
%TO.P,J7,13,Pin_13_13*%
%TO.N,unconnected-(J7-Pin_13-Pad13)*%
X103080000Y-116470000D03*
%TO.P,J7,14,Pin_14_14*%
%TO.N,unconnected-(J7-Pin_14-Pad14)*%
X103080000Y-119010000D03*
%TD*%
D16*
%TO.P,C11,1*%
%TO.N,VBUS_SYSTEM*%
X158042500Y-89530000D03*
%TO.P,C11,2*%
%TO.N,GND*%
X160117500Y-89530000D03*
%TD*%
D10*
%TO.P,R9,1*%
%TO.N,+5V_RAW*%
X101080000Y-53530000D03*
%TO.P,R9,2*%
%TO.N,Net-(D7-A)*%
X103080000Y-53530000D03*
%TD*%
D30*
%TO.P,D3,1,K_1*%
%TO.N,Net-(D3-K)*%
X150430000Y-84030000D03*
%TO.P,D3,2,A_2*%
%TO.N,-Vout*%
X153730000Y-84030000D03*
%TD*%
D34*
%TO.P,C1,1*%
%TO.N,Net-(SW1-A)*%
X120530000Y-82530000D03*
%TO.P,C1,2*%
%TO.N,Net-(SW1-C)*%
X118630000Y-82530000D03*
%TD*%
D16*
%TO.P,C7,1*%
%TO.N,XIN*%
X87505000Y-121030000D03*
%TO.P,C7,2*%
%TO.N,GND*%
X89580000Y-121030000D03*
%TD*%
%TO.P,Clean_Analog_Filter1,1*%
%TO.N,+3V3_ANALOG*%
X87042500Y-82530000D03*
%TO.P,Clean_Analog_Filter1,2*%
%TO.N,GND*%
X89117500Y-82530000D03*
%TD*%
D35*
%TO.P,U8,1,IOVDD_1*%
%TO.N,+3V3_DIGITAL*%
X73842500Y-94630000D03*
%TO.P,U8,2,GPIO0_2*%
%TO.N,unconnected-(U8-GPIO0-Pad2)*%
X73842500Y-95030000D03*
%TO.P,U8,3,GPIO1_3*%
%TO.N,unconnected-(U8-GPIO1-Pad3)*%
X73842500Y-95430000D03*
%TO.P,U8,4,GPIO2_4*%
%TO.N,ADC_SCLK*%
X73842500Y-95830000D03*
%TO.P,U8,5,GPIO3_5*%
%TO.N,ADC_MISO*%
X73842500Y-96230000D03*
%TO.P,U8,6,GPIO4_6*%
%TO.N,I2C_SDA*%
X73842500Y-96630000D03*
%TO.P,U8,7,GPIO5_7*%
%TO.N,I2C_SCL*%
X73842500Y-97030000D03*
%TO.P,U8,8,GPIO6_8*%
%TO.N,ADC_CS*%
X73842500Y-97430000D03*
%TO.P,U8,9,GPIO7_9*%
%TO.N,RANGE_SELECT*%
X73842500Y-97830000D03*
%TO.P,U8,10,IOVDD_10*%
%TO.N,+3V3_DIGITAL*%
X73842500Y-98230000D03*
%TO.P,U8,11,GPIO8_11*%
%TO.N,BUZZER_CTRL*%
X73842500Y-98630000D03*
%TO.P,U8,12,GPIO9_12*%
%TO.N,CURRENT_ALERT*%
X73842500Y-99030000D03*
%TO.P,U8,13,GPIO10_13*%
%TO.N,SWEEP_PWM*%
X73842500Y-99430000D03*
%TO.P,U8,14,GPIO11_14*%
%TO.N,ROT_B*%
X73842500Y-99830000D03*
D36*
%TO.P,U8,15,GPIO12_15*%
%TO.N,POT_SPI_CS*%
X74680000Y-100667500D03*
%TO.P,U8,16,GPIO13_16*%
%TO.N,POT_SPI_SCK*%
X75080000Y-100667500D03*
%TO.P,U8,17,GPIO14_17*%
%TO.N,POT_SPI_MOSI*%
X75480000Y-100667500D03*
%TO.P,U8,18,GPIO15_18*%
%TO.N,TFT_MISO*%
X75880000Y-100667500D03*
%TO.P,U8,19,TESTEN_19*%
%TO.N,unconnected-(U8-TESTEN-Pad19)*%
X76280000Y-100667500D03*
%TO.P,U8,20,XIN_20*%
%TO.N,XIN*%
X76680000Y-100667500D03*
%TO.P,U8,21,XOUT_21*%
%TO.N,XOUT*%
X77080000Y-100667500D03*
%TO.P,U8,22,IOVDD_22*%
%TO.N,+3V3_DIGITAL*%
X77480000Y-100667500D03*
%TO.P,U8,23,DVDD_23*%
%TO.N,+1.1V*%
X77880000Y-100667500D03*
%TO.P,U8,24,SWCLK_24*%
%TO.N,SWCLK*%
X78280000Y-100667500D03*
%TO.P,U8,25,SWD_25*%
%TO.N,SWD*%
X78680000Y-100667500D03*
%TO.P,U8,26,RUN_26*%
%TO.N,Net-(U8-RUN)*%
X79080000Y-100667500D03*
%TO.P,U8,27,GPIO16_27*%
%TO.N,TFT_SCLK*%
X79480000Y-100667500D03*
%TO.P,U8,28,GPIO17_28*%
%TO.N,TFT_MOSI*%
X79880000Y-100667500D03*
D35*
%TO.P,U8,29,GPIO18_29*%
%TO.N,TFT_CS*%
X80717500Y-99830000D03*
%TO.P,U8,30,GPIO19_30*%
%TO.N,TFT_DC*%
X80717500Y-99430000D03*
%TO.P,U8,31,GPIO20_31*%
%TO.N,TFT_RST*%
X80717500Y-99030000D03*
%TO.P,U8,32,GPIO21_32*%
%TO.N,ROT_A*%
X80717500Y-98630000D03*
%TO.P,U8,33,IOVDD_33*%
%TO.N,+3V3_DIGITAL*%
X80717500Y-98230000D03*
%TO.P,U8,34,GPIO22_34*%
%TO.N,ROT_SW*%
X80717500Y-97830000D03*
%TO.P,U8,35,GPIO23_35*%
%TO.N,ALERT_LED*%
X80717500Y-97430000D03*
%TO.P,U8,36,GPIO24_36*%
%TO.N,unconnected-(U8-GPIO24-Pad36)*%
X80717500Y-97030000D03*
%TO.P,U8,37,GPIO25_37*%
%TO.N,unconnected-(U8-GPIO25-Pad37)*%
X80717500Y-96630000D03*
%TO.P,U8,38,GPIO26_ADC0_38*%
%TO.N,unconnected-(U8-GPIO26_ADC0-Pad38)*%
X80717500Y-96230000D03*
%TO.P,U8,39,GPIO27_ADC1_39*%
%TO.N,unconnected-(U8-GPIO27_ADC1-Pad39)*%
X80717500Y-95830000D03*
%TO.P,U8,40,GPIO28_ADC2_40*%
%TO.N,unconnected-(U8-GPIO28_ADC2-Pad40)*%
X80717500Y-95430000D03*
%TO.P,U8,41,GPIO29_ADC3_41*%
%TO.N,unconnected-(U8-GPIO29_ADC3-Pad41)*%
X80717500Y-95030000D03*
%TO.P,U8,42,IOVDD_42*%
%TO.N,+3V3_DIGITAL*%
X80717500Y-94630000D03*
D36*
%TO.P,U8,43,ADC_AVDD_43*%
%TO.N,+3V3_ANALOG*%
X79880000Y-93792500D03*
%TO.P,U8,44,VREG_IN_44*%
%TO.N,+3V3_DIGITAL*%
X79480000Y-93792500D03*
%TO.P,U8,45,VREG_VOUT_45*%
%TO.N,+1.1V*%
X79080000Y-93792500D03*
%TO.P,U8,46,USB_DM_46*%
%TO.N,USB_D_M*%
X78680000Y-93792500D03*
%TO.P,U8,47,USB_DP_47*%
%TO.N,USB_D_P*%
X78280000Y-93792500D03*
%TO.P,U8,48,USB_VDD_48*%
%TO.N,+3V3_DIGITAL*%
X77880000Y-93792500D03*
%TO.P,U8,49,IOVDD_49*%
X77480000Y-93792500D03*
%TO.P,U8,50,DVDD_50*%
%TO.N,+1.1V*%
X77080000Y-93792500D03*
%TO.P,U8,51,QSPI_SD3_51*%
%TO.N,QSPI_IO3*%
X76680000Y-93792500D03*
%TO.P,U8,52,QSPI_SCLK_52*%
%TO.N,QSPI_CLK*%
X76280000Y-93792500D03*
%TO.P,U8,53,QSPI_SD0_53*%
%TO.N,QSPI_IO0*%
X75880000Y-93792500D03*
%TO.P,U8,54,QSPI_SD2_54*%
%TO.N,QSPI_IO2*%
X75480000Y-93792500D03*
%TO.P,U8,55,QSPI_SD1_55*%
%TO.N,QSPI_IO1*%
X75080000Y-93792500D03*
%TO.P,U8,56,QSPI_SS_56*%
%TO.N,QSPI_CS*%
X74680000Y-93792500D03*
D37*
%TO.P,U8,57,GND_57*%
%TO.N,GND*%
X77280000Y-97230000D03*
%TD*%
D38*
%TO.P,U9,1,~{CS}_1*%
%TO.N,QSPI_CS*%
X70492500Y-76125000D03*
%TO.P,U9,2,DO/IO_{1}_2*%
%TO.N,QSPI_IO1*%
X70492500Y-77395000D03*
%TO.P,U9,3,~{WP}/IO_{2}_3*%
%TO.N,QSPI_IO2*%
X70492500Y-78665000D03*
%TO.P,U9,4,GND_4*%
%TO.N,GND*%
X70492500Y-79935000D03*
%TO.P,U9,5,DI/IO_{0}_5*%
%TO.N,QSPI_IO0*%
X77667500Y-79935000D03*
%TO.P,U9,6,CLK_6*%
%TO.N,QSPI_CLK*%
X77667500Y-78665000D03*
%TO.P,U9,7,~{HOLD}/~{RESET}/IO_{3}_7*%
%TO.N,QSPI_IO3*%
X77667500Y-77395000D03*
%TO.P,U9,8,VCC_8*%
%TO.N,+3V3_DIGITAL*%
X77667500Y-76125000D03*
%TD*%
D15*
%TO.P,R3,1*%
%TO.N,/Non-inv Input OpAmp*%
X136755000Y-82530000D03*
%TO.P,R3,2*%
%TO.N,GNDA*%
X138580000Y-82530000D03*
%TD*%
D18*
%TO.P,U2,1,Vref_1*%
%TO.N,/Vref_ADC*%
X55605000Y-95125000D03*
%TO.P,U2,2,IN+_2*%
%TO.N,/+IN_ADC*%
X55605000Y-96395000D03*
%TO.P,U2,3,IN-_3*%
%TO.N,GNDA*%
X55605000Y-97665000D03*
%TO.P,U2,4,Vss_4*%
%TO.N,GND*%
X55605000Y-98935000D03*
%TO.P,U2,5,~{CS}/SHDN_5*%
%TO.N,ADC_CS*%
X60555000Y-98935000D03*
%TO.P,U2,6,Dout_6*%
%TO.N,ADC_MISO*%
X60555000Y-97665000D03*
%TO.P,U2,7,CLK_7*%
%TO.N,ADC_SCLK*%
X60555000Y-96395000D03*
%TO.P,U2,8,Vdd_8*%
%TO.N,+3V3_DIGITAL*%
X60555000Y-95125000D03*
%TD*%
D30*
%TO.P,D9,1,K_1*%
%TO.N,+3V3_DIGITAL*%
X111930000Y-86030000D03*
%TO.P,D9,2,A_2*%
%TO.N,/+IN_ADC*%
X115230000Y-86030000D03*
%TD*%
D39*
%TO.P,U4,1,INP_1*%
%TO.N,VBUS_SYSTEM*%
X91330000Y-69197500D03*
%TO.P,U4,2,PGND_2*%
%TO.N,GND*%
X91830000Y-69197500D03*
%TO.P,U4,3,PGND_3*%
X92330000Y-69197500D03*
%TO.P,U4,4,VIN_4*%
%TO.N,VBUS_SYSTEM*%
X92830000Y-69197500D03*
%TO.P,U4,5,INN_5*%
X93330000Y-69197500D03*
%TO.P,U4,6,INN_6*%
X93830000Y-69197500D03*
D40*
%TO.P,U4,7,BSW_7*%
%TO.N,Net-(D2-A)*%
X94567500Y-68460000D03*
%TO.P,U4,8,ENP_8*%
%TO.N,+3V3_DIGITAL*%
X94567500Y-67960000D03*
%TO.P,U4,9,PSP_9*%
%TO.N,GND*%
X94567500Y-67460000D03*
%TO.P,U4,10,ENN_10*%
%TO.N,+3V3_DIGITAL*%
X94567500Y-66960000D03*
%TO.P,U4,11,PSN_11*%
%TO.N,GND*%
X94567500Y-66460000D03*
%TO.P,U4,12,NC_12*%
%TO.N,unconnected-(U4-NC-Pad12)*%
X94567500Y-65960000D03*
D39*
%TO.P,U4,13,OUTN_13*%
%TO.N,Net-(D3-K)*%
X93830000Y-65222500D03*
%TO.P,U4,14,OUTN_14*%
X93330000Y-65222500D03*
%TO.P,U4,15,VNEG_15*%
%TO.N,-Vout*%
X92830000Y-65222500D03*
%TO.P,U4,16,FBN_16*%
%TO.N,/FBN*%
X92330000Y-65222500D03*
%TO.P,U4,17,VREF_17*%
%TO.N,/Vref*%
X91830000Y-65222500D03*
%TO.P,U4,18,CN_18*%
%TO.N,Net-(D3-K)*%
X91330000Y-65222500D03*
D40*
%TO.P,U4,19,AGND_19*%
%TO.N,GNDA*%
X90592500Y-65960000D03*
%TO.P,U4,20,NC_20*%
%TO.N,unconnected-(U4-NC-Pad20)*%
X90592500Y-66460000D03*
%TO.P,U4,21,CP_21*%
%TO.N,GND*%
X90592500Y-66960000D03*
%TO.P,U4,22,FBP_22*%
%TO.N,/FBP*%
X90592500Y-67460000D03*
%TO.P,U4,23,VPOS_23*%
%TO.N,+Vout*%
X90592500Y-67960000D03*
%TO.P,U4,24,INP_24*%
%TO.N,VBUS_SYSTEM*%
X90592500Y-68460000D03*
D41*
%TO.P,U4,25,EP_25*%
%TO.N,GND*%
X91605000Y-68185000D03*
X92580000Y-68185000D03*
X93555000Y-68185000D03*
X91605000Y-67210000D03*
X92580000Y-67210000D03*
D42*
X92580000Y-67210000D03*
D41*
X93555000Y-67210000D03*
X91605000Y-66235000D03*
X92580000Y-66235000D03*
X93555000Y-66235000D03*
%TD*%
D10*
%TO.P,R8,1*%
%TO.N,/FBN*%
X134580000Y-57030000D03*
%TO.P,R8,2*%
%TO.N,-Vout*%
X136580000Y-57030000D03*
%TD*%
%TO.P,R5,1*%
%TO.N,Net-(J3-CC1)*%
X98080000Y-24530000D03*
%TO.P,R5,2*%
%TO.N,GND*%
X100080000Y-24530000D03*
%TD*%
%TO.P,R6,1*%
%TO.N,Net-(J3-CC2)*%
X123580000Y-39030000D03*
%TO.P,R6,2*%
%TO.N,GND*%
X125580000Y-39030000D03*
%TD*%
D43*
%TO.P,J2,1,Pin_1_1*%
%TO.N,V_SWEEP*%
X164080000Y-62110000D03*
D44*
%TO.P,J2,2,Pin_2_2*%
%TO.N,CURRENT_IN*%
X164080000Y-59570000D03*
%TO.P,J2,3,Pin_3_3*%
%TO.N,GNDA*%
X164080000Y-57030000D03*
%TD*%
D10*
%TO.P,R18,1*%
%TO.N,Net-(U10-PROG)*%
X102580000Y-43530000D03*
%TO.P,R18,2*%
%TO.N,GND*%
X104580000Y-43530000D03*
%TD*%
D45*
%TO.P,J1,1,In_1*%
%TO.N,Net-(J1-In)*%
X149000000Y-96950000D03*
D46*
%TO.P,J1,2,Ext_2*%
%TO.N,GNDA*%
X154080000Y-102030000D03*
D45*
X151540000Y-96950000D03*
D46*
X143920000Y-102030000D03*
%TD*%
D10*
%TO.P,R10,1*%
%TO.N,+5V_RAW*%
X130580000Y-43530000D03*
%TO.P,R10,2*%
%TO.N,Net-(D8-A)*%
X132580000Y-43530000D03*
%TD*%
D47*
%TO.P,D1,1,K_1*%
%TO.N,/+IN_ADC*%
X116080000Y-111180000D03*
%TO.P,D1,2,A_2*%
%TO.N,GNDA*%
X116080000Y-107880000D03*
%TD*%
D10*
%TO.P,R19,1*%
%TO.N,+5V_RAW*%
X110580000Y-101530000D03*
%TO.P,R19,2*%
%TO.N,Net-(J7-Pin_8)*%
X112580000Y-101530000D03*
%TD*%
D48*
%TO.P,Q1,1,D_1*%
%TO.N,Net-(Q1-D)*%
X50310000Y-119890000D03*
D49*
%TO.P,Q1,2,G_2*%
%TO.N,RANGE_SELECT*%
X51580000Y-119890000D03*
%TO.P,Q1,3,S_3*%
%TO.N,GNDA*%
X52850000Y-119890000D03*
%TD*%
D50*
%TO.P,R23,1*%
%TO.N,Net-(U1B--)*%
X172580000Y-70942500D03*
%TO.P,R23,2*%
%TO.N,V_SWEEP*%
X172580000Y-69117500D03*
%TD*%
D10*
%TO.P,R22,1*%
%TO.N,SWEEP_PWM*%
X54580000Y-89030000D03*
%TO.P,R22,2*%
%TO.N,V_filtered*%
X56580000Y-89030000D03*
%TD*%
%TO.P,R16,1*%
%TO.N,+3V3_DIGITAL*%
X86080000Y-53530000D03*
%TO.P,R16,2*%
%TO.N,+3V3_ANALOG*%
X88080000Y-53530000D03*
%TD*%
D51*
%TO.P,L1,1,1_1*%
%TO.N,Net-(D2-A)*%
X132580000Y-93780000D03*
%TO.P,L1,2,2_2*%
%TO.N,VBUS_SYSTEM*%
X132580000Y-88280000D03*
%TD*%
D52*
%TO.P,R4,1*%
%TO.N,CURRENT_IN*%
X134167500Y-49117500D03*
%TO.P,R4,2*%
%TO.N,GNDA*%
X134167500Y-50942500D03*
%TD*%
D53*
%TO.P,D4,1,K_1*%
%TO.N,Net-(D4-K)*%
X125105000Y-33530000D03*
%TO.P,D4,2,A_2*%
%TO.N,+3V3_DIGITAL*%
X123055000Y-33530000D03*
%TD*%
D54*
%TO.P,J3,A1,GND_A1*%
%TO.N,GND*%
X150125000Y-32780000D03*
%TO.P,J3,A4,VBUS_A4*%
%TO.N,A4*%
X150125000Y-33580000D03*
D55*
%TO.P,J3,A5,CC1_A5*%
%TO.N,Net-(J3-CC1)*%
X150125000Y-34780000D03*
%TO.P,J3,A6,D+_A6*%
%TO.N,A6*%
X150125000Y-35780000D03*
%TO.P,J3,A7,D-_A7*%
%TO.N,A7*%
X150125000Y-36280000D03*
%TO.P,J3,A8,SBU1_A8*%
%TO.N,unconnected-(J3-SBU1-PadA8)*%
X150125000Y-37280000D03*
D54*
%TO.P,J3,A9,VBUS_A9*%
%TO.N,A4*%
X150125000Y-38480000D03*
%TO.P,J3,A12,GND_A12*%
%TO.N,GND*%
X150125000Y-39280000D03*
%TO.P,J3,B1,GND_B1*%
X150125000Y-39280000D03*
%TO.P,J3,B4,VBUS_B4*%
%TO.N,A4*%
X150125000Y-38480000D03*
D55*
%TO.P,J3,B5,CC2_B5*%
%TO.N,Net-(J3-CC2)*%
X150125000Y-37780000D03*
%TO.P,J3,B6,D+_B6*%
%TO.N,unconnected-(J3-D+-PadB6)*%
X150125000Y-36780000D03*
%TO.P,J3,B7,D-_B7*%
%TO.N,unconnected-(J3-D--PadB7)*%
X150125000Y-35280000D03*
%TO.P,J3,B8,SBU2_B8*%
%TO.N,unconnected-(J3-SBU2-PadB8)*%
X150125000Y-34280000D03*
D54*
%TO.P,J3,B9,VBUS_B9*%
%TO.N,A4*%
X150125000Y-33580000D03*
%TO.P,J3,B12,GND_B12*%
%TO.N,GND*%
X150125000Y-32780000D03*
D56*
%TO.P,J3,SH*%
%TO.N,N/C*%
X149210000Y-31710000D03*
D57*
X145030000Y-31710000D03*
D56*
X149210000Y-40350000D03*
D57*
X145030000Y-40350000D03*
%TD*%
D10*
%TO.P,R11,1*%
%TO.N,GND*%
X147580000Y-25530000D03*
%TO.P,R11,2*%
%TO.N,Net-(D4-K)*%
X149580000Y-25530000D03*
%TD*%
D30*
%TO.P,D6,1,K_1*%
%TO.N,Net-(D6-K)*%
X119930000Y-64030000D03*
%TO.P,D6,2,A_2*%
%TO.N,A4*%
X123230000Y-64030000D03*
%TD*%
D21*
%TO.P,D5,1,K_1*%
%TO.N,Net-(D5-K)*%
X88555000Y-93530000D03*
%TO.P,D5,2,A_2*%
%TO.N,ALERT_LED*%
X90605000Y-93530000D03*
%TD*%
D58*
%TO.P,C12,1*%
%TO.N,+3V3_DIGITAL*%
X100630000Y-76530000D03*
%TO.P,C12,2*%
%TO.N,GND*%
X102530000Y-76530000D03*
%TD*%
D16*
%TO.P,C8,1*%
%TO.N,XOUT*%
X92542500Y-121530000D03*
%TO.P,C8,2*%
%TO.N,GND*%
X94617500Y-121530000D03*
%TD*%
D10*
%TO.P,R13,1*%
%TO.N,BUZZER_CTRL*%
X55080000Y-109530000D03*
%TO.P,R13,2*%
%TO.N,Net-(Q2-B)*%
X57080000Y-109530000D03*
%TD*%
D59*
%TO.P,Y1,1,1_1*%
%TO.N,XIN*%
X86630000Y-116180000D03*
%TO.P,Y1,2,2_2*%
%TO.N,GND*%
X89530000Y-116180000D03*
%TO.P,Y1,3,3_3*%
%TO.N,XOUT*%
X89530000Y-113880000D03*
%TO.P,Y1,4,4_4*%
%TO.N,GND*%
X86630000Y-113880000D03*
%TD*%
D60*
%TO.P,SW3,1,1_1*%
%TO.N,Net-(U8-RUN)*%
X123080000Y-131780000D03*
X123080000Y-119280000D03*
%TO.P,SW3,2,2_2*%
%TO.N,GND*%
X128080000Y-131780000D03*
X128080000Y-119280000D03*
%TD*%
D61*
%TO.P,SW2,A,A_A*%
%TO.N,ROT_A*%
X82080000Y-130530000D03*
D62*
%TO.P,SW2,B,B_B*%
%TO.N,ROT_B*%
X82080000Y-135530000D03*
%TO.P,SW2,C,C_C*%
%TO.N,GND*%
X82080000Y-133030000D03*
D63*
%TO.P,SW2,MP*%
%TO.N,N/C*%
X89580000Y-127430000D03*
X89580000Y-138630000D03*
D62*
%TO.P,SW2,S1,S1_S1*%
%TO.N,ROT_SW*%
X96580000Y-135530000D03*
%TO.P,SW2,S2,S2_S2*%
%TO.N,GND*%
X96580000Y-130530000D03*
%TD*%
D18*
%TO.P,U11,1,~{CS}_1*%
%TO.N,POT_SPI_CS*%
X61080000Y-118180000D03*
%TO.P,U11,2,SCK_2*%
%TO.N,POT_SPI_SCK*%
X61080000Y-119450000D03*
%TO.P,U11,3,SI_3*%
%TO.N,POT_SPI_MOSI*%
X61080000Y-120720000D03*
%TO.P,U11,4,VSS_4*%
%TO.N,GNDA*%
X61080000Y-121990000D03*
%TO.P,U11,5,PB1_5*%
%TO.N,/FBN*%
X61080000Y-123260000D03*
%TO.P,U11,6,PW1_6*%
X61080000Y-124530000D03*
%TO.P,U11,7,PA1_7*%
%TO.N,/Vref*%
X61080000Y-125800000D03*
%TO.P,U11,8,PA0_8*%
%TO.N,/FBP*%
X66030000Y-125800000D03*
%TO.P,U11,9,PW0_9*%
X66030000Y-124530000D03*
%TO.P,U11,10,PB0_10*%
%TO.N,GNDA*%
X66030000Y-123260000D03*
%TO.P,U11,11,~{RS}_11*%
%TO.N,+3V3_DIGITAL*%
X66030000Y-121990000D03*
%TO.P,U11,12,~{SHDN}_12*%
X66030000Y-120720000D03*
%TO.P,U11,13,SO_13*%
%TO.N,unconnected-(U11-SO-Pad13)*%
X66030000Y-119450000D03*
%TO.P,U11,14,VDD_14*%
%TO.N,+3V3_DIGITAL*%
X66030000Y-118180000D03*
%TD*%
D16*
%TO.P,C3,1*%
%TO.N,GND*%
X94737500Y-34095000D03*
%TO.P,C3,2*%
%TO.N,VBUS_SYSTEM*%
X96812500Y-34095000D03*
%TD*%
D64*
%TO.P,U5,1,A1_1*%
%TO.N,GND*%
X63980000Y-103530000D03*
%TO.P,U5,2,A0_2*%
X63980000Y-104030000D03*
%TO.P,U5,3,~{Alert}_3*%
%TO.N,CURRENT_ALERT*%
X63980000Y-104530000D03*
%TO.P,U5,4,SDA_4*%
%TO.N,I2C_SDA*%
X63980000Y-105030000D03*
%TO.P,U5,5,SCL_5*%
%TO.N,I2C_SCL*%
X63980000Y-105530000D03*
%TO.P,U5,6,VS_6*%
%TO.N,+3V3_DIGITAL*%
X68180000Y-105530000D03*
%TO.P,U5,7,GND_7*%
%TO.N,GND*%
X68180000Y-105030000D03*
%TO.P,U5,8,Vbus_8*%
%TO.N,CURRENT_IN*%
X68180000Y-104530000D03*
%TO.P,U5,9,Vin-_9*%
%TO.N,GNDA*%
X68180000Y-104030000D03*
%TO.P,U5,10,Vin+_10*%
%TO.N,CURRENT_IN*%
X68180000Y-103530000D03*
%TD*%
D65*
%TO.P,U7,1,VIN_1*%
%TO.N,VBUS_SYSTEM*%
X72442500Y-47580000D03*
%TO.P,U7,2,GND_2*%
%TO.N,GND*%
X72442500Y-48530000D03*
%TO.P,U7,3,EN_3*%
%TO.N,VBUS_SYSTEM*%
X72442500Y-49480000D03*
%TO.P,U7,4,NC_4*%
%TO.N,unconnected-(U7-NC-Pad4)*%
X74717500Y-49480000D03*
%TO.P,U7,5,VOUT_5*%
%TO.N,+3V3_DIGITAL*%
X74717500Y-47580000D03*
%TD*%
%TO.P,U6,1,I/O1_1*%
%TO.N,A7*%
X73942500Y-55580000D03*
%TO.P,U6,2,GND_2*%
%TO.N,GND*%
X73942500Y-56530000D03*
%TO.P,U6,3,I/O2_3*%
%TO.N,A6*%
X73942500Y-57480000D03*
%TO.P,U6,4,I/O2_4*%
%TO.N,USB_DP*%
X76217500Y-57480000D03*
%TO.P,U6,5,VBUS_5*%
%TO.N,unconnected-(U6-VBUS-Pad5)*%
X76217500Y-56530000D03*
%TO.P,U6,6,I/O1_6*%
%TO.N,USB_DM*%
X76217500Y-55580000D03*
%TD*%
D16*
%TO.P,Regulator_Filter1,1*%
%TO.N,+3V3_DIGITAL*%
X106542500Y-33030000D03*
%TO.P,Regulator_Filter1,2*%
%TO.N,GND*%
X108617500Y-33030000D03*
%TD*%
D18*
%TO.P,U10,1,TEMP_1*%
%TO.N,GND*%
X110705000Y-50800000D03*
%TO.P,U10,2,PROG_2*%
%TO.N,Net-(U10-PROG)*%
X110705000Y-52070000D03*
%TO.P,U10,3,GND_3*%
%TO.N,GND*%
X110705000Y-53340000D03*
%TO.P,U10,4,V_{CC}_4*%
%TO.N,+5V_RAW*%
X110705000Y-54610000D03*
%TO.P,U10,5,BAT_5*%
%TO.N,VBUS_SYSTEM*%
X115655000Y-54610000D03*
%TO.P,U10,6,~{STDBY}_6*%
%TO.N,Net-(D8-K)*%
X115655000Y-53340000D03*
%TO.P,U10,7,~{CHRG}_7*%
%TO.N,Net-(D7-K)*%
X115655000Y-52070000D03*
%TO.P,U10,8,CE_8*%
%TO.N,+5V_RAW*%
X115655000Y-50800000D03*
D41*
%TO.P,U10,9,EPAD_9*%
%TO.N,GND*%
X112480000Y-51505000D03*
X112480000Y-52705000D03*
X112480000Y-53905000D03*
D66*
X113180000Y-52705000D03*
D41*
X113880000Y-51505000D03*
X113880000Y-52705000D03*
X113880000Y-53905000D03*
%TD*%
D67*
%TO.N,USB_DM*%
X80080000Y-70030000D03*
X80080000Y-57530000D03*
%TO.N,GND*%
X66654049Y-105604049D03*
X97000000Y-38000000D03*
D68*
X96300000Y-98800000D03*
D67*
X68580000Y-102530000D03*
X114500000Y-48500000D03*
D68*
X80800000Y-111100000D03*
D67*
X108000000Y-43500000D03*
X82080000Y-97030000D03*
X64080000Y-102030000D03*
X95500000Y-45000000D03*
X83080000Y-114030000D03*
D68*
X69300000Y-102800000D03*
D67*
X125000000Y-42500000D03*
D68*
X78600000Y-111100000D03*
D67*
X105000000Y-45500000D03*
X100000000Y-27500000D03*
X66604481Y-103554481D03*
X60580000Y-107030000D03*
X116000000Y-49000000D03*
D68*
X107500000Y-86700000D03*
X88900000Y-108200000D03*
D67*
X95580000Y-88030000D03*
X85580000Y-133530000D03*
X49000000Y-95000000D03*
X55580000Y-101030000D03*
X72580000Y-93030000D03*
X108080000Y-84030000D03*
D68*
X74800000Y-106800000D03*
D67*
X96580000Y-84030000D03*
X91500000Y-35000000D03*
X74000000Y-46500000D03*
X113000000Y-66000000D03*
X77280000Y-97230000D03*
X109000000Y-31000000D03*
%TO.N,Net-(D3-K)*%
X96580000Y-65030000D03*
X131080000Y-75530000D03*
%TO.N,/Vref*%
X63080000Y-125030000D03*
X90080000Y-63030000D03*
X91980735Y-62980735D03*
D68*
%TO.N,GNDA*%
X128400000Y-98300000D03*
X77200000Y-118300000D03*
X127500000Y-99200000D03*
X73400000Y-118300000D03*
D67*
X141080000Y-81530000D03*
D68*
X122900000Y-103800000D03*
D67*
X107580000Y-111530000D03*
D68*
X57900000Y-123200000D03*
D67*
X140080000Y-61030000D03*
X66038794Y-104120168D03*
D68*
X59300000Y-123200000D03*
D67*
X166580000Y-97530000D03*
D68*
X104900000Y-107600000D03*
X102400000Y-107600000D03*
D67*
X123080000Y-103030000D03*
X57080000Y-124030000D03*
%TO.N,+5V_RAW*%
X107000000Y-52000000D03*
X110500000Y-98500000D03*
D68*
X112300000Y-50500000D03*
X116400000Y-50100000D03*
X111200000Y-54100000D03*
X117800000Y-50100000D03*
D67*
%TO.N,CURRENT_IN*%
X70080000Y-103030000D03*
X48580000Y-107030000D03*
%TO.N,Net-(Q1-D)*%
X50080000Y-109030000D03*
%TO.N,V_filtered*%
X157580000Y-83030000D03*
X57580000Y-86530000D03*
X155580000Y-81030000D03*
X156080000Y-69530000D03*
%TO.N,+Vout*%
X154080000Y-71530000D03*
D68*
X89700000Y-68200000D03*
D67*
X96000000Y-75500000D03*
%TO.N,Net-(U1A--)*%
X138580000Y-105530000D03*
X142080000Y-72530000D03*
%TO.N,-Vout*%
X146580000Y-78530000D03*
X94500000Y-63000000D03*
X139500000Y-58500000D03*
%TO.N,Net-(U1B--)*%
X165080000Y-85030000D03*
X172080000Y-73530000D03*
X157080000Y-81030000D03*
%TO.N,V_SWEEP*%
X149080000Y-72530000D03*
X167080000Y-69030000D03*
%TO.N,+1.1V*%
X78580000Y-95030000D03*
X75326446Y-95276446D03*
X63580000Y-91030000D03*
X77905735Y-92355735D03*
X77280000Y-92875229D03*
X78080000Y-91530000D03*
%TO.N,Net-(D6-K)*%
X113580000Y-91030000D03*
X120580000Y-67530000D03*
%TO.N,+3V3_DIGITAL*%
X95000000Y-38500000D03*
X74666496Y-98244550D03*
X70580000Y-102030000D03*
X62000000Y-57000000D03*
X95000000Y-43500000D03*
X78500000Y-48000000D03*
X74666496Y-98244550D03*
D68*
X66900000Y-107300000D03*
D67*
X71980000Y-95230000D03*
X92580000Y-101530000D03*
X121000000Y-30500000D03*
X106580000Y-95030000D03*
D68*
X67400000Y-112600000D03*
D67*
X83080000Y-101530000D03*
X77680000Y-102015421D03*
X69500000Y-44500000D03*
X102500000Y-62500000D03*
X79580000Y-95530000D03*
X77480000Y-94930000D03*
X61000000Y-66000000D03*
X81655000Y-97777832D03*
X102000000Y-31000000D03*
X70580000Y-102030000D03*
X88000000Y-51000000D03*
X82500000Y-53500000D03*
%TO.N,SWCLK*%
X77080000Y-103530000D03*
X74580000Y-106030000D03*
%TO.N,SWD*%
X77080000Y-109530000D03*
X78580000Y-104030000D03*
%TO.N,USB_DP*%
X78080000Y-70530000D03*
X77580000Y-59530000D03*
%TO.N,Net-(U8-RUN)*%
X95580000Y-105630000D03*
X88580000Y-105630000D03*
X95080000Y-103030000D03*
D68*
%TO.N,VBUS_SYSTEM*%
X97700000Y-57900000D03*
X97700000Y-59300000D03*
D67*
X145080000Y-70730000D03*
D68*
X96800000Y-48300000D03*
X96600000Y-69200000D03*
D67*
X101080000Y-70530000D03*
D68*
X97800000Y-37000000D03*
D67*
X129580000Y-72030000D03*
X90080000Y-70530000D03*
X92580000Y-70530000D03*
D68*
X97800000Y-35600000D03*
X96600000Y-67300000D03*
X96800000Y-49700000D03*
X122200000Y-63400000D03*
X129900000Y-71300000D03*
D67*
%TO.N,Net-(D2-A)*%
X140080000Y-91030000D03*
X158080000Y-85530000D03*
X98580000Y-69530000D03*
X127080000Y-93030000D03*
%TO.N,/FBP*%
X70080000Y-122530000D03*
X84580000Y-67030000D03*
D68*
X90000000Y-72400000D03*
D67*
%TO.N,TFT_RST*%
X91080000Y-90530000D03*
X83580000Y-98030000D03*
%TO.N,TFT_DC*%
X90580000Y-98530000D03*
X99080000Y-97030000D03*
%TO.N,Net-(J7-Pin_8)*%
X112580000Y-105530000D03*
%TO.N,XIN*%
X76480000Y-102012927D03*
X83080000Y-116530000D03*
D68*
%TO.N,+3V3_ANALOG*%
X87400000Y-60700000D03*
X87400000Y-68700000D03*
D67*
%TO.N,I2C_SCL*%
X68580000Y-98030000D03*
X60080000Y-105530000D03*
%TO.N,RANGE_SELECT*%
X68080000Y-100030000D03*
%TO.N,BUZZER_CTRL*%
X70905735Y-98830000D03*
X56580000Y-112030000D03*
%TO.N,CURRENT_ALERT*%
X73014313Y-100464313D03*
X75030100Y-99617413D03*
X64580000Y-108030000D03*
%TO.N,SWEEP_PWM*%
X69905735Y-99855735D03*
X55080000Y-92530000D03*
%TO.N,ROT_B*%
X76080000Y-133530000D03*
X73580000Y-101030000D03*
%TO.N,POT_SPI_CS*%
X61080000Y-114030000D03*
X66580000Y-109030000D03*
%TO.N,POT_SPI_SCK*%
X69580000Y-108030000D03*
X68580000Y-117530000D03*
X63080000Y-119030000D03*
%TO.N,XOUT*%
X77080000Y-102630000D03*
X89080000Y-110530000D03*
%TO.N,ROT_A*%
X80080000Y-109530000D03*
X79555736Y-99554264D03*
%TO.N,ROT_SW*%
X79380002Y-98530000D03*
X96580000Y-99530000D03*
%TO.N,ALERT_LED*%
X79580000Y-96430000D03*
X89580000Y-95530000D03*
%TO.N,/FBN*%
X95580000Y-66030000D03*
X92080000Y-61530000D03*
D68*
X98400000Y-63000000D03*
D67*
X96580000Y-63030000D03*
X61580000Y-126930000D03*
D68*
%TO.N,Net-(U10-PROG)*%
X107300000Y-50200000D03*
X106700000Y-48300000D03*
%TO.N,A7*%
X120300000Y-36500000D03*
X119400000Y-35600000D03*
%TD*%
%TO.N,USB_DM*%
D69*
X78130000Y-55580000D02*
X76217500Y-55580000D01*
X80080000Y-57530000D02*
X78130000Y-55580000D01*
X82580000Y-77030000D02*
X82580000Y-72530000D01*
X82580000Y-72530000D02*
X80080000Y-70030000D01*
%TO.N,USB_D_M*%
X78680000Y-93792500D02*
X78680000Y-93258640D01*
X81080000Y-91530000D02*
X84580000Y-88030000D01*
X80408640Y-91530000D02*
X81080000Y-91530000D01*
X84580000Y-88030000D02*
X84580000Y-77030000D01*
X78680000Y-93258640D02*
X80408640Y-91530000D01*
%TO.N,GND*%
X102530000Y-76530000D02*
X103610000Y-77610000D01*
X103400000Y-95000000D02*
X102100000Y-95000000D01*
X85600000Y-131500000D02*
X85600000Y-133500000D01*
X89530000Y-116180000D02*
X88930000Y-116180000D01*
X113880000Y-51505000D02*
X112527182Y-51505000D01*
X93580000Y-92030000D02*
X93580000Y-91030000D01*
X61828529Y-108278529D02*
X60580000Y-107030000D01*
X165480000Y-63194744D02*
X163144744Y-65530000D01*
X151720000Y-39280000D02*
X152000000Y-39000000D01*
X103080000Y-88530000D02*
X94580000Y-97030000D01*
X113050000Y-49950000D02*
X114500000Y-48500000D01*
X160580000Y-73530000D02*
X160580000Y-89067500D01*
X107000000Y-43500000D02*
X106970000Y-43530000D01*
X95600000Y-41327500D02*
X95600000Y-44900000D01*
X83230000Y-113880000D02*
X86630000Y-113880000D01*
X69000000Y-102500000D02*
X68600000Y-102500000D01*
X104300000Y-93300000D02*
X104300000Y-94100000D01*
X112480000Y-53905000D02*
X111915000Y-53340000D01*
X158080000Y-71030000D02*
X160580000Y-73530000D01*
X83080000Y-114030000D02*
X83800000Y-114800000D01*
X103610000Y-77610000D02*
X107630000Y-77610000D01*
X150125000Y-39280000D02*
X151720000Y-39280000D01*
X72980000Y-50245552D02*
X73405000Y-49820552D01*
X105000000Y-45500000D02*
X104580000Y-45080000D01*
X64117500Y-54030000D02*
X66617500Y-56530000D01*
X64117500Y-87530000D02*
X64117500Y-86310000D01*
X56010000Y-99600000D02*
X55580000Y-100030000D01*
X111750000Y-50727818D02*
X111750000Y-50272182D01*
X69300000Y-102800000D02*
X69000000Y-102500000D01*
X63980000Y-108278529D02*
X61828529Y-108278529D01*
X82400000Y-116200000D02*
X82400000Y-116400000D01*
X160580000Y-89067500D02*
X160117500Y-89530000D01*
X91500000Y-35000000D02*
X92405000Y-34095000D01*
X95080000Y-82530000D02*
X89117500Y-82530000D01*
X83100000Y-114000000D02*
X83080000Y-114030000D01*
X73405000Y-48229999D02*
X73104999Y-48530000D01*
X91830000Y-68410000D02*
X91605000Y-68185000D01*
X99080000Y-23530000D02*
X100080000Y-24530000D01*
X104700000Y-89500000D02*
X104700000Y-92900000D01*
X150125000Y-32780000D02*
X151000000Y-31905000D01*
X130230000Y-70130000D02*
X157180000Y-70130000D01*
X91355000Y-66960000D02*
X91605000Y-67210000D01*
X109000000Y-31000000D02*
X108617500Y-31382500D01*
X82400000Y-116600000D02*
X82400000Y-128900000D01*
X150125000Y-39280000D02*
X165480000Y-54635000D01*
X92405000Y-34095000D02*
X94737500Y-34095000D01*
X49000000Y-95000000D02*
X49000000Y-93122500D01*
X83200000Y-129100000D02*
X85600000Y-131500000D01*
X72980000Y-55920552D02*
X72980000Y-50245552D01*
X64080000Y-102030000D02*
X63980000Y-102130000D01*
X85580000Y-131530000D02*
X84580000Y-130530000D01*
X99465256Y-27500000D02*
X97180000Y-25214744D01*
X123030000Y-136830000D02*
X128080000Y-131780000D01*
X111750000Y-50272182D02*
X112072182Y-49950000D01*
X82300000Y-116500000D02*
X82400000Y-116600000D01*
X80800000Y-111700000D02*
X80800000Y-111100000D01*
X158080000Y-66992500D02*
X156617500Y-65530000D01*
X96812500Y-40115000D02*
X95600000Y-41327500D01*
X100000000Y-27500000D02*
X99465256Y-27500000D01*
X113000000Y-66000000D02*
X111470000Y-67530000D01*
X84580000Y-130530000D02*
X96580000Y-130530000D01*
X83080000Y-114030000D02*
X80800000Y-111700000D01*
X83800000Y-114800000D02*
X82400000Y-116200000D01*
X70492500Y-79935000D02*
X72580000Y-82022500D01*
X108000000Y-43500000D02*
X107000000Y-43500000D01*
X96580000Y-84030000D02*
X95080000Y-82530000D01*
X68600000Y-102500000D02*
X68580000Y-102530000D01*
X107630000Y-77610000D02*
X107630000Y-83580000D01*
X92580000Y-123567500D02*
X94617500Y-121530000D01*
X89530000Y-120980000D02*
X89580000Y-121030000D01*
X106970000Y-43530000D02*
X104580000Y-43530000D01*
X108472943Y-77610000D02*
X107630000Y-77610000D01*
X104700000Y-92900000D02*
X104300000Y-93300000D01*
X107500000Y-86700000D02*
X104700000Y-89500000D01*
X103080000Y-88530000D02*
X96080000Y-88530000D01*
X85600000Y-133500000D02*
X85580000Y-133530000D01*
X72580000Y-82022500D02*
X72580000Y-93030000D01*
X82600000Y-129100000D02*
X83200000Y-129100000D01*
X165480000Y-54635000D02*
X165480000Y-63194744D01*
X66604481Y-103554481D02*
X67628962Y-102530000D01*
X69771471Y-114070000D02*
X63980000Y-108278529D01*
X85580000Y-133530000D02*
X85580000Y-131530000D01*
X102100000Y-95000000D02*
X100900000Y-96200000D01*
X89117500Y-82530000D02*
X89117500Y-72410000D01*
X163144744Y-65530000D02*
X156617500Y-65530000D01*
X89580000Y-121030000D02*
X92117500Y-123567500D01*
X115050000Y-49950000D02*
X116000000Y-49000000D01*
X95600000Y-44900000D02*
X95500000Y-45000000D01*
X91830000Y-69197500D02*
X91830000Y-68410000D01*
X63980000Y-102130000D02*
X63980000Y-104030000D01*
X151000000Y-31905000D02*
X151000000Y-23500000D01*
X74000000Y-46500000D02*
X73405000Y-47095000D01*
X96812500Y-38187500D02*
X97000000Y-38000000D01*
X111470000Y-67530000D02*
X111080000Y-67530000D01*
X94567500Y-67460000D02*
X94180001Y-67460000D01*
X97180000Y-25214744D02*
X97180000Y-23845256D01*
X152000000Y-39000000D02*
X152000000Y-33000000D01*
X127330000Y-73030000D02*
X130230000Y-70130000D01*
X151780000Y-32780000D02*
X150125000Y-32780000D01*
X96080000Y-88530000D02*
X95580000Y-88030000D01*
X73942500Y-56530000D02*
X73589448Y-56530000D01*
X112072182Y-49950000D02*
X115050000Y-49950000D01*
X73405000Y-47095000D02*
X73405000Y-48229999D01*
X66617500Y-56530000D02*
X73942500Y-56530000D01*
X112527182Y-51505000D02*
X111750000Y-50727818D01*
X77900000Y-109300000D02*
X75100000Y-106500000D01*
X111915000Y-53340000D02*
X110705000Y-53340000D01*
X55580000Y-100030000D02*
X55580000Y-101030000D01*
X56010000Y-99340000D02*
X56010000Y-99600000D01*
X73405000Y-49820552D02*
X73405000Y-48830001D01*
X97495256Y-23530000D02*
X99080000Y-23530000D01*
X94580000Y-97030000D02*
X82080000Y-97030000D01*
X100900000Y-96200000D02*
X98900000Y-96200000D01*
X127330000Y-73030000D02*
X113052943Y-73030000D01*
X96580000Y-130530000D02*
X95280000Y-131830000D01*
X67628962Y-102530000D02*
X68580000Y-102530000D01*
X96041522Y-136830000D02*
X123030000Y-136830000D01*
X92117500Y-123567500D02*
X92580000Y-123567500D01*
X94567500Y-66460000D02*
X93780000Y-66460000D01*
X113052943Y-73030000D02*
X108472943Y-77610000D01*
X88900000Y-108200000D02*
X83100000Y-114000000D01*
X96812500Y-40115000D02*
X96812500Y-38187500D01*
X60580000Y-106530000D02*
X60580000Y-107030000D01*
X95280000Y-131830000D02*
X95280000Y-136068478D01*
X90592500Y-66960000D02*
X91355000Y-66960000D01*
X95280000Y-136068478D02*
X96041522Y-136830000D01*
X89117500Y-72410000D02*
X92330000Y-69197500D01*
X49000000Y-93122500D02*
X49642500Y-92480000D01*
X67228098Y-105030000D02*
X66654049Y-105604049D01*
X83080000Y-114030000D02*
X83230000Y-113880000D01*
X151000000Y-23500000D02*
X149610000Y-23500000D01*
X68180000Y-105030000D02*
X67228098Y-105030000D01*
X125000000Y-42500000D02*
X125580000Y-41920000D01*
X93930000Y-67209999D02*
X93930000Y-66710001D01*
X110705000Y-50800000D02*
X111555000Y-49950000D01*
X77900000Y-110400000D02*
X77900000Y-109300000D01*
X75100000Y-106500000D02*
X74800000Y-106800000D01*
X88930000Y-116180000D02*
X86630000Y-113880000D01*
X73589448Y-56530000D02*
X72980000Y-55920552D01*
X74080000Y-114070000D02*
X69771471Y-114070000D01*
X82400000Y-128900000D02*
X82600000Y-129100000D01*
X98900000Y-96200000D02*
X96300000Y-98800000D01*
X93580000Y-91030000D02*
X96080000Y-88530000D01*
X94180001Y-66460000D02*
X94567500Y-66460000D01*
X78600000Y-111100000D02*
X77900000Y-110400000D01*
X64117500Y-86310000D02*
X70492500Y-79935000D01*
X73104999Y-48530000D02*
X72442500Y-48530000D01*
X125580000Y-41920000D02*
X125580000Y-39030000D01*
X107630000Y-83580000D02*
X108080000Y-84030000D01*
X93780000Y-66460000D02*
X93555000Y-66235000D01*
X104580000Y-45080000D02*
X104580000Y-43530000D01*
X94180001Y-67460000D02*
X93930000Y-67209999D01*
X111080000Y-71057057D02*
X113052943Y-73030000D01*
X104300000Y-94100000D02*
X103400000Y-95000000D01*
X82080000Y-133030000D02*
X84580000Y-130530000D01*
X97180000Y-23845256D02*
X97495256Y-23530000D01*
X149610000Y-23500000D02*
X147580000Y-25530000D01*
X82400000Y-116400000D02*
X82300000Y-116500000D01*
X89530000Y-116180000D02*
X89530000Y-120980000D01*
X108617500Y-31382500D02*
X108617500Y-33030000D01*
X55605000Y-98935000D02*
X56010000Y-99340000D01*
X111080000Y-67530000D02*
X111080000Y-71057057D01*
X73405000Y-48830001D02*
X73104999Y-48530000D01*
X157180000Y-70130000D02*
X158080000Y-71030000D01*
X111555000Y-49950000D02*
X113050000Y-49950000D01*
X128080000Y-131780000D02*
X128080000Y-119280000D01*
X93930000Y-66710001D02*
X94180001Y-66460000D01*
X152000000Y-33000000D02*
X151780000Y-32780000D01*
X158080000Y-71030000D02*
X158080000Y-66992500D01*
%TO.N,Net-(D3-K)*%
X93300000Y-65200000D02*
X93330000Y-65221999D01*
X132830000Y-73780000D02*
X131080000Y-75530000D01*
X145085686Y-78685686D02*
X145085686Y-74765000D01*
X94022500Y-65030000D02*
X94022500Y-64477500D01*
X94022500Y-64477500D02*
X96500000Y-62000000D01*
X147620552Y-73565000D02*
X133365000Y-73565000D01*
X147880000Y-74505552D02*
X147880000Y-73824448D01*
X91330000Y-62280000D02*
X91330000Y-65222500D01*
X147620552Y-74765000D02*
X147880000Y-74505552D01*
X132830000Y-73030000D02*
X132830000Y-73780000D01*
X93800000Y-65200000D02*
X93300000Y-65200000D01*
X90580000Y-59030000D02*
X90580000Y-61530000D01*
X150430000Y-84030000D02*
X145085686Y-78685686D01*
X96550000Y-62000000D02*
X94080000Y-59530000D01*
X91080000Y-59530000D02*
X90580000Y-59030000D01*
X147880000Y-73824448D02*
X147620552Y-73565000D01*
X145085686Y-74765000D02*
X147620552Y-74765000D01*
X96500000Y-62000000D02*
X96550000Y-62000000D01*
X90580000Y-61530000D02*
X91330000Y-62280000D01*
X133365000Y-73565000D02*
X132830000Y-73030000D01*
X94080000Y-59530000D02*
X91080000Y-59530000D01*
X93830000Y-65221999D02*
X93800000Y-65200000D01*
X96580000Y-65030000D02*
X94022500Y-65030000D01*
X94022500Y-65030000D02*
X93830000Y-65222500D01*
%TO.N,/Vref*%
X62310000Y-125800000D02*
X63080000Y-125030000D01*
X61080000Y-125800000D02*
X62310000Y-125800000D01*
X86155000Y-63030000D02*
X90080000Y-63030000D01*
X91830000Y-63131470D02*
X91830000Y-65222500D01*
X91980735Y-62980735D02*
X91830000Y-63131470D01*
%TO.N,GNDA*%
X154080000Y-99490000D02*
X151540000Y-96950000D01*
X112500000Y-106200000D02*
X112600000Y-106300000D01*
X143920000Y-102030000D02*
X146460000Y-102030000D01*
X60900000Y-121600000D02*
X63900000Y-121600000D01*
X122900000Y-103800000D02*
X127500000Y-99200000D01*
X129199999Y-97500000D02*
X147400000Y-97500000D01*
X112300000Y-106200000D02*
X112500000Y-106200000D01*
X148500000Y-98600000D02*
X165500000Y-98600000D01*
X65279568Y-106130000D02*
X59831471Y-106130000D01*
X64554448Y-123260000D02*
X62355000Y-121060552D01*
X112600000Y-106300000D02*
X112700000Y-106200000D01*
X140080000Y-82530000D02*
X138580000Y-82530000D01*
X77200000Y-118300000D02*
X79300000Y-116200000D01*
X63900000Y-121600000D02*
X65000000Y-122700000D01*
X65000000Y-122700000D02*
X65300000Y-122700000D01*
X61425552Y-121990000D02*
X61080000Y-121990000D01*
X134167500Y-50942500D02*
X135480000Y-52255000D01*
X119900000Y-106200000D02*
X123080000Y-103030000D01*
X67637500Y-72030000D02*
X64487500Y-75180000D01*
X147400000Y-97500000D02*
X148500000Y-98600000D01*
X166600000Y-97500000D02*
X166580000Y-97530000D01*
X68700000Y-123000000D02*
X73400000Y-118300000D01*
X66198194Y-104279568D02*
X67130000Y-104279568D01*
X56880000Y-103178529D02*
X56880000Y-97965001D01*
X56380000Y-63030000D02*
X84080000Y-63030000D01*
X166992500Y-97117500D02*
X166992500Y-93030000D01*
X66030000Y-123260000D02*
X64554448Y-123260000D01*
X87010000Y-65960000D02*
X90592500Y-65960000D01*
X57100000Y-124000000D02*
X57900000Y-123200000D01*
X112700000Y-106200000D02*
X119900000Y-106200000D01*
X55605000Y-97665000D02*
X56399448Y-97665000D01*
X84080000Y-63030000D02*
X87010000Y-65960000D01*
X59300000Y-123200000D02*
X60900000Y-121600000D01*
X138580000Y-83990000D02*
X151540000Y-96950000D01*
X146460000Y-102030000D02*
X151540000Y-96950000D01*
X65599999Y-123000000D02*
X68700000Y-123000000D01*
X59517500Y-75530000D02*
X64137500Y-75530000D01*
X79300000Y-116200000D02*
X79300000Y-109300000D01*
X56864448Y-75180000D02*
X55280000Y-73595552D01*
X123080000Y-103030000D02*
X122900000Y-103800000D01*
X59831471Y-106130000D02*
X56880000Y-103178529D01*
X135480000Y-57514744D02*
X138995256Y-61030000D01*
X56880000Y-97965001D02*
X56579999Y-97665000D01*
X57080000Y-123104448D02*
X60064448Y-120120000D01*
X109300000Y-103200000D02*
X112300000Y-106200000D01*
X118230000Y-107880000D02*
X123080000Y-103030000D01*
X166580000Y-97530000D02*
X166992500Y-97117500D01*
X68180000Y-104030000D02*
X67379568Y-104030000D01*
X56399448Y-97665000D02*
X59517500Y-94546948D01*
X111230000Y-107880000D02*
X107580000Y-111530000D01*
X135480000Y-52255000D02*
X135480000Y-57514744D01*
X57080000Y-124030000D02*
X57100000Y-124000000D01*
X128400000Y-98300000D02*
X129199999Y-97500000D01*
X138580000Y-82530000D02*
X138580000Y-83990000D01*
X59517500Y-94546948D02*
X59517500Y-75530000D01*
X62355000Y-120379448D02*
X62355000Y-121060552D01*
X116080000Y-107880000D02*
X118230000Y-107880000D01*
X57080000Y-124030000D02*
X57080000Y-123104448D01*
X62355000Y-121060552D02*
X61425552Y-121990000D01*
X67379568Y-104030000D02*
X65279568Y-106130000D01*
X116080000Y-107880000D02*
X111230000Y-107880000D01*
X64137500Y-75530000D02*
X67637500Y-72030000D01*
X104900000Y-107600000D02*
X109300000Y-103200000D01*
X154080000Y-102030000D02*
X154080000Y-99490000D01*
X55280000Y-64130000D02*
X56380000Y-63030000D01*
X62095552Y-120120000D02*
X62355000Y-120379448D01*
X60064448Y-120120000D02*
X62095552Y-120120000D01*
X165500000Y-98600000D02*
X166600000Y-97500000D01*
X101600000Y-106800000D02*
X102400000Y-107600000D01*
X56579999Y-97665000D02*
X55605000Y-97665000D01*
X55280000Y-73595552D02*
X55280000Y-64130000D01*
X67130000Y-104279568D02*
X67379568Y-104030000D01*
X81800000Y-106800000D02*
X101600000Y-106800000D01*
X138995256Y-61030000D02*
X140080000Y-61030000D01*
X79300000Y-109300000D02*
X81800000Y-106800000D01*
X66038794Y-104120168D02*
X66198194Y-104279568D01*
X141080000Y-81530000D02*
X140080000Y-82530000D01*
X65300000Y-122700000D02*
X65599999Y-123000000D01*
X64487500Y-75180000D02*
X56864448Y-75180000D01*
%TO.N,Net-(F1-Pad2)*%
X117517500Y-94567500D02*
X116480000Y-93530000D01*
X117517500Y-99530000D02*
X117517500Y-94567500D01*
%TO.N,+5V_RAW*%
X115700000Y-50800000D02*
X116400000Y-50100000D01*
X101100000Y-53500000D02*
X101080000Y-53530000D01*
X110700000Y-54600000D02*
X110705000Y-54610000D01*
X115700000Y-50800000D02*
X115400000Y-50800000D01*
X104300000Y-54000000D02*
X103700000Y-54600000D01*
X103700000Y-54600000D02*
X102200000Y-54600000D01*
X124400000Y-43500000D02*
X130600000Y-43500000D01*
X102200000Y-54600000D02*
X101100000Y-53500000D01*
X115400000Y-50800000D02*
X115000000Y-50400000D01*
X110615000Y-54700000D02*
X109700000Y-54700000D01*
X111200000Y-54100000D02*
X110700000Y-54600000D01*
X110705000Y-54610000D02*
X110615000Y-54700000D01*
X115655000Y-50800000D02*
X115700000Y-50800000D01*
X112400000Y-50400000D02*
X112300000Y-50500000D01*
X115000000Y-50400000D02*
X112400000Y-50400000D01*
X109700000Y-54700000D02*
X107000000Y-52000000D01*
X110705000Y-54610000D02*
X104910000Y-54610000D01*
X110500000Y-99250000D02*
X111680000Y-100430000D01*
X109800000Y-54000000D02*
X104300000Y-54000000D01*
X130600000Y-43500000D02*
X130580000Y-43530000D01*
X111680000Y-100430000D02*
X118742500Y-100430000D01*
X109900000Y-53900000D02*
X109800000Y-54000000D01*
X110000000Y-53900000D02*
X109900000Y-53900000D01*
X117800000Y-50100000D02*
X124400000Y-43500000D01*
X110580000Y-101530000D02*
X111680000Y-100430000D01*
X110500000Y-98500000D02*
X110500000Y-99250000D01*
X115655000Y-50800000D02*
X115700000Y-50800000D01*
X118742500Y-100430000D02*
X119642500Y-99530000D01*
X110700000Y-54600000D02*
X110000000Y-53900000D01*
X104910000Y-54610000D02*
X104300000Y-54000000D01*
%TO.N,Net-(D7-K)*%
X117100000Y-47600000D02*
X116600000Y-47100000D01*
X115655000Y-52070000D02*
X115700000Y-52100000D01*
X116700000Y-51500000D02*
X117100000Y-51100000D01*
X117100000Y-51100000D02*
X117100000Y-47600000D01*
X115700000Y-52100000D02*
X116300000Y-51500000D01*
X116600000Y-47100000D02*
X116580000Y-47055000D01*
X116300000Y-51500000D02*
X116700000Y-51500000D01*
%TO.N,Net-(D7-A)*%
X103080000Y-53530000D02*
X103100000Y-53500000D01*
X112100000Y-49500000D02*
X116600000Y-45000000D01*
X107100000Y-49500000D02*
X112100000Y-49500000D01*
X103100000Y-53500000D02*
X107100000Y-49500000D01*
X116600000Y-45000000D02*
X116580000Y-45005000D01*
%TO.N,CURRENT_IN*%
X134167500Y-49117500D02*
X137455000Y-45830000D01*
X123678696Y-64930000D02*
X122781304Y-64930000D01*
X122781304Y-64930000D02*
X116481304Y-58630000D01*
X69580000Y-103530000D02*
X70080000Y-103030000D01*
X116481304Y-58630000D02*
X90414314Y-58630000D01*
X68180000Y-104530000D02*
X69080000Y-104530000D01*
X47280000Y-64130000D02*
X47280000Y-103055000D01*
X123980000Y-59305000D02*
X123980000Y-64628696D01*
X69080000Y-103530000D02*
X68180000Y-103530000D01*
X48755000Y-106855000D02*
X48755000Y-104530000D01*
X69580000Y-104030000D02*
X69080000Y-103530000D01*
X68180000Y-103530000D02*
X69580000Y-103530000D01*
X123980000Y-64628696D02*
X123678696Y-64930000D01*
X90414314Y-58630000D02*
X87348628Y-61695686D01*
X47280000Y-103055000D02*
X48755000Y-104530000D01*
X137455000Y-45830000D02*
X150340000Y-45830000D01*
X69080000Y-104530000D02*
X69580000Y-104030000D01*
X48580000Y-107030000D02*
X48755000Y-106855000D01*
X49714314Y-61695686D02*
X47280000Y-64130000D01*
X134167500Y-49117500D02*
X123980000Y-59305000D01*
X87348628Y-61695686D02*
X49714314Y-61695686D01*
X150340000Y-45830000D02*
X164080000Y-59570000D01*
%TO.N,Net-(Q1-D)*%
X50080000Y-109030000D02*
X50580000Y-108530000D01*
X50580000Y-108530000D02*
X50580000Y-104530000D01*
%TO.N,V_filtered*%
X151555000Y-75435000D02*
X151555000Y-79039314D01*
X155580000Y-79460000D02*
X155580000Y-81030000D01*
X151555000Y-75435000D02*
X155580000Y-79460000D01*
X156080000Y-69530000D02*
X154542500Y-67992500D01*
X57580000Y-86530000D02*
X56580000Y-87530000D01*
X151555000Y-79039314D02*
X155545686Y-83030000D01*
X56580000Y-87530000D02*
X56580000Y-89030000D01*
X154542500Y-67992500D02*
X154542500Y-65530000D01*
X155545686Y-83030000D02*
X157580000Y-83030000D01*
%TO.N,+Vout*%
X66592500Y-67960000D02*
X62522500Y-72030000D01*
X89900000Y-68000000D02*
X90600000Y-68000000D01*
X90600000Y-68000000D02*
X90593000Y-67960000D01*
X151555000Y-71625000D02*
X153985000Y-71625000D01*
X151555000Y-71625000D02*
X152525000Y-71625000D01*
X152525000Y-71625000D02*
X156430000Y-75530000D01*
X89700000Y-68200000D02*
X89900000Y-68000000D01*
X90592500Y-67960000D02*
X66592500Y-67960000D01*
X96000000Y-75500000D02*
X94470000Y-77030000D01*
X153985000Y-71625000D02*
X154080000Y-71530000D01*
X94470000Y-77030000D02*
X93080000Y-77030000D01*
%TO.N,Net-(U1A--)*%
X136992500Y-107117500D02*
X138580000Y-105530000D01*
X136992500Y-109030000D02*
X136992500Y-107117500D01*
X142445000Y-72895000D02*
X146605000Y-72895000D01*
X146605000Y-72895000D02*
X146605000Y-71625000D01*
X142080000Y-72530000D02*
X142445000Y-72895000D01*
%TO.N,/Non-inv Input OpAmp*%
X130492500Y-82530000D02*
X136755000Y-82530000D01*
X136755000Y-82530000D02*
X145120000Y-74165000D01*
X145120000Y-74165000D02*
X146605000Y-74165000D01*
%TO.N,-Vout*%
X140080000Y-57030000D02*
X149580000Y-47530000D01*
X139500000Y-58500000D02*
X138030000Y-57030000D01*
X138030000Y-57030000D02*
X136580000Y-57030000D01*
X146605000Y-78505000D02*
X146580000Y-78530000D01*
X92830000Y-64670000D02*
X94500000Y-63000000D01*
X146605000Y-75435000D02*
X153730000Y-82560000D01*
X136580000Y-57030000D02*
X140080000Y-57030000D01*
X92830000Y-65222500D02*
X92830000Y-64670000D01*
X146605000Y-75435000D02*
X146605000Y-78505000D01*
X149600000Y-47500000D02*
X149580000Y-47530000D01*
X153730000Y-82560000D02*
X153730000Y-84030000D01*
%TO.N,Net-(U1B--)*%
X157080000Y-77530000D02*
X157080000Y-81030000D01*
X165167500Y-85117500D02*
X165080000Y-85030000D01*
X172580000Y-73030000D02*
X172580000Y-70942500D01*
X151555000Y-74165000D02*
X153715000Y-74165000D01*
X153715000Y-74165000D02*
X157080000Y-77530000D01*
X172080000Y-73530000D02*
X172580000Y-73030000D01*
X165167500Y-93030000D02*
X165167500Y-85117500D01*
%TO.N,V_SWEEP*%
X167080000Y-69030000D02*
X167167500Y-69117500D01*
X149445000Y-72895000D02*
X149080000Y-72530000D01*
X151555000Y-72895000D02*
X149445000Y-72895000D01*
X167167500Y-69117500D02*
X172580000Y-69117500D01*
%TO.N,Net-(D5-K)*%
X90055000Y-92030000D02*
X91080000Y-92030000D01*
X93080000Y-94030000D02*
X94580000Y-94030000D01*
X94580000Y-94030000D02*
X94580000Y-93030000D01*
X94580000Y-93030000D02*
X95580000Y-92030000D01*
X91080000Y-92030000D02*
X93080000Y-94030000D01*
X88555000Y-93530000D02*
X90055000Y-92030000D01*
%TO.N,+1.1V*%
X79080000Y-94530000D02*
X79080000Y-93792500D01*
X75326446Y-99076446D02*
X75380000Y-99130000D01*
X77080000Y-92530000D02*
X78080000Y-91530000D01*
X75326446Y-95276446D02*
X75326446Y-99076446D01*
X77880000Y-100133640D02*
X76876360Y-99130000D01*
X63580000Y-91030000D02*
X63580000Y-89067500D01*
X78580000Y-95030000D02*
X79080000Y-94530000D01*
X75380000Y-99130000D02*
X76876360Y-99130000D01*
X77080000Y-93181470D02*
X77905735Y-92355735D01*
X77080000Y-93792500D02*
X77080000Y-93181470D01*
X63580000Y-89067500D02*
X62042500Y-87530000D01*
X77880000Y-100667500D02*
X77880000Y-100133640D01*
X77080000Y-93792500D02*
X77080000Y-92530000D01*
%TO.N,Net-(D6-K)*%
X120580000Y-67030000D02*
X119930000Y-66380000D01*
X113680000Y-91130000D02*
X113580000Y-91030000D01*
X113680000Y-93530000D02*
X113680000Y-91130000D01*
X120580000Y-67530000D02*
X120580000Y-67030000D01*
X119930000Y-66380000D02*
X119930000Y-64030000D01*
%TO.N,Net-(Q2-B)*%
X57080000Y-109530000D02*
X50680000Y-103130000D01*
X50680000Y-103130000D02*
X50680000Y-92139448D01*
X50680000Y-92139448D02*
X49642500Y-91101948D01*
X49642500Y-91101948D02*
X49642500Y-90580000D01*
%TO.N,Net-(BZ1--)*%
X51517500Y-69467500D02*
X51517500Y-91530000D01*
X48580000Y-66530000D02*
X51517500Y-69467500D01*
%TO.N,Net-(D8-K)*%
X122600000Y-51500000D02*
X122555000Y-51530000D01*
X121300000Y-52800000D02*
X122600000Y-51500000D01*
X115700000Y-53300000D02*
X116300000Y-52700000D01*
X116600000Y-52800000D02*
X121300000Y-52800000D01*
X115655000Y-53340000D02*
X115700000Y-53300000D01*
X116300000Y-52700000D02*
X116500000Y-52700000D01*
X116500000Y-52700000D02*
X116600000Y-52800000D01*
%TO.N,Net-(D8-A)*%
X132600000Y-43500000D02*
X124600000Y-51500000D01*
X132580000Y-43530000D02*
X132600000Y-43500000D01*
X124600000Y-51500000D02*
X124605000Y-51530000D01*
%TO.N,+3V3_DIGITAL*%
X67300000Y-106400000D02*
X67300000Y-106900000D01*
X67300000Y-116900000D02*
X67280000Y-116930000D01*
X77880000Y-94530000D02*
X77480000Y-94930000D01*
X66030000Y-121990000D02*
X66030000Y-122480000D01*
X77080000Y-95330000D02*
X76380000Y-94630000D01*
X77480000Y-94930000D02*
X77080000Y-95330000D01*
X82500000Y-53500000D02*
X82530000Y-53530000D01*
X100630000Y-76530000D02*
X100630000Y-72480000D01*
X97150000Y-67850000D02*
X102500000Y-62500000D01*
X72077500Y-70535000D02*
X66530256Y-70535000D01*
X103080000Y-85990000D02*
X111890000Y-85990000D01*
X69180000Y-119430000D02*
X69180000Y-117281471D01*
X100630000Y-72480000D02*
X103080000Y-70030000D01*
X69080000Y-105530000D02*
X72580000Y-102030000D01*
X62574744Y-74580000D02*
X57642500Y-74580000D01*
X76380000Y-94630000D02*
X73842500Y-94630000D01*
X68828529Y-116930000D02*
X67280000Y-116930000D01*
X74376360Y-94630000D02*
X73842500Y-94630000D01*
X82530000Y-53530000D02*
X86080000Y-53530000D01*
X62042500Y-54030000D02*
X62042500Y-51957500D01*
X68180000Y-105530000D02*
X69080000Y-105530000D01*
X101010000Y-67960000D02*
X94567500Y-67960000D01*
X80717500Y-98230000D02*
X81251360Y-98230000D01*
X79480000Y-94326360D02*
X79783640Y-94630000D01*
X62042500Y-51957500D02*
X69500000Y-44500000D01*
X77667500Y-76125000D02*
X72077500Y-70535000D01*
X68200000Y-105500000D02*
X67300000Y-106400000D01*
X100630000Y-76530000D02*
X100630000Y-83540000D01*
X66530256Y-70535000D02*
X66215000Y-70850256D01*
X60470000Y-66530000D02*
X61000000Y-66000000D01*
X121000000Y-30500000D02*
X123055000Y-32555000D01*
X56580000Y-66530000D02*
X60470000Y-66530000D01*
X106580000Y-91380000D02*
X106580000Y-95030000D01*
X79783640Y-94630000D02*
X80717500Y-94630000D01*
X111890000Y-85990000D02*
X111930000Y-86030000D01*
X66215000Y-70939744D02*
X62574744Y-74580000D01*
X100630000Y-83540000D02*
X103080000Y-85990000D01*
X67400000Y-112600000D02*
X67300000Y-112700000D01*
X106542500Y-33030000D02*
X104030000Y-33030000D01*
X95890000Y-67850000D02*
X97150000Y-67850000D01*
X71980000Y-95230000D02*
X72580000Y-94630000D01*
X79580000Y-94833640D02*
X79783640Y-94630000D01*
X72580000Y-102030000D02*
X70580000Y-102030000D01*
X57642500Y-74580000D02*
X56580000Y-73517500D01*
X74651946Y-98230000D02*
X74666496Y-98244550D01*
X79480000Y-93792500D02*
X79480000Y-94326360D01*
X88000000Y-51000000D02*
X86080000Y-52920000D01*
X73842500Y-98230000D02*
X74651946Y-98230000D01*
X94567500Y-66960000D02*
X95000000Y-66960000D01*
X66030000Y-122480000D02*
X66080000Y-122530000D01*
X56580000Y-73517500D02*
X56580000Y-66530000D01*
X89580000Y-101530000D02*
X88580000Y-102530000D01*
X83080000Y-101530000D02*
X84080000Y-102530000D01*
X123055000Y-32555000D02*
X123055000Y-33530000D01*
X79580000Y-95530000D02*
X79580000Y-94833640D01*
X77480000Y-100667500D02*
X77480000Y-101815421D01*
X103080000Y-70030000D02*
X101010000Y-67960000D01*
X67280000Y-116930000D02*
X66030000Y-118180000D01*
X66080000Y-122530000D02*
X69180000Y-119430000D01*
X69180000Y-117281471D02*
X68828529Y-116930000D01*
X95000000Y-66960000D02*
X95890000Y-67850000D01*
X66215000Y-70850256D02*
X66215000Y-70939744D01*
X77880000Y-93792500D02*
X77880000Y-94530000D01*
X74717500Y-47580000D02*
X78080000Y-47580000D01*
X67300000Y-112700000D02*
X67300000Y-116900000D01*
X62042500Y-56957500D02*
X62042500Y-54030000D01*
X95000000Y-39852500D02*
X94737500Y-40115000D01*
X66030000Y-121990000D02*
X66030000Y-120720000D01*
X95000000Y-43500000D02*
X94737500Y-43237500D01*
X84080000Y-102530000D02*
X88580000Y-102530000D01*
X60555000Y-95125000D02*
X61050000Y-94630000D01*
X109005000Y-67530000D02*
X105580000Y-67530000D01*
X93080000Y-84530000D02*
X94540000Y-85990000D01*
X81251360Y-98230000D02*
X81655000Y-97826360D01*
X68180000Y-105530000D02*
X68200000Y-105500000D01*
X62000000Y-57000000D02*
X62042500Y-56957500D01*
X72580000Y-94630000D02*
X73842500Y-94630000D01*
X111930000Y-86030000D02*
X106580000Y-91380000D01*
X80717500Y-94630000D02*
X82980000Y-94630000D01*
X81655000Y-97826360D02*
X81655000Y-97777832D01*
X77480000Y-93792500D02*
X77880000Y-93792500D01*
X78080000Y-47580000D02*
X78500000Y-48000000D01*
X67300000Y-106900000D02*
X66900000Y-107300000D01*
X82980000Y-94630000D02*
X93080000Y-84530000D01*
X61050000Y-94630000D02*
X73842500Y-94630000D01*
X92580000Y-101530000D02*
X89580000Y-101530000D01*
X77480000Y-101815421D02*
X77680000Y-102015421D01*
X105580000Y-67530000D02*
X103080000Y-70030000D01*
X86080000Y-52920000D02*
X86080000Y-53530000D01*
X77480000Y-93792500D02*
X77480000Y-94930000D01*
X94737500Y-43237500D02*
X94737500Y-40115000D01*
X95000000Y-38500000D02*
X95000000Y-39852500D01*
X94540000Y-85990000D02*
X103080000Y-85990000D01*
X104030000Y-33030000D02*
X102000000Y-31000000D01*
%TO.N,SWCLK*%
X74080000Y-108990000D02*
X74080000Y-106530000D01*
X74080000Y-106530000D02*
X74580000Y-106030000D01*
X78280000Y-102330000D02*
X78280000Y-100667500D01*
X77080000Y-103530000D02*
X78280000Y-102330000D01*
%TO.N,SWD*%
X74080000Y-111530000D02*
X76080000Y-109530000D01*
X76080000Y-109530000D02*
X77080000Y-109530000D01*
X78580000Y-104030000D02*
X78680000Y-103930000D01*
X78680000Y-103930000D02*
X78680000Y-100667500D01*
%TO.N,USB_DP*%
X77580000Y-58842500D02*
X76217500Y-57480000D01*
X79880000Y-85730000D02*
X79880000Y-72330000D01*
X79880000Y-72330000D02*
X78080000Y-70530000D01*
X79580000Y-86030000D02*
X79880000Y-85730000D01*
X77580000Y-59530000D02*
X77580000Y-58842500D01*
%TO.N,USB_D_P*%
X78280000Y-92830000D02*
X78280000Y-93792500D01*
X81580000Y-86030000D02*
X81580000Y-89530000D01*
X81580000Y-89530000D02*
X78280000Y-92830000D01*
%TO.N,Net-(U8-RUN)*%
X79080000Y-102030000D02*
X82680000Y-105630000D01*
X123080000Y-119280000D02*
X123080000Y-131780000D01*
X82680000Y-105630000D02*
X88580000Y-105630000D01*
X79080000Y-100667500D02*
X79080000Y-102030000D01*
X94580000Y-102530000D02*
X90580000Y-102530000D01*
X88580000Y-105630000D02*
X95580000Y-105630000D01*
X95080000Y-103030000D02*
X94580000Y-102530000D01*
%TO.N,/+IN_ADC*%
X135167500Y-105967500D02*
X129630000Y-100430000D01*
X118780000Y-111180000D02*
X129580000Y-100380000D01*
X129630000Y-132672031D02*
X129630000Y-100430000D01*
X135167500Y-109030000D02*
X135167500Y-105967500D01*
X129580000Y-100380000D02*
X115230000Y-86030000D01*
X116080000Y-111180000D02*
X118780000Y-111180000D01*
X56480000Y-125495685D02*
X68214315Y-137230000D01*
X68214315Y-137230000D02*
X125072031Y-137230000D01*
X54330000Y-101194215D02*
X59805000Y-106669215D01*
X59805000Y-119790552D02*
X56480000Y-123115552D01*
X129630000Y-100430000D02*
X129580000Y-100380000D01*
X55605000Y-96395000D02*
X54630001Y-96395000D01*
X125072031Y-137230000D02*
X129630000Y-132672031D01*
X56480000Y-123115552D02*
X56480000Y-125495685D01*
X59805000Y-106669215D02*
X59805000Y-119790552D01*
X54630001Y-96395000D02*
X54330000Y-96695001D01*
X54330000Y-96695001D02*
X54330000Y-101194215D01*
%TO.N,VBUS_SYSTEM*%
X96800000Y-54600000D02*
X101300000Y-54600000D01*
X147325552Y-70730000D02*
X145080000Y-70730000D01*
X92580000Y-70530000D02*
X92830000Y-70280000D01*
X97800000Y-35600000D02*
X96800000Y-34600000D01*
X115000000Y-55300000D02*
X115700000Y-54600000D01*
X91330000Y-69280000D02*
X90080000Y-70530000D01*
X129680000Y-72130000D02*
X129680000Y-73630000D01*
X148280000Y-76330000D02*
X157480000Y-85530000D01*
X94700000Y-32000000D02*
X77800000Y-32000000D01*
X96800000Y-48300000D02*
X96800000Y-41800000D01*
X122600000Y-63000000D02*
X122200000Y-63400000D01*
X129580000Y-72030000D02*
X129680000Y-72130000D01*
X96800000Y-57000000D02*
X96800000Y-49700000D01*
X96800000Y-34100000D02*
X94700000Y-32000000D01*
X115000000Y-55300000D02*
X122600000Y-62900000D01*
X72200000Y-47800000D02*
X71700000Y-47800000D01*
X91330000Y-69197500D02*
X90592500Y-68460000D01*
X93300000Y-69200000D02*
X96600000Y-69200000D01*
X92830000Y-69197500D02*
X93830000Y-69197500D01*
X75400000Y-30700000D02*
X74100000Y-32000000D01*
X72400000Y-33700000D02*
X72400000Y-47600000D01*
X95162500Y-70530000D02*
X101080000Y-70530000D01*
X145080000Y-70730000D02*
X145080000Y-71274448D01*
X129600000Y-71600000D02*
X129600000Y-72000000D01*
X148280000Y-72954448D02*
X148280000Y-76330000D01*
X92830000Y-70280000D02*
X92830000Y-69197500D01*
X132580000Y-88280000D02*
X129680000Y-85380000D01*
X72400000Y-47600000D02*
X72200000Y-47800000D01*
X72000000Y-49500000D02*
X72400000Y-49500000D01*
X96800000Y-34600000D02*
X96800000Y-34100000D01*
X109700000Y-55300000D02*
X115000000Y-55300000D01*
X96800000Y-54567000D02*
X96800000Y-54600000D01*
X93330000Y-69198000D02*
X93300000Y-69200000D01*
X147880000Y-72035552D02*
X147880000Y-71284448D01*
X76300000Y-30700000D02*
X75400000Y-30700000D01*
X109500000Y-55100000D02*
X109700000Y-55300000D01*
X74100000Y-32000000D02*
X72400000Y-33700000D01*
X147620552Y-72295000D02*
X147880000Y-72035552D01*
X97800000Y-40800000D02*
X97800000Y-37000000D01*
X122600000Y-62900000D02*
X122600000Y-63000000D01*
X129600000Y-72000000D02*
X129580000Y-72030000D01*
X76400000Y-30800000D02*
X76300000Y-30700000D01*
X72400000Y-49500000D02*
X72442000Y-49480000D01*
X96800000Y-34100000D02*
X96812000Y-34095000D01*
X71700000Y-47800000D02*
X71300000Y-48200000D01*
X97700000Y-57900000D02*
X96800000Y-57000000D01*
X71300000Y-48200000D02*
X71300000Y-48800000D01*
X157480000Y-88967500D02*
X158042500Y-89530000D01*
X96800000Y-66599999D02*
X97700000Y-65700000D01*
X96600000Y-67300000D02*
X96800000Y-67099999D01*
X77800000Y-32000000D02*
X76600000Y-30800000D01*
X72400000Y-47600000D02*
X72442000Y-47580000D01*
X91330000Y-69197500D02*
X91330000Y-69280000D01*
X147880000Y-71284448D02*
X147325552Y-70730000D01*
X96800000Y-41800000D02*
X97800000Y-40800000D01*
X93830000Y-69197500D02*
X95162500Y-70530000D01*
X129680000Y-73630000D02*
X131780000Y-71530000D01*
X145080000Y-71274448D02*
X144824448Y-71530000D01*
X71300000Y-48800000D02*
X72000000Y-49500000D01*
X157480000Y-85530000D02*
X157480000Y-88967500D01*
X131780000Y-71530000D02*
X144824448Y-71530000D01*
X101800000Y-55100000D02*
X109500000Y-55100000D01*
X129900000Y-71300000D02*
X129600000Y-71600000D01*
X74100000Y-32000000D02*
X74080000Y-31980000D01*
X96800000Y-67099999D02*
X96800000Y-66599999D01*
X101300000Y-54600000D02*
X101800000Y-55100000D01*
X76600000Y-30800000D02*
X76400000Y-30800000D01*
X115700000Y-54600000D02*
X115655000Y-54610000D01*
X129680000Y-85380000D02*
X129680000Y-73630000D01*
X147620552Y-72295000D02*
X148280000Y-72954448D01*
X97700000Y-65700000D02*
X97700000Y-59300000D01*
%TO.N,Net-(SW1-C)*%
X109780000Y-78910000D02*
X109780000Y-76868629D01*
X110248629Y-76400000D02*
X110911371Y-76400000D01*
X111980000Y-77468629D02*
X111980000Y-78310000D01*
X116200000Y-82530000D02*
X118630000Y-82530000D01*
X111980000Y-78310000D02*
X116200000Y-82530000D01*
X118630000Y-82530000D02*
X119655000Y-83555000D01*
X127642500Y-83555000D02*
X128667500Y-82530000D01*
X109780000Y-76868629D02*
X110248629Y-76400000D01*
X110911371Y-76400000D02*
X111980000Y-77468629D01*
X119655000Y-83555000D02*
X127642500Y-83555000D01*
X109830000Y-78960000D02*
X109780000Y-78910000D01*
%TO.N,/Vref_ADC*%
X55680000Y-95050000D02*
X55680000Y-78442500D01*
X55605000Y-95125000D02*
X55680000Y-95050000D01*
X55680000Y-78442500D02*
X57642500Y-76480000D01*
%TO.N,Net-(SW1-A)*%
X114380000Y-79010000D02*
X117010000Y-79010000D01*
X114330000Y-78960000D02*
X114380000Y-79010000D01*
X117010000Y-79010000D02*
X120530000Y-82530000D01*
%TO.N,Net-(J1-In)*%
X129320000Y-96950000D02*
X149000000Y-96950000D01*
X111330000Y-78960000D02*
X129320000Y-96950000D01*
%TO.N,Net-(D2-A)*%
X94567500Y-68460000D02*
X97510000Y-68460000D01*
X97510000Y-68460000D02*
X98580000Y-69530000D01*
X159730000Y-83880000D02*
X159730000Y-75530000D01*
X127080000Y-93030000D02*
X127830000Y-93780000D01*
X127830000Y-93780000D02*
X132580000Y-93780000D01*
X132580000Y-93780000D02*
X137330000Y-93780000D01*
X137330000Y-93780000D02*
X140080000Y-91030000D01*
X158080000Y-85530000D02*
X159730000Y-83880000D01*
%TO.N,/FBP*%
X90000000Y-72400000D02*
X92600000Y-75000000D01*
X66030000Y-124530000D02*
X68080000Y-124530000D01*
X84580000Y-67030000D02*
X85010000Y-67460000D01*
X93100000Y-75000000D02*
X93080000Y-75030000D01*
X92600000Y-75000000D02*
X93100000Y-75000000D01*
X85010000Y-67460000D02*
X90592500Y-67460000D01*
X66030000Y-125800000D02*
X66030000Y-124530000D01*
X68080000Y-124530000D02*
X70080000Y-122530000D01*
%TO.N,TFT_CS*%
X80717500Y-99830000D02*
X94320000Y-99830000D01*
X94320000Y-99830000D02*
X103080000Y-91070000D01*
%TO.N,TFT_RST*%
X82251360Y-98030000D02*
X83580000Y-98030000D01*
X103556346Y-87380000D02*
X90881471Y-87380000D01*
X104230000Y-88053654D02*
X103556346Y-87380000D01*
X81251360Y-99030000D02*
X82251360Y-98030000D01*
X91080000Y-87578529D02*
X90881471Y-87380000D01*
X103080000Y-93610000D02*
X104230000Y-92460000D01*
X91080000Y-90530000D02*
X91080000Y-87578529D01*
X104230000Y-92460000D02*
X104230000Y-88053654D01*
X80717500Y-99030000D02*
X81251360Y-99030000D01*
%TO.N,TFT_DC*%
X80717500Y-99430000D02*
X83180000Y-99430000D01*
X99080000Y-97030000D02*
X102200000Y-97030000D01*
X102200000Y-97030000D02*
X103080000Y-96150000D01*
X83180000Y-99430000D02*
X84080000Y-98530000D01*
X84080000Y-98530000D02*
X90580000Y-98530000D01*
%TO.N,TFT_MOSI*%
X103080000Y-98690000D02*
X101102500Y-100667500D01*
X101102500Y-100667500D02*
X79880000Y-100667500D01*
%TO.N,TFT_SCLK*%
X83080000Y-105030000D02*
X79480000Y-101430000D01*
X103080000Y-101230000D02*
X99280000Y-105030000D01*
X99280000Y-105030000D02*
X83080000Y-105030000D01*
X79480000Y-101430000D02*
X79480000Y-100667500D01*
%TO.N,Net-(J7-Pin_8)*%
X114080000Y-104030000D02*
X114080000Y-103030000D01*
X112580000Y-105530000D02*
X114080000Y-104030000D01*
X114080000Y-103030000D02*
X112580000Y-101530000D01*
%TO.N,TFT_MISO*%
X77860000Y-106310000D02*
X75880000Y-104330000D01*
X75880000Y-104330000D02*
X75880000Y-100667500D01*
X103080000Y-106310000D02*
X77860000Y-106310000D01*
%TO.N,XIN*%
X83430000Y-116180000D02*
X86630000Y-116180000D01*
X76680000Y-101812927D02*
X76480000Y-102012927D01*
X76680000Y-100667500D02*
X76680000Y-101812927D01*
X86630000Y-116180000D02*
X86630000Y-120155000D01*
X83080000Y-116530000D02*
X83430000Y-116180000D01*
X86630000Y-120155000D02*
X87505000Y-121030000D01*
%TO.N,+3V3_ANALOG*%
X88100000Y-81400000D02*
X88100000Y-69400000D01*
X87042500Y-86630000D02*
X79880000Y-93792500D01*
X88100000Y-60000000D02*
X88100000Y-53500000D01*
X88100000Y-53500000D02*
X88080000Y-53530000D01*
X87400000Y-60700000D02*
X88100000Y-60000000D01*
X87043000Y-82530000D02*
X87000000Y-82500000D01*
X87000000Y-82500000D02*
X88100000Y-81400000D01*
X87042500Y-82530000D02*
X87042500Y-86630000D01*
X88100000Y-69400000D02*
X87400000Y-68700000D01*
%TO.N,ADC_SCLK*%
X60555000Y-96395000D02*
X61120000Y-95830000D01*
X61120000Y-95830000D02*
X73842500Y-95830000D01*
%TO.N,ADC_MISO*%
X60945000Y-97665000D02*
X62380000Y-96230000D01*
X62380000Y-96230000D02*
X73842500Y-96230000D01*
X60555000Y-97665000D02*
X60945000Y-97665000D01*
%TO.N,I2C_SDA*%
X61500552Y-98335000D02*
X59539448Y-98335000D01*
X59280000Y-101130432D02*
X63179568Y-105030000D01*
X59539448Y-98335000D02*
X59280000Y-98594448D01*
X73842500Y-96630000D02*
X63205552Y-96630000D01*
X63179568Y-105030000D02*
X63980000Y-105030000D01*
X59280000Y-98594448D02*
X59280000Y-101130432D01*
X63205552Y-96630000D02*
X61500552Y-98335000D01*
%TO.N,I2C_SCL*%
X73842500Y-97030000D02*
X69580000Y-97030000D01*
X60080000Y-105530000D02*
X63980000Y-105530000D01*
X69580000Y-97030000D02*
X68580000Y-98030000D01*
%TO.N,ADC_CS*%
X69612843Y-97562843D02*
X69612843Y-98402157D01*
X60555000Y-98935000D02*
X69080000Y-98935000D01*
X69745686Y-97430000D02*
X69612843Y-97562843D01*
X73842500Y-97430000D02*
X69745686Y-97430000D01*
X69612843Y-98402157D02*
X69080000Y-98935000D01*
%TO.N,RANGE_SELECT*%
X70080000Y-98030000D02*
X70080000Y-98500685D01*
X73842500Y-97830000D02*
X71280000Y-97830000D01*
X71280000Y-97830000D02*
X71080000Y-98030000D01*
X68550685Y-100030000D02*
X68080000Y-100030000D01*
X71080000Y-98030000D02*
X70080000Y-98030000D01*
X70080000Y-98500685D02*
X68550685Y-100030000D01*
%TO.N,BUZZER_CTRL*%
X71105735Y-98630000D02*
X70905735Y-98830000D01*
X56580000Y-112030000D02*
X55080000Y-110530000D01*
X55080000Y-110530000D02*
X55080000Y-109530000D01*
X73842500Y-98630000D02*
X71105735Y-98630000D01*
%TO.N,CURRENT_ALERT*%
X73842500Y-99030000D02*
X74653009Y-99030000D01*
X72448626Y-101030000D02*
X72145686Y-101030000D01*
X68280432Y-101030000D02*
X64780432Y-104530000D01*
X64780432Y-104530000D02*
X63980000Y-104530000D01*
X72145686Y-101030000D02*
X68280432Y-101030000D01*
X67145686Y-108030000D02*
X72980000Y-102195686D01*
X74653009Y-99030000D02*
X75030100Y-99407091D01*
X75030100Y-99407091D02*
X75030100Y-99617413D01*
X72980000Y-102195686D02*
X72980000Y-101864314D01*
X73014313Y-100464313D02*
X72448626Y-101030000D01*
X72980000Y-101864314D02*
X72145686Y-101030000D01*
X64580000Y-108030000D02*
X67145686Y-108030000D01*
%TO.N,SWEEP_PWM*%
X73842500Y-99430000D02*
X70331470Y-99430000D01*
X54580000Y-92030000D02*
X54580000Y-89030000D01*
X55080000Y-92530000D02*
X54580000Y-92030000D01*
X70331470Y-99430000D02*
X69905735Y-99855735D01*
%TO.N,ROT_B*%
X76080000Y-133530000D02*
X80080000Y-133530000D01*
X73842500Y-99830000D02*
X73842500Y-100767500D01*
X73842500Y-100767500D02*
X73580000Y-101030000D01*
X80080000Y-133530000D02*
X82080000Y-135530000D01*
%TO.N,POT_SPI_CS*%
X66755000Y-109030000D02*
X66580000Y-109030000D01*
X61080000Y-114030000D02*
X61080000Y-118180000D01*
X74680000Y-100667500D02*
X74680000Y-101105000D01*
X74680000Y-101105000D02*
X66755000Y-109030000D01*
%TO.N,POT_SPI_SCK*%
X67330000Y-118780000D02*
X68580000Y-117530000D01*
X63080000Y-119030000D02*
X62660000Y-119450000D01*
X62660000Y-119450000D02*
X61080000Y-119450000D01*
X61080000Y-119450000D02*
X61750000Y-118780000D01*
X75080000Y-102530000D02*
X69580000Y-108030000D01*
X75080000Y-100667500D02*
X75080000Y-102530000D01*
X61750000Y-118780000D02*
X67330000Y-118780000D01*
%TO.N,POT_SPI_MOSI*%
X71580000Y-107530000D02*
X70008640Y-109101360D01*
X60105001Y-120720000D02*
X61080000Y-120720000D01*
X75480000Y-103630000D02*
X72580000Y-106530000D01*
X58580000Y-127030000D02*
X58580000Y-122245001D01*
X67080000Y-127530000D02*
X59080000Y-127530000D01*
X75480000Y-100667500D02*
X75480000Y-103630000D01*
X58580000Y-122245001D02*
X60105001Y-120720000D01*
X75230000Y-119380000D02*
X67080000Y-127530000D01*
X74556346Y-112920000D02*
X75230000Y-113593654D01*
X71580000Y-107030000D02*
X71580000Y-107530000D01*
X59080000Y-127530000D02*
X58580000Y-127030000D01*
X71398640Y-112920000D02*
X74556346Y-112920000D01*
X72580000Y-106530000D02*
X72080000Y-106530000D01*
X72080000Y-106530000D02*
X71580000Y-107030000D01*
X67580000Y-109101360D02*
X71398640Y-112920000D01*
X70008640Y-109101360D02*
X67580000Y-109101360D01*
X75230000Y-113593654D02*
X75230000Y-119380000D01*
%TO.N,XOUT*%
X89530000Y-110980000D02*
X89530000Y-113880000D01*
X89530000Y-113880000D02*
X92542500Y-116892500D01*
X89080000Y-110530000D02*
X89530000Y-110980000D01*
X77080000Y-100667500D02*
X77080000Y-102630000D01*
X92542500Y-116892500D02*
X92542500Y-121530000D01*
%TO.N,ROT_A*%
X82080000Y-130530000D02*
X80080000Y-128530000D01*
X79555736Y-99554264D02*
X79555736Y-99257904D01*
X80183640Y-98630000D02*
X80717500Y-98630000D01*
X80080000Y-128530000D02*
X80080000Y-109530000D01*
X79555736Y-99257904D02*
X80183640Y-98630000D01*
%TO.N,ROT_SW*%
X100613654Y-99530000D02*
X96580000Y-99530000D01*
X80080002Y-97830000D02*
X80717500Y-97830000D01*
X96580000Y-135530000D02*
X104230000Y-127880000D01*
X102603654Y-97540000D02*
X100613654Y-99530000D01*
X104230000Y-127880000D02*
X104230000Y-98213654D01*
X104230000Y-98213654D02*
X103556346Y-97540000D01*
X79380002Y-98530000D02*
X80080002Y-97830000D01*
X103556346Y-97540000D02*
X102603654Y-97540000D01*
%TO.N,ALERT_LED*%
X80183640Y-97430000D02*
X79580000Y-96826360D01*
X80717500Y-97430000D02*
X80183640Y-97430000D01*
X89580000Y-95530000D02*
X90605000Y-94505000D01*
X79580000Y-96826360D02*
X79580000Y-96430000D01*
X90605000Y-94505000D02*
X90605000Y-93530000D01*
%TO.N,QSPI_IO3*%
X76680000Y-82959262D02*
X79480000Y-80159261D01*
X79480000Y-78395001D02*
X78479999Y-77395000D01*
X76680000Y-93792500D02*
X76680000Y-82959262D01*
X79480000Y-80159261D02*
X79480000Y-78395001D01*
X78479999Y-77395000D02*
X77667500Y-77395000D01*
%TO.N,QSPI_CLK*%
X76280000Y-93792500D02*
X76280000Y-82793576D01*
X78715000Y-78665000D02*
X77667500Y-78665000D01*
X79080000Y-79993576D02*
X79080000Y-79030000D01*
X76280000Y-82793576D02*
X79080000Y-79993576D01*
X79080000Y-79030000D02*
X78715000Y-78665000D01*
%TO.N,QSPI_IO0*%
X75880000Y-81722500D02*
X77667500Y-79935000D01*
X75880000Y-93792500D02*
X75880000Y-81722500D01*
%TO.N,QSPI_IO2*%
X71504261Y-75100000D02*
X69480738Y-75100000D01*
X68980000Y-75600739D02*
X68980000Y-77977500D01*
X75480000Y-79075738D02*
X71504261Y-75100000D01*
X69480738Y-75100000D02*
X68980000Y-75600739D01*
X68980000Y-77977500D02*
X69667500Y-78665000D01*
X75480000Y-93792500D02*
X75480000Y-79075738D01*
X69667500Y-78665000D02*
X70492500Y-78665000D01*
%TO.N,QSPI_IO1*%
X75080000Y-93792500D02*
X75080000Y-79241424D01*
X69380000Y-77094999D02*
X69680001Y-77395000D01*
X69680001Y-77395000D02*
X70492500Y-77395000D01*
X69380000Y-75766424D02*
X69380000Y-77094999D01*
X69646424Y-75500000D02*
X69380000Y-75766424D01*
X71338576Y-75500000D02*
X69646424Y-75500000D01*
X75080000Y-79241424D02*
X71338576Y-75500000D01*
%TO.N,QSPI_CS*%
X74680000Y-93792500D02*
X74680000Y-80111424D01*
X74680000Y-80111424D02*
X70693576Y-76125000D01*
X70693576Y-76125000D02*
X70492500Y-76125000D01*
%TO.N,/FBN*%
X97180000Y-65278529D02*
X96428529Y-66030000D01*
X120300000Y-68200000D02*
X120500000Y-68200000D01*
X134600000Y-57000000D02*
X134580000Y-57030000D01*
X123400000Y-68200000D02*
X134600000Y-57000000D01*
X59805000Y-124535000D02*
X59805000Y-126355000D01*
X120600000Y-68300000D02*
X120700000Y-68200000D01*
X96580000Y-63030000D02*
X97180000Y-63630000D01*
X98400000Y-63000000D02*
X102300000Y-59100000D01*
X102300000Y-59100000D02*
X111200000Y-59100000D01*
X96428529Y-66030000D02*
X95580000Y-66030000D01*
X93180000Y-62630000D02*
X92080000Y-61530000D01*
X97180000Y-63630000D02*
X97180000Y-65278529D01*
X111200000Y-59100000D02*
X120300000Y-68200000D01*
X59805000Y-126355000D02*
X60380000Y-126930000D01*
X61080000Y-124530000D02*
X61080000Y-123260000D01*
X93180000Y-62630000D02*
X92330000Y-63480000D01*
X92330000Y-63480000D02*
X92330000Y-65222500D01*
X120700000Y-68200000D02*
X123400000Y-68200000D01*
X61080000Y-123260000D02*
X59805000Y-124535000D01*
X60380000Y-126930000D02*
X61580000Y-126930000D01*
X120500000Y-68200000D02*
X120600000Y-68300000D01*
%TO.N,Net-(J3-CC1)*%
X108400000Y-34800000D02*
X107500000Y-33900000D01*
X99200000Y-25600000D02*
X98100000Y-24500000D01*
X107500000Y-32299999D02*
X100700000Y-25500000D01*
X98100000Y-24500000D02*
X98080000Y-24530000D01*
X107500000Y-33900000D02*
X107500000Y-32299999D01*
X150100000Y-34800000D02*
X108400000Y-34800000D01*
X100700000Y-25500000D02*
X100600000Y-25600000D01*
X100600000Y-25600000D02*
X99200000Y-25600000D01*
X150125000Y-34780000D02*
X150100000Y-34800000D01*
%TO.N,Net-(J3-CC2)*%
X150125000Y-37780000D02*
X124830000Y-37780000D01*
X124830000Y-37780000D02*
X123580000Y-39030000D01*
%TO.N,Net-(U10-PROG)*%
X110705000Y-52070000D02*
X110700000Y-52100000D01*
X110700000Y-52100000D02*
X110100000Y-51500000D01*
X102600000Y-43500000D02*
X102580000Y-43530000D01*
X108400000Y-50200000D02*
X107300000Y-50200000D01*
X110100000Y-51500000D02*
X109700000Y-51500000D01*
X106700000Y-48300000D02*
X102600000Y-44200000D01*
X109700000Y-51500000D02*
X108400000Y-50200000D01*
X102600000Y-44200000D02*
X102600000Y-43500000D01*
%TO.N,Net-(D4-K)*%
X125100000Y-33500000D02*
X125105000Y-33530000D01*
X149580000Y-25530000D02*
X149600000Y-25500000D01*
X141600000Y-33500000D02*
X125100000Y-33500000D01*
X149600000Y-25500000D02*
X141600000Y-33500000D01*
%TO.N,A4*%
X151200000Y-34000000D02*
X150800000Y-33600000D01*
X149890000Y-38245000D02*
X150125000Y-38480000D01*
X123230000Y-64030000D02*
X123230000Y-58557756D01*
X151200000Y-38100000D02*
X151200000Y-34000000D01*
X123230000Y-58557756D02*
X143542756Y-38245000D01*
X150800000Y-38500000D02*
X151200000Y-38100000D01*
X150125000Y-38480000D02*
X150100000Y-38500000D01*
X143542756Y-38245000D02*
X149890000Y-38245000D01*
X150100000Y-33600000D02*
X150125000Y-33580000D01*
X150100000Y-38500000D02*
X150800000Y-38500000D01*
X150800000Y-33600000D02*
X150100000Y-33600000D01*
%TO.N,A6*%
X74295552Y-57480000D02*
X75255000Y-56520552D01*
X81464448Y-49030000D02*
X106881304Y-49030000D01*
X75255000Y-55239448D02*
X81464448Y-49030000D01*
X120131304Y-35780000D02*
X150125000Y-35780000D01*
X75255000Y-56520552D02*
X75255000Y-55239448D01*
X106881304Y-49030000D02*
X120131304Y-35780000D01*
X73942500Y-57480000D02*
X74295552Y-57480000D01*
%TO.N,A7*%
X93200000Y-36300000D02*
X118700000Y-36300000D01*
X150100000Y-36300000D02*
X150125000Y-36280000D01*
X120300000Y-36500000D02*
X120500000Y-36300000D01*
X73942000Y-55580000D02*
X73900000Y-55600000D01*
X120500000Y-36300000D02*
X150100000Y-36300000D01*
X118700000Y-36300000D02*
X119400000Y-35600000D01*
X73900000Y-55600000D02*
X93200000Y-36300000D01*
%TD*%
M02*
