M48
; DRILL file KiCad 10.0.3 date 2026-06-18T21:12:30
; FORMAT={-:-/ absolute / metric / decimal}
; #@! TF.CreationDate,2026-06-18T21:12:30+05:30
; #@! TF.GenerationSoftware,Kicad,Pcbnew,10.0.3
; #@! TF.FileFunction,Plated,1,4,PTH
FMAT,2
METRIC
; #@! TA.AperFunction,Plated,PTH,ViaDrill
T1C0.300
; #@! TA.AperFunction,Plated,PTH,ComponentDrill
T2C0.300
; #@! TA.AperFunction,Plated,PTH,ComponentDrill
T3C0.600
; #@! TA.AperFunction,Plated,PTH,ComponentDrill
T4C0.750
; #@! TA.AperFunction,Plated,PTH,ComponentDrill
T5C0.890
; #@! TA.AperFunction,Plated,PTH,ComponentDrill
T6C1.000
; #@! TA.AperFunction,Plated,PTH,ComponentDrill
T7C1.100
; #@! TA.AperFunction,Plated,PTH,ComponentDrill
T8C1.200
; #@! TA.AperFunction,Plated,PTH,ComponentDrill
T9C1.300
; #@! TA.AperFunction,Plated,PTH,ComponentDrill
T10C1.500
; #@! TA.AperFunction,Plated,PTH,ComponentDrill
T11C2.010
%
G90
G05
T1
X48.58Y-107.03
X49.0Y-95.0
X50.08Y-109.03
X55.08Y-92.53
X55.58Y-101.03
X56.58Y-112.03
X57.08Y-124.03
X57.58Y-86.53
X57.9Y-123.2
X59.3Y-123.2
X60.08Y-105.53
X60.58Y-107.03
X61.0Y-66.0
X61.08Y-114.03
X61.58Y-126.93
X62.0Y-57.0
X63.08Y-119.03
X63.08Y-125.03
X63.58Y-91.03
X64.08Y-102.03
X64.58Y-108.03
X66.039Y-104.12
X66.58Y-109.03
X66.604Y-103.554
X66.654Y-105.604
X66.9Y-107.3
X67.4Y-112.6
X68.08Y-100.03
X68.58Y-98.03
X68.58Y-102.53
X68.58Y-117.53
X69.3Y-102.8
X69.5Y-44.5
X69.58Y-108.03
X69.906Y-99.856
X70.08Y-103.03
X70.08Y-122.53
X70.58Y-102.03
X70.58Y-102.03
X70.906Y-98.83
X71.98Y-95.23
X72.58Y-93.03
X73.014Y-100.464
X73.4Y-118.3
X73.58Y-101.03
X74.0Y-46.5
X74.58Y-106.03
X74.666Y-98.245
X74.666Y-98.245
X74.8Y-106.8
X75.03Y-99.617
X75.326Y-95.276
X76.08Y-133.53
X76.48Y-102.013
X77.08Y-102.63
X77.08Y-103.53
X77.08Y-109.53
X77.2Y-118.3
X77.28Y-92.875
X77.28Y-97.23
X77.48Y-94.93
X77.58Y-59.53
X77.68Y-102.015
X77.906Y-92.356
X78.08Y-70.53
X78.08Y-91.53
X78.5Y-48.0
X78.58Y-95.03
X78.58Y-104.03
X78.6Y-111.1
X79.38Y-98.53
X79.556Y-99.554
X79.58Y-95.53
X79.58Y-96.43
X80.08Y-57.53
X80.08Y-70.03
X80.08Y-109.53
X80.8Y-111.1
X81.655Y-97.778
X82.08Y-97.03
X82.5Y-53.5
X83.08Y-101.53
X83.08Y-114.03
X83.08Y-116.53
X83.58Y-98.03
X84.58Y-67.03
X85.58Y-133.53
X87.4Y-60.7
X87.4Y-68.7
X88.0Y-51.0
X88.58Y-105.63
X88.9Y-108.2
X89.08Y-110.53
X89.58Y-95.53
X89.7Y-68.2
X90.0Y-72.4
X90.08Y-63.03
X90.08Y-70.53
X90.58Y-98.53
X91.08Y-90.53
X91.5Y-35.0
X91.981Y-62.981
X92.08Y-61.53
X92.58Y-70.53
X92.58Y-101.53
X94.5Y-63.0
X95.0Y-38.5
X95.0Y-43.5
X95.08Y-103.03
X95.5Y-45.0
X95.58Y-66.03
X95.58Y-88.03
X95.58Y-105.63
X96.0Y-75.5
X96.3Y-98.8
X96.58Y-63.03
X96.58Y-65.03
X96.58Y-84.03
X96.58Y-99.53
X96.6Y-67.3
X96.6Y-69.2
X96.8Y-48.3
X96.8Y-49.7
X97.0Y-38.0
X97.7Y-57.9
X97.7Y-59.3
X97.8Y-35.6
X97.8Y-37.0
X98.4Y-63.0
X98.58Y-69.53
X99.08Y-97.03
X100.0Y-27.5
X101.08Y-70.53
X102.0Y-31.0
X102.4Y-107.6
X102.5Y-62.5
X104.9Y-107.6
X105.0Y-45.5
X106.58Y-95.03
X106.7Y-48.3
X107.0Y-52.0
X107.3Y-50.2
X107.5Y-86.7
X107.58Y-111.53
X108.0Y-43.5
X108.08Y-84.03
X109.0Y-31.0
X110.5Y-98.5
X111.2Y-54.1
X112.3Y-50.5
X112.58Y-105.53
X113.0Y-66.0
X113.58Y-91.03
X114.5Y-48.5
X116.0Y-49.0
X116.4Y-50.1
X117.8Y-50.1
X119.4Y-35.6
X120.3Y-36.5
X120.58Y-67.53
X121.0Y-30.5
X122.2Y-63.4
X122.9Y-103.8
X123.08Y-103.03
X125.0Y-42.5
X127.08Y-93.03
X127.5Y-99.2
X128.4Y-98.3
X129.58Y-72.03
X129.9Y-71.3
X131.08Y-75.53
X138.58Y-105.53
X139.5Y-58.5
X140.08Y-61.03
X140.08Y-91.03
X141.08Y-81.53
X142.08Y-72.53
X145.08Y-70.73
X146.58Y-78.53
X149.08Y-72.53
X154.08Y-71.53
X155.58Y-81.03
X156.08Y-69.53
X157.08Y-81.03
X157.58Y-83.03
X158.08Y-85.53
X165.08Y-85.03
X166.58Y-97.53
X167.08Y-69.03
X172.08Y-73.53
T2
X91.605Y-66.235
X91.605Y-67.21
X91.605Y-68.185
X92.58Y-66.235
X92.58Y-67.21
X92.58Y-68.185
X93.555Y-66.235
X93.555Y-67.21
X93.555Y-68.185
X112.48Y-51.505
X112.48Y-52.705
X112.48Y-53.905
X113.88Y-51.505
X113.88Y-52.705
X113.88Y-53.905
T4
X50.31Y-119.89
X51.58Y-119.89
X52.85Y-119.89
X74.08Y-31.98
X76.08Y-31.98
T5
X149.0Y-96.95
X151.54Y-96.95
T6
X74.08Y-108.99
X74.08Y-111.53
X74.08Y-114.07
X82.08Y-130.53
X82.08Y-133.03
X82.08Y-135.53
X96.58Y-130.53
X96.58Y-135.53
X103.08Y-85.99
X103.08Y-88.53
X103.08Y-91.07
X103.08Y-93.61
X103.08Y-96.15
X103.08Y-98.69
X103.08Y-101.23
X103.08Y-103.77
X103.08Y-106.31
X103.08Y-108.85
X103.08Y-111.39
X103.08Y-113.93
X103.08Y-116.47
X103.08Y-119.01
T7
X164.08Y-57.03
X164.08Y-59.57
X164.08Y-62.11
T8
X123.08Y-119.28
X123.08Y-131.78
X128.08Y-119.28
X128.08Y-131.78
T9
X149.58Y-47.53
X149.58Y-52.53
X149.58Y-57.53
T11
X143.92Y-102.03
X154.08Y-102.03
T3
G00X145.33Y-31.71
M15
G01X144.73Y-31.71
M16
G05
G00X145.33Y-40.35
M15
G01X144.73Y-40.35
M16
G05
G00X149.76Y-31.71
M15
G01X148.66Y-31.71
M16
G05
G00X149.76Y-40.35
M15
G01X148.66Y-40.35
M16
G05
T10
G00X88.93Y-127.43
M15
G01X90.23Y-127.43
M16
G05
G00X88.93Y-138.63
M15
G01X90.23Y-138.63
M16
G05
M30
