%TF.GenerationSoftware,KiCad,Pcbnew,10.0.3*%
%TF.CreationDate,2026-06-18T21:12:08+05:30*%
%TF.ProjectId,analogoscilloscope,616e616c-6f67-46f7-9363-696c6c6f7363,rev?*%
%TF.SameCoordinates,Original*%
%TF.FileFunction,Copper,L4,Bot*%
%TF.FilePolarity,Positive*%
%FSLAX46Y46*%
G04 Gerber Fmt 4.6, Leading zero omitted, Abs format (unit mm)*
G04 Created by KiCad (PCBNEW 10.0.3) date 2026-06-18 21:12:08*
%MOMM*%
%LPD*%
G01*
G04 APERTURE LIST*
G04 Aperture macros list*
%AMRoundRect*
0 Rectangle with rounded corners*
0 $1 Rounding radius*
0 $2 $3 $4 $5 $6 $7 $8 $9 X,Y pos of 4 corners*
0 Add a 4 corners polygon primitive as box body*
4,1,4,$2,$3,$4,$5,$6,$7,$8,$9,$2,$3,0*
0 Add four circle primitives for the rounded corners*
1,1,$1+$1,$2,$3*
1,1,$1+$1,$4,$5*
1,1,$1+$1,$6,$7*
1,1,$1+$1,$8,$9*
0 Add four rect primitives between the rounded corners*
20,1,$1+$1,$2,$3,$4,$5,0*
20,1,$1+$1,$4,$5,$6,$7,0*
20,1,$1+$1,$6,$7,$8,$9,0*
20,1,$1+$1,$8,$9,$2,$3,0*%
G04 Aperture macros list end*
%TA.AperFunction,ComponentPad*%
%ADD10R,1.700000X1.700000*%
%TD*%
%TA.AperFunction,ComponentPad*%
%ADD11C,1.700000*%
%TD*%
%TA.AperFunction,ComponentPad*%
%ADD12RoundRect,0.250000X-0.350000X-0.625000X0.350000X-0.625000X0.350000X0.625000X-0.350000X0.625000X0*%
%TD*%
%TA.AperFunction,ComponentPad*%
%ADD13O,1.200000X1.750000*%
%TD*%
%TA.AperFunction,ComponentPad*%
%ADD14RoundRect,0.250001X1.149999X-1.149999X1.149999X1.149999X-1.149999X1.149999X-1.149999X-1.149999X0*%
%TD*%
%TA.AperFunction,ComponentPad*%
%ADD15C,2.800000*%
%TD*%
%TA.AperFunction,HeatsinkPad*%
%ADD16C,0.500000*%
%TD*%
%TA.AperFunction,HeatsinkPad*%
%ADD17R,2.450000X2.450000*%
%TD*%
%TA.AperFunction,ComponentPad*%
%ADD18RoundRect,0.249999X0.850001X-0.850001X0.850001X0.850001X-0.850001X0.850001X-0.850001X-0.850001X0*%
%TD*%
%TA.AperFunction,ComponentPad*%
%ADD19C,2.200000*%
%TD*%
%TA.AperFunction,ComponentPad*%
%ADD20O,1.600000X2.500000*%
%TD*%
%TA.AperFunction,ComponentPad*%
%ADD21O,3.500000X7.000000*%
%TD*%
%TA.AperFunction,ComponentPad*%
%ADD22R,1.050000X1.500000*%
%TD*%
%TA.AperFunction,ComponentPad*%
%ADD23O,1.050000X1.500000*%
%TD*%
%TA.AperFunction,ComponentPad*%
%ADD24O,2.100000X1.000000*%
%TD*%
%TA.AperFunction,ComponentPad*%
%ADD25O,1.600000X1.000000*%
%TD*%
%TA.AperFunction,ComponentPad*%
%ADD26O,2.500000X3.000000*%
%TD*%
%TA.AperFunction,ComponentPad*%
%ADD27R,2.000000X2.000000*%
%TD*%
%TA.AperFunction,ComponentPad*%
%ADD28C,2.000000*%
%TD*%
%TA.AperFunction,ComponentPad*%
%ADD29R,3.200000X2.000000*%
%TD*%
%TA.AperFunction,HeatsinkPad*%
%ADD30R,1.900000X2.900000*%
%TD*%
%TA.AperFunction,ViaPad*%
%ADD31C,0.600000*%
%TD*%
%TA.AperFunction,ViaPad*%
%ADD32C,0.500000*%
%TD*%
%TA.AperFunction,Conductor*%
%ADD33C,0.200000*%
%TD*%
G04 APERTURE END LIST*
D10*
%TO.P,J6,1,Pin_1_1*%
%TO.N,SWCLK*%
X74080000Y-108990000D03*
D11*
%TO.P,J6,2,Pin_2_2*%
%TO.N,SWD*%
X74080000Y-111530000D03*
%TO.P,J6,3,Pin_3_3*%
%TO.N,GND*%
X74080000Y-114070000D03*
%TD*%
D12*
%TO.P,J5,1,Pin_1_1*%
%TO.N,VBUS_SYSTEM*%
X74080000Y-31980000D03*
D13*
%TO.P,J5,2,Pin_2_2*%
%TO.N,GND*%
X76080000Y-31980000D03*
%TD*%
D14*
%TO.P,J4,1,Pin_1_1*%
%TO.N,+Vout*%
X149580000Y-57530000D03*
D15*
%TO.P,J4,2,Pin_2_2*%
%TO.N,GNDA*%
X149580000Y-52530000D03*
%TO.P,J4,3,Pin_3_3*%
%TO.N,-Vout*%
X149580000Y-47530000D03*
%TD*%
D10*
%TO.P,J7,1,Pin_1_1*%
%TO.N,+3V3_DIGITAL*%
X103080000Y-85990000D03*
D11*
%TO.P,J7,2,Pin_2_2*%
%TO.N,GND*%
X103080000Y-88530000D03*
%TO.P,J7,3,Pin_3_3*%
%TO.N,TFT_CS*%
X103080000Y-91070000D03*
%TO.P,J7,4,Pin_4_4*%
%TO.N,TFT_RST*%
X103080000Y-93610000D03*
%TO.P,J7,5,Pin_5_5*%
%TO.N,TFT_DC*%
X103080000Y-96150000D03*
%TO.P,J7,6,Pin_6_6*%
%TO.N,TFT_MOSI*%
X103080000Y-98690000D03*
%TO.P,J7,7,Pin_7_7*%
%TO.N,TFT_SCLK*%
X103080000Y-101230000D03*
%TO.P,J7,8,Pin_8_8*%
%TO.N,Net-(J7-Pin_8)*%
X103080000Y-103770000D03*
%TO.P,J7,9,Pin_9_9*%
%TO.N,TFT_MISO*%
X103080000Y-106310000D03*
%TO.P,J7,10,Pin_10_10*%
%TO.N,unconnected-(J7-Pin_10-Pad10)*%
X103080000Y-108850000D03*
%TO.P,J7,11,Pin_11_11*%
%TO.N,unconnected-(J7-Pin_11-Pad11)*%
X103080000Y-111390000D03*
%TO.P,J7,12,Pin_12_12*%
%TO.N,unconnected-(J7-Pin_12-Pad12)*%
X103080000Y-113930000D03*
%TO.P,J7,13,Pin_13_13*%
%TO.N,unconnected-(J7-Pin_13-Pad13)*%
X103080000Y-116470000D03*
%TO.P,J7,14,Pin_14_14*%
%TO.N,unconnected-(J7-Pin_14-Pad14)*%
X103080000Y-119010000D03*
%TD*%
D16*
%TO.P,U4,25,EP_25*%
%TO.N,GND*%
X91605000Y-68185000D03*
X92580000Y-68185000D03*
X93555000Y-68185000D03*
X91605000Y-67210000D03*
X92580000Y-67210000D03*
D17*
X92580000Y-67210000D03*
D16*
X93555000Y-67210000D03*
X91605000Y-66235000D03*
X92580000Y-66235000D03*
X93555000Y-66235000D03*
%TD*%
D18*
%TO.P,J2,1,Pin_1_1*%
%TO.N,V_SWEEP*%
X164080000Y-62110000D03*
D19*
%TO.P,J2,2,Pin_2_2*%
%TO.N,CURRENT_IN*%
X164080000Y-59570000D03*
%TO.P,J2,3,Pin_3_3*%
%TO.N,GNDA*%
X164080000Y-57030000D03*
%TD*%
D20*
%TO.P,J1,1,In_1*%
%TO.N,Net-(J1-In)*%
X149000000Y-96950000D03*
D21*
%TO.P,J1,2,Ext_2*%
%TO.N,GNDA*%
X154080000Y-102030000D03*
D20*
X151540000Y-96950000D03*
D21*
X143920000Y-102030000D03*
%TD*%
D22*
%TO.P,Q1,1,D_1*%
%TO.N,Net-(Q1-D)*%
X50310000Y-119890000D03*
D23*
%TO.P,Q1,2,G_2*%
%TO.N,RANGE_SELECT*%
X51580000Y-119890000D03*
%TO.P,Q1,3,S_3*%
%TO.N,GNDA*%
X52850000Y-119890000D03*
%TD*%
D24*
%TO.P,J3,SH*%
%TO.N,N/C*%
X149210000Y-31710000D03*
D25*
X145030000Y-31710000D03*
D24*
X149210000Y-40350000D03*
D25*
X145030000Y-40350000D03*
%TD*%
D26*
%TO.P,SW3,1,1_1*%
%TO.N,Net-(U8-RUN)*%
X123080000Y-131780000D03*
X123080000Y-119280000D03*
%TO.P,SW3,2,2_2*%
%TO.N,GND*%
X128080000Y-131780000D03*
X128080000Y-119280000D03*
%TD*%
D27*
%TO.P,SW2,A,A_A*%
%TO.N,ROT_A*%
X82080000Y-130530000D03*
D28*
%TO.P,SW2,B,B_B*%
%TO.N,ROT_B*%
X82080000Y-135530000D03*
%TO.P,SW2,C,C_C*%
%TO.N,GND*%
X82080000Y-133030000D03*
D29*
%TO.P,SW2,MP*%
%TO.N,N/C*%
X89580000Y-127430000D03*
X89580000Y-138630000D03*
D28*
%TO.P,SW2,S1,S1_S1*%
%TO.N,ROT_SW*%
X96580000Y-135530000D03*
%TO.P,SW2,S2,S2_S2*%
%TO.N,GND*%
X96580000Y-130530000D03*
%TD*%
D16*
%TO.P,U10,9,EPAD_9*%
%TO.N,GND*%
X112480000Y-51505000D03*
X112480000Y-52705000D03*
X112480000Y-53905000D03*
D30*
X113180000Y-52705000D03*
D16*
X113880000Y-51505000D03*
X113880000Y-52705000D03*
X113880000Y-53905000D03*
%TD*%
D31*
%TO.N,USB_DM*%
X80080000Y-70030000D03*
X80080000Y-57530000D03*
%TO.N,GND*%
X66654049Y-105604049D03*
X97000000Y-38000000D03*
D32*
X96300000Y-98800000D03*
D31*
X68580000Y-102530000D03*
X114500000Y-48500000D03*
D32*
X80800000Y-111100000D03*
D31*
X108000000Y-43500000D03*
X82080000Y-97030000D03*
X64080000Y-102030000D03*
X95500000Y-45000000D03*
X83080000Y-114030000D03*
D32*
X69300000Y-102800000D03*
D31*
X125000000Y-42500000D03*
D32*
X78600000Y-111100000D03*
D31*
X105000000Y-45500000D03*
X100000000Y-27500000D03*
X66604481Y-103554481D03*
X60580000Y-107030000D03*
X116000000Y-49000000D03*
D32*
X107500000Y-86700000D03*
X88900000Y-108200000D03*
D31*
X95580000Y-88030000D03*
X85580000Y-133530000D03*
X49000000Y-95000000D03*
X55580000Y-101030000D03*
X72580000Y-93030000D03*
X108080000Y-84030000D03*
D32*
X74800000Y-106800000D03*
D31*
X96580000Y-84030000D03*
X91500000Y-35000000D03*
X74000000Y-46500000D03*
X113000000Y-66000000D03*
X77280000Y-97230000D03*
X109000000Y-31000000D03*
%TO.N,Net-(D3-K)*%
X96580000Y-65030000D03*
X131080000Y-75530000D03*
%TO.N,/Vref*%
X63080000Y-125030000D03*
X90080000Y-63030000D03*
X91980735Y-62980735D03*
D32*
%TO.N,GNDA*%
X128400000Y-98300000D03*
X77200000Y-118300000D03*
X127500000Y-99200000D03*
X73400000Y-118300000D03*
D31*
X141080000Y-81530000D03*
D32*
X122900000Y-103800000D03*
D31*
X107580000Y-111530000D03*
D32*
X57900000Y-123200000D03*
D31*
X140080000Y-61030000D03*
X66038794Y-104120168D03*
D32*
X59300000Y-123200000D03*
D31*
X166580000Y-97530000D03*
D32*
X104900000Y-107600000D03*
X102400000Y-107600000D03*
D31*
X123080000Y-103030000D03*
X57080000Y-124030000D03*
%TO.N,+5V_RAW*%
X107000000Y-52000000D03*
X110500000Y-98500000D03*
D32*
X112300000Y-50500000D03*
X116400000Y-50100000D03*
X111200000Y-54100000D03*
X117800000Y-50100000D03*
D31*
%TO.N,CURRENT_IN*%
X70080000Y-103030000D03*
X48580000Y-107030000D03*
%TO.N,Net-(Q1-D)*%
X50080000Y-109030000D03*
%TO.N,V_filtered*%
X157580000Y-83030000D03*
X57580000Y-86530000D03*
X155580000Y-81030000D03*
X156080000Y-69530000D03*
%TO.N,+Vout*%
X154080000Y-71530000D03*
D32*
X89700000Y-68200000D03*
D31*
X96000000Y-75500000D03*
%TO.N,Net-(U1A--)*%
X138580000Y-105530000D03*
X142080000Y-72530000D03*
%TO.N,-Vout*%
X146580000Y-78530000D03*
X94500000Y-63000000D03*
X139500000Y-58500000D03*
%TO.N,Net-(U1B--)*%
X165080000Y-85030000D03*
X172080000Y-73530000D03*
X157080000Y-81030000D03*
%TO.N,V_SWEEP*%
X149080000Y-72530000D03*
X167080000Y-69030000D03*
%TO.N,+1.1V*%
X78580000Y-95030000D03*
X75326446Y-95276446D03*
X63580000Y-91030000D03*
X77905735Y-92355735D03*
X77280000Y-92875229D03*
X78080000Y-91530000D03*
%TO.N,Net-(D6-K)*%
X113580000Y-91030000D03*
X120580000Y-67530000D03*
%TO.N,+3V3_DIGITAL*%
X95000000Y-38500000D03*
X74666496Y-98244550D03*
X70580000Y-102030000D03*
X62000000Y-57000000D03*
X95000000Y-43500000D03*
X78500000Y-48000000D03*
X74666496Y-98244550D03*
D32*
X66900000Y-107300000D03*
D31*
X71980000Y-95230000D03*
X92580000Y-101530000D03*
X121000000Y-30500000D03*
X106580000Y-95030000D03*
D32*
X67400000Y-112600000D03*
D31*
X83080000Y-101530000D03*
X77680000Y-102015421D03*
X69500000Y-44500000D03*
X102500000Y-62500000D03*
X79580000Y-95530000D03*
X77480000Y-94930000D03*
X61000000Y-66000000D03*
X81655000Y-97777832D03*
X102000000Y-31000000D03*
X70580000Y-102030000D03*
X88000000Y-51000000D03*
X82500000Y-53500000D03*
%TO.N,SWCLK*%
X77080000Y-103530000D03*
X74580000Y-106030000D03*
%TO.N,SWD*%
X77080000Y-109530000D03*
X78580000Y-104030000D03*
%TO.N,USB_DP*%
X78080000Y-70530000D03*
X77580000Y-59530000D03*
%TO.N,Net-(U8-RUN)*%
X95580000Y-105630000D03*
X88580000Y-105630000D03*
X95080000Y-103030000D03*
D32*
%TO.N,VBUS_SYSTEM*%
X97700000Y-57900000D03*
X97700000Y-59300000D03*
D31*
X145080000Y-70730000D03*
D32*
X96800000Y-48300000D03*
X96600000Y-69200000D03*
D31*
X101080000Y-70530000D03*
D32*
X97800000Y-37000000D03*
D31*
X129580000Y-72030000D03*
X90080000Y-70530000D03*
X92580000Y-70530000D03*
D32*
X97800000Y-35600000D03*
X96600000Y-67300000D03*
X96800000Y-49700000D03*
X122200000Y-63400000D03*
X129900000Y-71300000D03*
D31*
%TO.N,Net-(D2-A)*%
X140080000Y-91030000D03*
X158080000Y-85530000D03*
X98580000Y-69530000D03*
X127080000Y-93030000D03*
%TO.N,/FBP*%
X70080000Y-122530000D03*
X84580000Y-67030000D03*
D32*
X90000000Y-72400000D03*
D31*
%TO.N,TFT_RST*%
X91080000Y-90530000D03*
X83580000Y-98030000D03*
%TO.N,TFT_DC*%
X90580000Y-98530000D03*
X99080000Y-97030000D03*
%TO.N,Net-(J7-Pin_8)*%
X112580000Y-105530000D03*
%TO.N,XIN*%
X76480000Y-102012927D03*
X83080000Y-116530000D03*
D32*
%TO.N,+3V3_ANALOG*%
X87400000Y-60700000D03*
X87400000Y-68700000D03*
D31*
%TO.N,I2C_SCL*%
X68580000Y-98030000D03*
X60080000Y-105530000D03*
%TO.N,RANGE_SELECT*%
X68080000Y-100030000D03*
%TO.N,BUZZER_CTRL*%
X70905735Y-98830000D03*
X56580000Y-112030000D03*
%TO.N,CURRENT_ALERT*%
X73014313Y-100464313D03*
X75030100Y-99617413D03*
X64580000Y-108030000D03*
%TO.N,SWEEP_PWM*%
X69905735Y-99855735D03*
X55080000Y-92530000D03*
%TO.N,ROT_B*%
X76080000Y-133530000D03*
X73580000Y-101030000D03*
%TO.N,POT_SPI_CS*%
X61080000Y-114030000D03*
X66580000Y-109030000D03*
%TO.N,POT_SPI_SCK*%
X69580000Y-108030000D03*
X68580000Y-117530000D03*
X63080000Y-119030000D03*
%TO.N,XOUT*%
X77080000Y-102630000D03*
X89080000Y-110530000D03*
%TO.N,ROT_A*%
X80080000Y-109530000D03*
X79555736Y-99554264D03*
%TO.N,ROT_SW*%
X79380002Y-98530000D03*
X96580000Y-99530000D03*
%TO.N,ALERT_LED*%
X79580000Y-96430000D03*
X89580000Y-95530000D03*
%TO.N,/FBN*%
X95580000Y-66030000D03*
X92080000Y-61530000D03*
D32*
X98400000Y-63000000D03*
D31*
X96580000Y-63030000D03*
X61580000Y-126930000D03*
D32*
%TO.N,Net-(U10-PROG)*%
X107300000Y-50200000D03*
X106700000Y-48300000D03*
%TO.N,A7*%
X120300000Y-36500000D03*
X119400000Y-35600000D03*
%TD*%
%TO.N,GND*%
D33*
X95500000Y-45000000D02*
X96000000Y-45500000D01*
X64080000Y-102378529D02*
X60328529Y-106130000D01*
X64080000Y-102030000D02*
X64080000Y-102378529D01*
X96000000Y-45500000D02*
X105000000Y-45500000D01*
X95580000Y-85030000D02*
X96580000Y-84030000D01*
X60328529Y-106778529D02*
X60328529Y-106130000D01*
X94000000Y-35000000D02*
X91500000Y-35000000D01*
X95580000Y-88030000D02*
X95580000Y-85030000D01*
X77280000Y-97230000D02*
X73380000Y-97230000D01*
X72580000Y-93030000D02*
X72580000Y-96430000D01*
X59831471Y-106130000D02*
X55580000Y-101878529D01*
X66604481Y-103554481D02*
X65080000Y-102030000D01*
X107580000Y-84030000D02*
X103080000Y-88530000D01*
X68580000Y-102030000D02*
X68580000Y-102530000D01*
X60328529Y-106130000D02*
X59831471Y-106130000D01*
X73380000Y-97230000D02*
X68580000Y-102030000D01*
X116000000Y-49000000D02*
X122500000Y-42500000D01*
X114500000Y-48500000D02*
X109500000Y-43500000D01*
X108080000Y-84030000D02*
X108100000Y-84000000D01*
X82080000Y-97030000D02*
X77480000Y-97030000D01*
X109500000Y-43500000D02*
X108000000Y-43500000D01*
X65080000Y-102030000D02*
X64080000Y-102030000D01*
X108100000Y-86100000D02*
X107500000Y-86700000D01*
X55580000Y-101878529D02*
X55580000Y-101030000D01*
X60580000Y-107030000D02*
X60328529Y-106778529D01*
X122500000Y-42500000D02*
X125000000Y-42500000D01*
X108100000Y-84000000D02*
X108100000Y-86100000D01*
X97000000Y-38000000D02*
X94000000Y-35000000D01*
X77480000Y-97030000D02*
X77280000Y-97230000D01*
X108080000Y-84030000D02*
X107580000Y-84030000D01*
X72580000Y-96430000D02*
X73380000Y-97230000D01*
%TO.N,Net-(D3-K)*%
X131080000Y-75530000D02*
X107080000Y-75530000D01*
X107080000Y-75530000D02*
X96580000Y-65030000D01*
%TO.N,/Vref*%
X61528529Y-83430000D02*
X57828529Y-87130000D01*
X56980000Y-86778529D02*
X56980000Y-86281471D01*
X80231471Y-63030000D02*
X90080000Y-63030000D01*
X57331471Y-87130000D02*
X56980000Y-86778529D01*
X113387969Y-144030000D02*
X145970000Y-111447969D01*
X56980000Y-86281471D02*
X80231471Y-63030000D01*
X57828529Y-87130000D02*
X57331471Y-87130000D01*
X129969138Y-83430000D02*
X61528529Y-83430000D01*
X91431470Y-63530000D02*
X91980735Y-62980735D01*
X145970000Y-111447969D02*
X145970000Y-99430862D01*
X90580000Y-63530000D02*
X91431470Y-63530000D01*
X145970000Y-99430862D02*
X129969138Y-83430000D01*
X90080000Y-63030000D02*
X90580000Y-63530000D01*
X63080000Y-125030000D02*
X82080000Y-144030000D01*
X82080000Y-144030000D02*
X113387969Y-144030000D01*
%TO.N,GNDA*%
X123100000Y-103600000D02*
X123080000Y-103030000D01*
X123080000Y-103030000D02*
X124080000Y-102030000D01*
X127500000Y-99200000D02*
X128400000Y-98300000D01*
X124080000Y-102030000D02*
X143920000Y-102030000D01*
X122900000Y-103800000D02*
X123100000Y-103600000D01*
%TO.N,+5V_RAW*%
X110500000Y-97000000D02*
X110500000Y-98500000D01*
X59315785Y-89680000D02*
X100063654Y-89680000D01*
X56580000Y-86115785D02*
X56580000Y-86944215D01*
X90695785Y-52000000D02*
X56580000Y-86115785D01*
X107000000Y-52000000D02*
X90695785Y-52000000D01*
X100063654Y-89680000D02*
X102603654Y-92220000D01*
X105720000Y-92220000D02*
X110500000Y-97000000D01*
X102603654Y-92220000D02*
X105720000Y-92220000D01*
X56580000Y-86944215D02*
X59315785Y-89680000D01*
%TO.N,CURRENT_IN*%
X70080000Y-103030000D02*
X65831471Y-107278529D01*
X60828529Y-107630000D02*
X49180000Y-107630000D01*
X65831471Y-107278529D02*
X61180000Y-107278529D01*
X61180000Y-107278529D02*
X60828529Y-107630000D01*
X49180000Y-107630000D02*
X48580000Y-107030000D01*
%TO.N,V_filtered*%
X157580000Y-83030000D02*
X61080000Y-83030000D01*
X155580000Y-81030000D02*
X155580000Y-70030000D01*
X61080000Y-83030000D02*
X57580000Y-86530000D01*
X155580000Y-70030000D02*
X156080000Y-69530000D01*
%TO.N,+Vout*%
X152480000Y-73130000D02*
X148831471Y-73130000D01*
X140131471Y-64430000D02*
X92310000Y-64430000D01*
X92310000Y-64430000D02*
X90580000Y-66160000D01*
X148480000Y-72778529D02*
X148480000Y-58630000D01*
X90580000Y-66160000D02*
X90580000Y-68030000D01*
X154080000Y-71530000D02*
X152480000Y-73130000D01*
X148480000Y-72778529D02*
X140131471Y-64430000D01*
X148480000Y-58630000D02*
X149580000Y-57530000D01*
X148831471Y-73130000D02*
X148480000Y-72778529D01*
X89900000Y-68000000D02*
X89700000Y-68200000D01*
X90580000Y-68030000D02*
X89900000Y-68000000D01*
%TO.N,-Vout*%
X134000000Y-64000000D02*
X139500000Y-58500000D01*
X95500000Y-64000000D02*
X134000000Y-64000000D01*
X94500000Y-63000000D02*
X95500000Y-64000000D01*
%TO.N,Net-(U1B--)*%
X165080000Y-85030000D02*
X164580000Y-84530000D01*
X164580000Y-84530000D02*
X164580000Y-81030000D01*
X164580000Y-81030000D02*
X172080000Y-73530000D01*
X157080000Y-81030000D02*
X164580000Y-81030000D01*
%TO.N,V_SWEEP*%
X152680000Y-68930000D02*
X166980000Y-68930000D01*
X149080000Y-72530000D02*
X152680000Y-68930000D01*
X166980000Y-68930000D02*
X167080000Y-69030000D01*
%TO.N,+1.1V*%
X78580000Y-93030000D02*
X78580000Y-95030000D01*
X78080000Y-91530000D02*
X77580000Y-91030000D01*
X77580000Y-91030000D02*
X63580000Y-91030000D01*
X75326446Y-94800377D02*
X77251594Y-92875229D01*
X77251594Y-92875229D02*
X77280000Y-92875229D01*
X75326446Y-95276446D02*
X75326446Y-94800377D01*
X77905735Y-92355735D02*
X78580000Y-93030000D01*
%TO.N,+3V3_DIGITAL*%
X75000000Y-44500000D02*
X78500000Y-48000000D01*
X84980000Y-94930000D02*
X85030000Y-94980000D01*
X95428529Y-101530000D02*
X92580000Y-101530000D01*
X102600000Y-30400000D02*
X120900000Y-30400000D01*
X106580000Y-95030000D02*
X104310000Y-97300000D01*
X83480000Y-94930000D02*
X83080000Y-94530000D01*
X77080000Y-102030000D02*
X77080000Y-100608462D01*
X83480000Y-94930000D02*
X84980000Y-94930000D01*
X74169806Y-98440194D02*
X70580000Y-102030000D01*
X67400000Y-107800000D02*
X67400000Y-112600000D01*
X69500000Y-44500000D02*
X75000000Y-44500000D01*
X82580000Y-102030000D02*
X83080000Y-101530000D01*
X99658529Y-97300000D02*
X95428529Y-101530000D01*
X106848529Y-51000000D02*
X88000000Y-51000000D01*
X81655000Y-97777832D02*
X82232168Y-97777832D01*
X78500000Y-48000000D02*
X82500000Y-52000000D01*
X82500000Y-52000000D02*
X82500000Y-53500000D01*
X104310000Y-97300000D02*
X99658529Y-97300000D01*
X102500000Y-62500000D02*
X107600000Y-57400000D01*
X61000000Y-66000000D02*
X61000000Y-58000000D01*
X102000000Y-31000000D02*
X102600000Y-30400000D01*
X107600000Y-51751471D02*
X106848529Y-51000000D01*
X66900000Y-107300000D02*
X67400000Y-107800000D01*
X82232168Y-97777832D02*
X85030000Y-94980000D01*
X120900000Y-30400000D02*
X121000000Y-30500000D01*
X77080000Y-102030000D02*
X82580000Y-102030000D01*
X107600000Y-57400000D02*
X107600000Y-51751471D01*
X74911732Y-98440194D02*
X74169806Y-98440194D01*
X61000000Y-58000000D02*
X62000000Y-57000000D01*
%TO.N,SWCLK*%
X74580000Y-106030000D02*
X77080000Y-103530000D01*
%TO.N,SWD*%
X77080000Y-109530000D02*
X77080000Y-105530000D01*
X77080000Y-105530000D02*
X78580000Y-104030000D01*
%TO.N,Net-(U8-RUN)*%
X95580000Y-103530000D02*
X95080000Y-103030000D01*
X88580000Y-105630000D02*
X88580000Y-106530000D01*
X88580000Y-106530000D02*
X113830000Y-131780000D01*
X95580000Y-105630000D02*
X95580000Y-103530000D01*
X113830000Y-131780000D02*
X123080000Y-131780000D01*
%TO.N,VBUS_SYSTEM*%
X96800000Y-49700000D02*
X96800000Y-48300000D01*
X97800000Y-37000000D02*
X97800000Y-35600000D01*
X97700000Y-59300000D02*
X97700000Y-57900000D01*
X90080000Y-70530000D02*
X92580000Y-70530000D01*
X96600000Y-69200000D02*
X96600000Y-67300000D01*
%TO.N,Net-(D2-A)*%
X152580000Y-91030000D02*
X158080000Y-85530000D01*
X140080000Y-91030000D02*
X152580000Y-91030000D01*
%TO.N,TFT_RST*%
X83580000Y-98030000D02*
X91080000Y-90530000D01*
%TO.N,TFT_DC*%
X90580000Y-98530000D02*
X92080000Y-97030000D01*
X92080000Y-97030000D02*
X99080000Y-97030000D01*
%TO.N,I2C_SCL*%
X62580000Y-100030000D02*
X60080000Y-102530000D01*
X68580000Y-98030000D02*
X66580000Y-100030000D01*
X66580000Y-100030000D02*
X62580000Y-100030000D01*
X60080000Y-102530000D02*
X60080000Y-105530000D01*
%TO.N,CURRENT_ALERT*%
X73861213Y-99617413D02*
X73014313Y-100464313D01*
X65673397Y-108030000D02*
X64580000Y-108030000D01*
X75030100Y-99617413D02*
X73861213Y-99617413D01*
%TO.N,POT_SPI_CS*%
X66580000Y-109030000D02*
X61580000Y-114030000D01*
X61580000Y-114030000D02*
X61080000Y-114030000D01*
%TO.N,POT_SPI_SCK*%
X68580000Y-116030000D02*
X67330000Y-114780000D01*
X67330000Y-114780000D02*
X63080000Y-119030000D01*
X69580000Y-112530000D02*
X67330000Y-114780000D01*
X69580000Y-108030000D02*
X69580000Y-112530000D01*
X68580000Y-117530000D02*
X68580000Y-116030000D01*
%TO.N,ROT_SW*%
X80380002Y-99530000D02*
X79380002Y-98530000D01*
X96580000Y-99530000D02*
X80380002Y-99530000D01*
%TO.N,/FBN*%
X92080000Y-61530000D02*
X95080000Y-61530000D01*
X95080000Y-61530000D02*
X96580000Y-63030000D01*
%TO.N,Net-(U10-PROG)*%
X107300000Y-50200000D02*
X107300000Y-48900000D01*
X107300000Y-48900000D02*
X106700000Y-48300000D01*
%TO.N,A7*%
X119400000Y-35600000D02*
X120300000Y-36500000D01*
%TD*%
M02*
