%TF.GenerationSoftware,KiCad,Pcbnew,10.0.3*%
%TF.CreationDate,2026-06-18T21:12:08+05:30*%
%TF.ProjectId,analogoscilloscope,616e616c-6f67-46f7-9363-696c6c6f7363,rev?*%
%TF.SameCoordinates,Original*%
%TF.FileFunction,Paste,Top*%
%TF.FilePolarity,Positive*%
%FSLAX46Y46*%
G04 Gerber Fmt 4.6, Leading zero omitted, Abs format (unit mm)*
G04 Created by KiCad (PCBNEW 10.0.3) date 2026-06-18 21:12:08*
%MOMM*%
%LPD*%
G01*
G04 APERTURE LIST*
G04 Aperture macros list*
%AMRoundRect*
0 Rectangle with rounded corners*
0 $1 Rounding radius*
0 $2 $3 $4 $5 $6 $7 $8 $9 X,Y pos of 4 corners*
0 Add a 4 corners polygon primitive as box body*
4,1,4,$2,$3,$4,$5,$6,$7,$8,$9,$2,$3,0*
0 Add four circle primitives for the rounded corners*
1,1,$1+$1,$2,$3*
1,1,$1+$1,$4,$5*
1,1,$1+$1,$6,$7*
1,1,$1+$1,$8,$9*
0 Add four rect primitives between the rounded corners*
20,1,$1+$1,$2,$3,$4,$5,0*
20,1,$1+$1,$4,$5,$6,$7,0*
20,1,$1+$1,$6,$7,$8,$9,0*
20,1,$1+$1,$8,$9,$2,$3,0*%
G04 Aperture macros list end*
%ADD10RoundRect,0.250000X-0.350000X-0.450000X0.350000X-0.450000X0.350000X0.450000X-0.350000X0.450000X0*%
%ADD11R,1.500000X2.400000*%
%ADD12RoundRect,0.250000X0.337500X0.475000X-0.337500X0.475000X-0.337500X-0.475000X0.337500X-0.475000X0*%
%ADD13RoundRect,0.218750X-0.218750X-0.381250X0.218750X-0.381250X0.218750X0.381250X-0.218750X0.381250X0*%
%ADD14RoundRect,0.250000X0.450000X-0.325000X0.450000X0.325000X-0.450000X0.325000X-0.450000X-0.325000X0*%
%ADD15RoundRect,0.250000X-0.262500X-0.450000X0.262500X-0.450000X0.262500X0.450000X-0.262500X0.450000X0*%
%ADD16RoundRect,0.250000X-0.337500X-0.475000X0.337500X-0.475000X0.337500X0.475000X-0.337500X0.475000X0*%
%ADD17RoundRect,0.250001X-0.872499X-0.944999X0.872499X-0.944999X0.872499X0.944999X-0.872499X0.944999X0*%
%ADD18RoundRect,0.150000X-0.825000X-0.150000X0.825000X-0.150000X0.825000X0.150000X-0.825000X0.150000X0*%
%ADD19RoundRect,0.250000X-0.375000X-0.625000X0.375000X-0.625000X0.375000X0.625000X-0.375000X0.625000X0*%
%ADD20RoundRect,0.150000X-0.587500X-0.150000X0.587500X-0.150000X0.587500X0.150000X-0.587500X0.150000X0*%
%ADD21RoundRect,0.250000X-0.325000X-0.450000X0.325000X-0.450000X0.325000X0.450000X-0.325000X0.450000X0*%
%ADD22R,2.000000X4.200000*%
%ADD23RoundRect,0.250000X0.262500X0.450000X-0.262500X0.450000X-0.262500X-0.450000X0.262500X-0.450000X0*%
%ADD24R,1.000000X0.800000*%
%ADD25R,0.700000X1.500000*%
%ADD26RoundRect,0.225000X-0.225000X-0.375000X0.225000X-0.375000X0.225000X0.375000X-0.225000X0.375000X0*%
%ADD27RoundRect,0.250000X0.450000X-0.350000X0.450000X0.350000X-0.450000X0.350000X-0.450000X-0.350000X0*%
%ADD28RoundRect,0.250000X0.250000X0.475000X-0.250000X0.475000X-0.250000X-0.475000X0.250000X-0.475000X0*%
%ADD29RoundRect,0.249999X-0.395001X-0.395001X0.395001X-0.395001X0.395001X0.395001X-0.395001X0.395001X0*%
%ADD30RoundRect,0.050000X-0.387500X-0.050000X0.387500X-0.050000X0.387500X0.050000X-0.387500X0.050000X0*%
%ADD31RoundRect,0.050000X-0.050000X-0.387500X0.050000X-0.387500X0.050000X0.387500X-0.050000X0.387500X0*%
%ADD32RoundRect,0.162500X-0.650000X-0.162500X0.650000X-0.162500X0.650000X0.162500X-0.650000X0.162500X0*%
%ADD33RoundRect,0.152500X0.152500X-0.152500X0.152500X0.152500X-0.152500X0.152500X-0.152500X-0.152500X0*%
%ADD34RoundRect,0.062500X0.062500X-0.325000X0.062500X0.325000X-0.062500X0.325000X-0.062500X-0.325000X0*%
%ADD35RoundRect,0.062500X0.325000X-0.062500X0.325000X0.062500X-0.325000X0.062500X-0.325000X-0.062500X0*%
%ADD36RoundRect,0.225000X0.375000X-0.225000X0.375000X0.225000X-0.375000X0.225000X-0.375000X-0.225000X0*%
%ADD37RoundRect,0.250000X0.450000X-0.262500X0.450000X0.262500X-0.450000X0.262500X-0.450000X-0.262500X0*%
%ADD38R,2.400000X1.500000*%
%ADD39RoundRect,0.250000X-0.450000X0.262500X-0.450000X-0.262500X0.450000X-0.262500X0.450000X0.262500X0*%
%ADD40RoundRect,0.250000X0.325000X0.450000X-0.325000X0.450000X-0.325000X-0.450000X0.325000X-0.450000X0*%
%ADD41RoundRect,0.150000X-0.575000X0.150000X-0.575000X-0.150000X0.575000X-0.150000X0.575000X0.150000X0*%
%ADD42RoundRect,0.075000X-0.650000X0.075000X-0.650000X-0.075000X0.650000X-0.075000X0.650000X0.075000X0*%
%ADD43RoundRect,0.250000X-0.250000X-0.475000X0.250000X-0.475000X0.250000X0.475000X-0.250000X0.475000X0*%
%ADD44RoundRect,0.250000X-0.800000X-0.650000X0.800000X-0.650000X0.800000X0.650000X-0.800000X0.650000X0*%
%ADD45RoundRect,0.087500X-0.662500X-0.087500X0.662500X-0.087500X0.662500X0.087500X-0.662500X0.087500X0*%
%ADD46RoundRect,0.150000X-0.512500X-0.150000X0.512500X-0.150000X0.512500X0.150000X-0.512500X0.150000X0*%
%ADD47RoundRect,0.250000X-0.255000X-0.440000X0.255000X-0.440000X0.255000X0.440000X-0.255000X0.440000X0*%
G04 APERTURE END LIST*
D10*
%TO.C,R15*%
X82580000Y-77030000D03*
X84580000Y-77030000D03*
%TD*%
D11*
%TO.C,L2*%
X127330000Y-73030000D03*
X132830000Y-73030000D03*
%TD*%
D12*
%TO.C,C4*%
X86155000Y-63030000D03*
X84080000Y-63030000D03*
%TD*%
D13*
%TO.C,FB1*%
X117517500Y-99530000D03*
X119642500Y-99530000D03*
%TD*%
D14*
%TO.C,D7*%
X116580000Y-47055000D03*
X116580000Y-45005000D03*
%TD*%
D15*
%TO.C,R2*%
X48755000Y-104530000D03*
X50580000Y-104530000D03*
%TD*%
D16*
%TO.C,C10*%
X154542500Y-65530000D03*
X156617500Y-65530000D03*
%TD*%
D17*
%TO.C,C2*%
X62522500Y-72030000D03*
X67637500Y-72030000D03*
%TD*%
D18*
%TO.C,U1*%
X146605000Y-71625000D03*
X146605000Y-72895000D03*
X146605000Y-74165000D03*
X146605000Y-75435000D03*
X151555000Y-75435000D03*
X151555000Y-74165000D03*
X151555000Y-72895000D03*
X151555000Y-71625000D03*
%TD*%
D10*
%TO.C,R12*%
X93580000Y-92030000D03*
X95580000Y-92030000D03*
%TD*%
D16*
%TO.C,C6*%
X62042500Y-87530000D03*
X64117500Y-87530000D03*
%TD*%
D19*
%TO.C,F1*%
X113680000Y-93530000D03*
X116480000Y-93530000D03*
%TD*%
D20*
%TO.C,Q2*%
X49642500Y-90580000D03*
X49642500Y-92480000D03*
X51517500Y-91530000D03*
%TD*%
D21*
%TO.C,D8*%
X122555000Y-51530000D03*
X124605000Y-51530000D03*
%TD*%
D22*
%TO.C,BZ1*%
X56580000Y-66530000D03*
X48580000Y-66530000D03*
%TD*%
D10*
%TO.C,R14*%
X79580000Y-86030000D03*
X81580000Y-86030000D03*
%TD*%
D16*
%TO.C,C5*%
X94737500Y-40115000D03*
X96812500Y-40115000D03*
%TD*%
D10*
%TO.C,R17*%
X88580000Y-102530000D03*
X90580000Y-102530000D03*
%TD*%
D23*
%TO.C,R20*%
X136992500Y-109030000D03*
X135167500Y-109030000D03*
%TD*%
D15*
%TO.C,R21*%
X165167500Y-93030000D03*
X166992500Y-93030000D03*
%TD*%
%TO.C,R1*%
X128667500Y-82530000D03*
X130492500Y-82530000D03*
%TD*%
D20*
%TO.C,U3*%
X57642500Y-74580000D03*
X57642500Y-76480000D03*
X59517500Y-75530000D03*
%TD*%
D24*
%TO.C,SW1*%
X115730000Y-78310000D03*
X115730000Y-76100000D03*
X108430000Y-78310000D03*
X108430000Y-76100000D03*
D25*
X114330000Y-78960000D03*
X111330000Y-78960000D03*
X109830000Y-78960000D03*
%TD*%
D26*
%TO.C,D2*%
X156430000Y-75530000D03*
X159730000Y-75530000D03*
%TD*%
D16*
%TO.C,C9*%
X62042500Y-54030000D03*
X64117500Y-54030000D03*
%TD*%
D27*
%TO.C,R7*%
X93080000Y-77030000D03*
X93080000Y-75030000D03*
%TD*%
D16*
%TO.C,Digital_Filter1*%
X109005000Y-67530000D03*
X111080000Y-67530000D03*
%TD*%
%TO.C,C11*%
X158042500Y-89530000D03*
X160117500Y-89530000D03*
%TD*%
D10*
%TO.C,R9*%
X101080000Y-53530000D03*
X103080000Y-53530000D03*
%TD*%
D26*
%TO.C,D3*%
X150430000Y-84030000D03*
X153730000Y-84030000D03*
%TD*%
D28*
%TO.C,C1*%
X120530000Y-82530000D03*
X118630000Y-82530000D03*
%TD*%
D16*
%TO.C,C7*%
X87505000Y-121030000D03*
X89580000Y-121030000D03*
%TD*%
%TO.C,Clean_Analog_Filter1*%
X87042500Y-82530000D03*
X89117500Y-82530000D03*
%TD*%
D29*
%TO.C,U8*%
X76480000Y-96430000D03*
X76480000Y-98030000D03*
X78080000Y-96430000D03*
X78080000Y-98030000D03*
D30*
X73842500Y-94630000D03*
X73842500Y-95030000D03*
X73842500Y-95430000D03*
X73842500Y-95830000D03*
X73842500Y-96230000D03*
X73842500Y-96630000D03*
X73842500Y-97030000D03*
X73842500Y-97430000D03*
X73842500Y-97830000D03*
X73842500Y-98230000D03*
X73842500Y-98630000D03*
X73842500Y-99030000D03*
X73842500Y-99430000D03*
X73842500Y-99830000D03*
D31*
X74680000Y-100667500D03*
X75080000Y-100667500D03*
X75480000Y-100667500D03*
X75880000Y-100667500D03*
X76280000Y-100667500D03*
X76680000Y-100667500D03*
X77080000Y-100667500D03*
X77480000Y-100667500D03*
X77880000Y-100667500D03*
X78280000Y-100667500D03*
X78680000Y-100667500D03*
X79080000Y-100667500D03*
X79480000Y-100667500D03*
X79880000Y-100667500D03*
D30*
X80717500Y-99830000D03*
X80717500Y-99430000D03*
X80717500Y-99030000D03*
X80717500Y-98630000D03*
X80717500Y-98230000D03*
X80717500Y-97830000D03*
X80717500Y-97430000D03*
X80717500Y-97030000D03*
X80717500Y-96630000D03*
X80717500Y-96230000D03*
X80717500Y-95830000D03*
X80717500Y-95430000D03*
X80717500Y-95030000D03*
X80717500Y-94630000D03*
D31*
X79880000Y-93792500D03*
X79480000Y-93792500D03*
X79080000Y-93792500D03*
X78680000Y-93792500D03*
X78280000Y-93792500D03*
X77880000Y-93792500D03*
X77480000Y-93792500D03*
X77080000Y-93792500D03*
X76680000Y-93792500D03*
X76280000Y-93792500D03*
X75880000Y-93792500D03*
X75480000Y-93792500D03*
X75080000Y-93792500D03*
X74680000Y-93792500D03*
%TD*%
D32*
%TO.C,U9*%
X70492500Y-76125000D03*
X70492500Y-77395000D03*
X70492500Y-78665000D03*
X70492500Y-79935000D03*
X77667500Y-79935000D03*
X77667500Y-78665000D03*
X77667500Y-77395000D03*
X77667500Y-76125000D03*
%TD*%
D15*
%TO.C,R3*%
X136755000Y-82530000D03*
X138580000Y-82530000D03*
%TD*%
D18*
%TO.C,U2*%
X55605000Y-95125000D03*
X55605000Y-96395000D03*
X55605000Y-97665000D03*
X55605000Y-98935000D03*
X60555000Y-98935000D03*
X60555000Y-97665000D03*
X60555000Y-96395000D03*
X60555000Y-95125000D03*
%TD*%
D26*
%TO.C,D9*%
X111930000Y-86030000D03*
X115230000Y-86030000D03*
%TD*%
D33*
%TO.C,U4*%
X91760000Y-68030000D03*
X92580000Y-68030000D03*
X93400000Y-68030000D03*
X91760000Y-67210000D03*
X92580000Y-67210000D03*
X93400000Y-67210000D03*
X91760000Y-66390000D03*
X92580000Y-66390000D03*
X93400000Y-66390000D03*
D34*
X91330000Y-69197500D03*
X91830000Y-69197500D03*
X92330000Y-69197500D03*
X92830000Y-69197500D03*
X93330000Y-69197500D03*
X93830000Y-69197500D03*
D35*
X94567500Y-68460000D03*
X94567500Y-67960000D03*
X94567500Y-67460000D03*
X94567500Y-66960000D03*
X94567500Y-66460000D03*
X94567500Y-65960000D03*
D34*
X93830000Y-65222500D03*
X93330000Y-65222500D03*
X92830000Y-65222500D03*
X92330000Y-65222500D03*
X91830000Y-65222500D03*
X91330000Y-65222500D03*
D35*
X90592500Y-65960000D03*
X90592500Y-66460000D03*
X90592500Y-66960000D03*
X90592500Y-67460000D03*
X90592500Y-67960000D03*
X90592500Y-68460000D03*
%TD*%
D10*
%TO.C,R8*%
X134580000Y-57030000D03*
X136580000Y-57030000D03*
%TD*%
%TO.C,R5*%
X98080000Y-24530000D03*
X100080000Y-24530000D03*
%TD*%
%TO.C,R6*%
X123580000Y-39030000D03*
X125580000Y-39030000D03*
%TD*%
%TO.C,R18*%
X102580000Y-43530000D03*
X104580000Y-43530000D03*
%TD*%
%TO.C,R10*%
X130580000Y-43530000D03*
X132580000Y-43530000D03*
%TD*%
D36*
%TO.C,D1*%
X116080000Y-111180000D03*
X116080000Y-107880000D03*
%TD*%
D10*
%TO.C,R19*%
X110580000Y-101530000D03*
X112580000Y-101530000D03*
%TD*%
D37*
%TO.C,R23*%
X172580000Y-70942500D03*
X172580000Y-69117500D03*
%TD*%
D10*
%TO.C,R22*%
X54580000Y-89030000D03*
X56580000Y-89030000D03*
%TD*%
%TO.C,R16*%
X86080000Y-53530000D03*
X88080000Y-53530000D03*
%TD*%
D38*
%TO.C,L1*%
X132580000Y-93780000D03*
X132580000Y-88280000D03*
%TD*%
D39*
%TO.C,R4*%
X134167500Y-49117500D03*
X134167500Y-50942500D03*
%TD*%
D40*
%TO.C,D4*%
X125105000Y-33530000D03*
X123055000Y-33530000D03*
%TD*%
D41*
%TO.C,J3*%
X150125000Y-32780000D03*
X150125000Y-33580000D03*
D42*
X150125000Y-34780000D03*
X150125000Y-35780000D03*
X150125000Y-36280000D03*
X150125000Y-37280000D03*
D41*
X150125000Y-38480000D03*
X150125000Y-39280000D03*
X150125000Y-39280000D03*
X150125000Y-38480000D03*
D42*
X150125000Y-37780000D03*
X150125000Y-36780000D03*
X150125000Y-35280000D03*
X150125000Y-34280000D03*
D41*
X150125000Y-33580000D03*
X150125000Y-32780000D03*
%TD*%
D10*
%TO.C,R11*%
X147580000Y-25530000D03*
X149580000Y-25530000D03*
%TD*%
D26*
%TO.C,D6*%
X119930000Y-64030000D03*
X123230000Y-64030000D03*
%TD*%
D21*
%TO.C,D5*%
X88555000Y-93530000D03*
X90605000Y-93530000D03*
%TD*%
D43*
%TO.C,C12*%
X100630000Y-76530000D03*
X102530000Y-76530000D03*
%TD*%
D16*
%TO.C,C8*%
X92542500Y-121530000D03*
X94617500Y-121530000D03*
%TD*%
D10*
%TO.C,R13*%
X55080000Y-109530000D03*
X57080000Y-109530000D03*
%TD*%
D44*
%TO.C,Y1*%
X86630000Y-116180000D03*
X89530000Y-116180000D03*
X89530000Y-113880000D03*
X86630000Y-113880000D03*
%TD*%
D18*
%TO.C,U11*%
X61080000Y-118180000D03*
X61080000Y-119450000D03*
X61080000Y-120720000D03*
X61080000Y-121990000D03*
X61080000Y-123260000D03*
X61080000Y-124530000D03*
X61080000Y-125800000D03*
X66030000Y-125800000D03*
X66030000Y-124530000D03*
X66030000Y-123260000D03*
X66030000Y-121990000D03*
X66030000Y-120720000D03*
X66030000Y-119450000D03*
X66030000Y-118180000D03*
%TD*%
D16*
%TO.C,C3*%
X94737500Y-34095000D03*
X96812500Y-34095000D03*
%TD*%
D45*
%TO.C,U5*%
X63980000Y-103530000D03*
X63980000Y-104030000D03*
X63980000Y-104530000D03*
X63980000Y-105030000D03*
X63980000Y-105530000D03*
X68180000Y-105530000D03*
X68180000Y-105030000D03*
X68180000Y-104530000D03*
X68180000Y-104030000D03*
X68180000Y-103530000D03*
%TD*%
D46*
%TO.C,U7*%
X72442500Y-47580000D03*
X72442500Y-48530000D03*
X72442500Y-49480000D03*
X74717500Y-49480000D03*
X74717500Y-47580000D03*
%TD*%
%TO.C,U6*%
X73942500Y-55580000D03*
X73942500Y-56530000D03*
X73942500Y-57480000D03*
X76217500Y-57480000D03*
X76217500Y-56530000D03*
X76217500Y-55580000D03*
%TD*%
D16*
%TO.C,Regulator_Filter1*%
X106542500Y-33030000D03*
X108617500Y-33030000D03*
%TD*%
D47*
%TO.C,U10*%
X112580000Y-51880000D03*
X112580000Y-53530000D03*
X113780000Y-51880000D03*
X113780000Y-53530000D03*
D18*
X110705000Y-50800000D03*
X110705000Y-52070000D03*
X110705000Y-53340000D03*
X110705000Y-54610000D03*
X115655000Y-54610000D03*
X115655000Y-53340000D03*
X115655000Y-52070000D03*
X115655000Y-50800000D03*
%TD*%
M02*
